<?xml version="1.0" encoding="UTF-8"?> <svg xmlns="http://www.w3.org/2000/svg" xmlns:xlink="http://www.w3.org/1999/xlink" version="1.1" width="1590.000000pt" height="1492.000000pt" viewBox="0,0,256,240.21251"><g fill="#262262" fill-rule="nonzero" stroke="none" stroke-width="1" stroke-linecap="butt" stroke-linejoin="miter" stroke-miterlimit="10" stroke-dasharray="" stroke-dashoffset="0" font-family="none" font-weight="none" font-size="none" text-anchor="none" style="mix-blend-mode: normal"><g transform="translate(4.82017,5.75381) scale(0.16101,0.16101)"><g transform="translate(0,1492) scale(0.1,-0.1)"><path d="M8241,13320c-101,-25 -163,-116 -181,-265c-14,-124 -12,-464 4,-552l12,-73h-130h-131l-1,53c-1,87 -54,508 -70,567c-32,113 -84,178 -161,204c-107,36 -168,12 -202,-80c-25,-66 -28,-152 -6,-160c24,-10 42,13 55,69c21,86 35,107 75,107c44,0 44,-6 1,-24c-42,-18 -61,-52 -73,-134c-13,-81 4,-78 27,6c20,72 31,87 81,112c38,18 39,18 63,-5c32,-30 51,-68 71,-144c19,-74 72,-429 77,-516l3,-60l-212,-3l-213,-2v31c0,17 3,29 8,27c4,-2 19,-10 35,-17c52,-27 99,20 83,83c-8,33 -59,53 -90,36c-13,-7 -28,-22 -34,-34c-10,-21 -10,-21 -20,4c-6,14 -23,61 -39,104c-49,145 -118,217 -226,237c-93,17 -161,-2 -217,-60c-78,-79 -120,-257 -119,-496c1,-141 7,-169 36,-173c18,-3 22,3 26,35l4,38l1,-38c1,-23 6,-36 12,-32c14,9 13,308 -1,322c-8,8 -7,27 2,69l13,59l6,-40c6,-45 9,-41 35,71c11,48 27,84 47,109c30,36 34,37 80,33c40,-4 57,-12 90,-44c74,-71 128,-175 153,-291l7,-33h-85c-85,0 -85,0 -116,-35c-62,-71 -30,-163 62,-180c20,-4 37,-11 37,-16c0,-5 16,-16 36,-24c58,-24 131,-91 145,-133c7,-20 14,-32 16,-25c3,8 15,10 34,6c81,-16 134,63 94,141c-9,16 -13,31 -11,33c3,3 177,9 388,14c211,5 427,12 481,15l97,7l-25,-44c-28,-50 -34,-109 -10,-109c8,0 22,15 31,33c9,17 46,60 82,95c35,34 62,66 58,69c-7,7 -192,-9 -376,-32c-95,-12 -668,-23 -942,-18c-156,3 -211,28 -189,85c10,28 21,37 76,69c40,23 45,23 525,31c735,12 961,25 888,53c-14,6 -13,12 4,58c33,88 36,92 58,72c14,-12 27,-15 47,-10c67,16 80,65 37,129l-27,39l24,18c54,41 149,36 204,-12c54,-48 72,-99 90,-254c16,-147 29,-180 73,-196c16,-6 22,-5 22,6c0,8 -4,15 -9,15c-30,0 -54,93 -65,248c-3,40 -10,82 -17,93c-6,11 -9,23 -6,25c9,9 58,-127 86,-243c17,-68 31,-125 31,-128c0,-3 5,-5 10,-5c14,0 12,48 -6,180c-25,182 -74,301 -157,382c-85,83 -195,110 -277,68c-49,-25 -60,-25 -60,0c0,22 -23,37 -60,40c-41,4 -49,1 -60,-20c-14,-26 13,-80 40,-80c33,0 32,-18 -5,-69c-71,-98 -125,-236 -125,-317v-42l-65,-6c-36,-3 -93,-9 -127,-12l-63,-6l3,129c4,228 22,487 36,548c12,47 23,67 55,97c34,32 47,38 84,38c50,0 72,-19 130,-110c39,-62 72,-96 81,-82c9,15 -22,121 -52,175c-14,27 -40,60 -57,72c-34,26 -104,38 -154,25zM8818,12840c23,-17 42,-32 42,-34c0,-2 -21,2 -47,10c-67,20 -150,-3 -197,-55c-34,-37 -38,-22 -7,23c65,94 132,112 209,56zM7072,12801c72,-46 101,-91 154,-245c13,-38 33,-84 44,-103l20,-34l-27,3c-25,3 -28,8 -40,73c-24,132 -111,272 -195,314c-29,14 -36,21 -22,21c11,0 41,-13 66,-29zM8520,12573c-18,-48 -34,-94 -36,-102c-3,-8 -7,-11 -11,-8c-8,9 12,84 42,151c38,87 42,60 5,-41zM7335,12173c-4,-10 -10,-29 -14,-43c-6,-25 -6,-25 -45,18l-39,42h53c46,0 51,-2 45,-17z"></path><path d="M8252,13210c-18,-11 -39,-35 -47,-53c-18,-44 -45,-178 -45,-226c0,-74 17,-51 33,47c29,172 40,192 107,209c20,5 35,16 35,24c0,22 -46,22 -83,-1z"></path><path d="M7343,12892c-37,-28 -40,-73 -8,-110c32,-39 72,-42 102,-9c42,47 36,95 -16,122c-38,19 -51,19 -78,-3z"></path><path d="M8713,12460c-46,-19 -58,-92 -22,-141c22,-31 43,-36 83,-17c38,17 43,48 20,129c-3,12 -47,42 -57,38c-1,0 -12,-4 -24,-9z"></path><path d="M8567,12454c-4,-4 2,-19 13,-34c13,-19 20,-45 20,-77c0,-64 13,-84 33,-52c39,60 28,128 -24,154c-32,17 -33,17 -42,9z"></path><path d="M9120,12170c-25,-25 -27,-91 -4,-114c26,-26 61,-20 79,14c18,35 20,91 3,108c-18,18 -56,14 -78,-8z"></path><path d="M6713,12053c-25,-38 -24,-134 1,-162c23,-26 58,-27 78,-3c26,29 48,80 48,110c0,74 -90,113 -127,55z"></path><path d="M8329,12013c-16,-41 -24,-143 -11,-143c6,0 13,30 17,68c4,37 9,75 11,85c8,27 -5,20 -17,-10z"></path><path d="M8762,12028c-7,-7 -12,-34 -12,-60c0,-44 3,-50 28,-59c62,-24 107,48 65,105c-19,27 -61,34 -81,14z"></path><path d="M7337,11983c-4,-3 -7,-19 -7,-34c0,-16 -9,-46 -20,-67c-21,-40 -17,-80 9,-97c8,-4 8,-12 1,-25c-16,-30 -12,-70 11,-101c22,-31 39,-38 39,-15c0,8 6,17 13,20c8,3 7,8 -5,16c-22,13 -23,43 -3,60c8,7 15,18 15,25c0,21 25,25 193,26c89,1 236,5 327,8c139,5 157,8 115,15c-27,5 -176,6 -330,3l-281,-6l4,33c3,24 -5,49 -28,90c-31,55 -40,63 -53,49z"></path><path d="M8400,11940c-22,-22 -26,-70 -9,-102c10,-19 9,-20 -17,-13c-16,4 -63,8 -104,9c-60,1 -75,-2 -75,-14c0,-11 19,-17 80,-23c68,-6 83,-11 103,-33c27,-30 28,-40 5,-53c-25,-13 -184,-31 -275,-31c-81,0 -108,-6 -108,-23c0,-12 337,-1 392,14c48,12 76,59 59,96c-14,31 -14,33 4,33c27,0 65,47 65,80c0,64 -77,103 -120,60z"></path><path d="M9177,11832c-24,-26 -21,-65 6,-90c28,-27 58,-28 80,-4c20,22 22,83 5,100c-18,18 -73,14 -91,-6z"></path><path d="M6694,11773c-6,-20 -2,-31 16,-45c37,-30 90,-16 90,25c0,33 -19,47 -62,47c-32,0 -39,-4 -44,-27zM6754,11774c22,-9 20,-34 -3,-34c-21,0 -45,23 -34,33c8,9 17,9 37,1z"></path><path d="M8831,11759c-37,-40 -33,-107 9,-129c37,-20 76,14 86,76c4,31 2,45 -11,57c-23,23 -60,21 -84,-4z"></path><path d="M6714,11667c-26,-22 -26,-26 -19,-91c13,-128 83,-144 126,-30c24,63 24,99 -1,124c-27,27 -73,25 -106,-3z"></path><path d="M7456,11672c-9,-14 1,-18 54,-21c25,-1 97,-6 160,-11c166,-14 243,-13 238,3c-6,15 -76,23 -284,33c-111,4 -163,3 -168,-4z"></path><path d="M8306,11634c-3,-9 -6,-24 -6,-33c0,-14 -13,-21 -57,-30c-71,-15 -407,-17 -633,-5l-165,9l-3,28c-4,35 -32,37 -32,2c0,-14 4,-25 9,-25c5,0 11,-9 14,-20c3,-12 14,-20 26,-20c12,0 29,-9 39,-21c9,-11 38,-32 64,-45c65,-33 77,-55 76,-141l-1,-72l-56,-24c-31,-13 -64,-27 -74,-30c-28,-10 -32,-36 -8,-61c12,-13 21,-27 19,-32c-4,-11 27,-56 33,-49c3,2 29,-19 57,-48c52,-52 73,-100 89,-194c3,-18 11,-33 18,-33c30,0 32,-54 10,-325c-21,-254 -68,-528 -137,-790c-15,-60 -42,-161 -58,-224c-16,-62 -39,-143 -50,-180c-49,-166 -85,-497 -78,-728c5,-170 18,-222 85,-345c26,-47 133,-158 154,-158c22,0 5,-20 -47,-54c-69,-46 -93,-44 -109,9c-17,56 -54,135 -63,135c-4,0 -16,14 -26,32c-35,59 -128,128 -171,128c-42,0 -114,-40 -178,-99l-60,-56l-78,3c-87,4 -136,-8 -168,-42c-66,-70 -200,-496 -260,-826c-11,-63 -32,-176 -45,-250c-14,-74 -40,-214 -57,-310c-18,-96 -36,-179 -40,-184c-5,-6 -16,-3 -26,6c-44,38 -167,88 -216,88c-17,0 -42,3 -54,6l-22,6l-1,331c-1,183 -3,389 -5,460c-3,118 -2,127 15,127c10,0 22,9 25,20c4,13 15,20 30,20c32,0 40,33 26,100c-6,28 -11,75 -11,105c0,47 -3,56 -31,79c-35,30 -76,33 -138,11c-36,-12 -52,-12 -133,1c-51,8 -129,14 -173,13c-78,-2 -80,-1 -98,27c-16,25 -17,41 -11,119c13,169 9,181 -51,170c-50,-8 -81,-53 -95,-136c-7,-41 -17,-82 -22,-92c-5,-10 -40,-38 -78,-63c-86,-55 -110,-85 -110,-136c0,-51 19,-46 34,7c8,28 24,49 56,72c98,72 128,103 135,136c25,132 38,169 62,178c57,21 65,4 38,-85c-25,-81 -20,-131 20,-202c27,-48 35,-74 35,-113c0,-40 4,-53 23,-66c20,-14 22,-25 27,-128c3,-61 3,-133 0,-160c-5,-45 -8,-49 -64,-86l-58,-39l-29,32l-29,31l-21,-27c-23,-31 -45,-35 -74,-14c-17,12 -20,31 -25,133c-6,115 -7,120 -44,181c-21,34 -45,62 -52,62c-22,0 -17,-20 24,-85c36,-58 37,-64 42,-173c5,-110 6,-115 33,-138c24,-20 35,-23 65,-18c21,3 42,12 47,19c8,10 15,9 34,-6c31,-25 48,-24 96,6c51,31 55,31 55,-5c0,-25 -6,-33 -36,-47c-33,-16 -41,-16 -137,0c-130,22 -220,22 -241,1c-12,-11 -16,-36 -16,-91c0,-65 2,-76 19,-80c37,-10 40,-226 9,-743c-7,-113 -12,-237 -13,-277v-71l-55,-6c-30,-3 -69,-7 -87,-9c-56,-6 -183,-107 -183,-146c0,-23 22,-41 28,-23c7,23 94,13 147,-16c40,-22 55,-37 75,-80c14,-29 30,-56 36,-60c5,-4 18,-26 28,-49c18,-40 18,-44 2,-68c-9,-14 -21,-25 -27,-25c-6,0 -26,-7 -44,-16c-66,-31 -106,-128 -85,-204c12,-44 112,-151 168,-179c38,-19 40,-23 35,-55c-6,-41 22,-76 62,-76c14,0 28,-7 31,-15c9,-23 24,-18 24,8c0,51 58,70 142,46c46,-12 59,-46 34,-84c-20,-30 -37,-32 -54,-5c-15,25 -54,26 -76,1c-11,-12 -25,-17 -39,-14l-22,5l21,-19c17,-15 24,-41 37,-138c50,-378 93,-639 114,-703l16,-46l-68,-63c-119,-110 -307,-224 -440,-266c-146,-46 -383,-55 -519,-18c-214,57 -368,167 -523,372c-74,97 -102,164 -115,270c-13,106 -8,128 42,178c32,31 40,47 40,75c0,30 5,38 25,46c14,5 35,25 46,44c16,27 32,38 75,52c31,9 68,30 84,45c54,54 66,195 21,257c-12,17 -44,45 -71,63c-63,41 -74,78 -36,118c14,15 26,33 26,39c0,15 26,58 54,90c31,35 93,60 166,67c36,4 68,9 72,11c15,9 9,54 -7,54c-8,0 -38,18 -67,39c-59,45 -117,69 -203,82c-33,5 -65,11 -72,13c-9,4 -12,122 -13,465c-1,457 0,461 20,461c11,0 20,7 20,15c0,9 9,15 25,15c34,0 41,34 26,129c-6,42 -11,90 -11,107c0,59 -63,86 -154,64c-42,-10 -70,-10 -142,1c-49,7 -120,14 -158,15c-92,2 -106,-12 -106,-101c0,-55 4,-68 24,-87c22,-21 24,-33 30,-160c4,-75 2,-212 -3,-305c-6,-92 -16,-270 -22,-395l-13,-228h-60c-115,0 -132,-7 -202,-79c-43,-44 -64,-73 -62,-86c3,-18 9,-20 71,-17c89,4 149,-27 178,-94c11,-24 25,-49 32,-56c7,-7 21,-33 32,-56c23,-53 16,-69 -46,-99c-62,-30 -89,-63 -104,-126c-20,-86 3,-134 111,-227c29,-25 68,-49 87,-55c35,-10 87,-69 87,-99c0,-6 7,-21 15,-32c13,-18 14,-16 15,21v40l78,-3c91,-5 112,-14 112,-48c0,-62 -31,-78 -125,-65c-66,9 -77,7 -53,-12c11,-8 18,-39 23,-107c13,-187 39,-257 144,-397c102,-136 204,-229 331,-304c96,-57 267,-106 400,-115c91,-6 98,-8 90,-25c-38,-70 42,-140 108,-93c26,18 30,74 7,98c-8,8 -15,17 -15,19c0,3 25,8 56,12c89,11 189,42 287,90c134,66 227,128 329,223l48,44l10,-28c75,-198 240,-318 465,-338c39,-3 96,-2 128,2c57,9 58,8 62,-17c29,-150 74,-252 132,-300c87,-72 150,-60 231,44c26,35 27,62 11,319l-11,175l30,63c16,35 46,124 67,198c20,74 47,169 60,210c33,106 77,312 119,550c20,113 41,228 47,255c44,216 60,336 69,540c6,121 19,362 30,535c11,173 22,383 25,465c16,424 117,777 281,985c27,34 54,72 61,83c14,26 42,47 60,47c27,0 47,-55 65,-173c9,-67 15,-123 12,-126c-3,-4 -43,-6 -89,-6h-82l-72,-73c-39,-40 -71,-79 -71,-87c0,-9 18,-16 58,-20c66,-7 147,-38 181,-69c24,-21 62,-98 75,-148c6,-28 55,-71 94,-83c19,-5 22,-13 22,-53c-1,-46 -2,-47 -48,-69c-26,-11 -61,-24 -79,-28c-45,-9 -106,-74 -131,-141c-32,-83 -29,-145 12,-229c40,-84 70,-114 122,-122c52,-8 274,-137 387,-226c38,-29 38,-30 19,-51c-29,-31 -37,-92 -17,-123c15,-22 15,-26 1,-42c-54,-60 -62,-191 -17,-287c16,-33 42,-76 58,-95c16,-19 37,-47 48,-64c10,-16 20,-24 22,-18c6,17 133,-116 142,-147c5,-17 2,-35 -11,-55c-28,-47 -24,-90 11,-111c24,-14 30,-25 34,-68c4,-46 2,-53 -24,-77c-18,-16 -29,-37 -29,-53c0,-28 31,-66 55,-66c12,0 15,-13 15,-60c0,-49 -3,-61 -20,-70c-43,-23 -16,-103 43,-123c18,-7 25,-57 7,-57c-18,0 -50,-39 -50,-61c0,-11 12,-33 28,-48c24,-24 26,-30 15,-52c-7,-13 -13,-34 -13,-46c0,-19 6,-23 29,-23c37,0 53,20 49,62c-2,23 3,39 20,55c36,36 28,84 -20,109c-34,17 -31,42 8,85c31,32 32,81 2,109c-12,11 -28,21 -35,21c-7,1 -19,2 -25,3c-8,1 -13,17 -13,45c0,35 6,50 28,72c35,36 34,63 -3,91c-27,20 -30,27 -30,79c0,49 3,59 25,73c15,10 25,26 25,40c0,30 -36,76 -60,76c-14,0 -21,10 -25,34c-6,30 -2,38 37,77c33,34 57,76 103,179c52,119 59,144 63,213c7,124 -38,207 -112,207c-25,0 -26,3 -26,51c0,43 3,50 18,47c11,-2 18,-14 20,-36c2,-19 9,-32 17,-32c14,0 19,20 29,109c6,54 47,99 186,203c52,40 97,74 100,75c2,2 -1,7 -7,11c-8,5 4,24 36,57c33,34 46,54 40,61c-6,7 -6,22 1,38c38,101 -33,232 -170,313c-54,32 -80,38 -80,18c0,-16 -2,-16 -26,0c-17,11 -35,14 -55,10l-29,-7v56c0,58 10,73 45,67c27,-4 35,-19 35,-63c0,-70 44,-32 45,39c1,36 7,49 33,73c18,16 32,36 32,46c0,28 59,129 98,167c41,40 97,52 126,28c14,-12 16,-10 16,8c0,17 6,21 35,21c19,0 35,5 35,10c0,6 -19,10 -43,10c-40,0 -46,4 -70,40l-26,40h35c67,0 22,35 -59,45c-93,13 -168,28 -172,35c-11,17 85,250 103,250c5,0 26,-13 46,-29c202,-161 366,-674 366,-1146c0,-60 9,-225 19,-365c11,-140 22,-349 26,-465c6,-209 23,-387 50,-520c8,-38 28,-151 45,-250c40,-231 83,-445 113,-565c55,-214 142,-498 168,-551c56,-113 219,-222 384,-256c44,-9 82,-18 84,-19c1,-2 -4,-13 -13,-26c-23,-32 -20,-55 8,-73c22,-15 27,-15 55,0c26,13 31,22 31,50c0,20 -5,35 -12,35c-32,0 6,11 70,20c63,9 125,26 196,55c17,7 18,4 11,-42c-20,-151 68,-291 189,-301c41,-3 56,0 79,18c33,26 45,49 94,176c35,91 38,107 37,199c-1,121 -24,256 -65,380l-31,93l15,93c9,52 19,117 22,144c6,44 12,53 45,77c80,56 139,157 175,303c13,53 25,99 27,100c2,2 51,-60 110,-138c129,-173 234,-294 432,-498c83,-86 180,-187 215,-224c86,-91 114,-101 286,-110c115,-6 152,-4 204,10c167,43 295,152 342,290c7,22 19,47 25,55c14,17 40,417 29,449c-5,16 5,31 39,65c40,38 46,50 46,85c0,34 3,41 20,41c12,0 30,16 46,40c20,30 38,43 78,56c28,9 63,28 78,42c28,26 58,107 58,156c0,62 -61,152 -120,176c-46,19 -54,78 -15,112c14,12 25,30 25,41c0,34 53,95 105,121c28,14 79,28 115,31c36,4 68,12 72,19c14,21 8,46 -11,46c-10,0 -35,14 -57,30c-55,45 -158,90 -204,90c-15,0 -41,3 -58,6l-31,6v267c-1,146 -4,353 -7,459c-6,173 -5,192 9,192c9,0 21,9 27,20c6,11 19,20 29,20c36,0 46,26 33,89c-7,31 -12,81 -12,110c0,45 -4,57 -30,83c-28,28 -34,29 -83,23c-70,-9 -148,-9 -297,0c-151,9 -155,7 -155,-92c0,-57 3,-66 25,-83l25,-19l-1,-233c0,-128 -6,-334 -14,-458c-7,-124 -14,-261 -16,-305c-2,-69 -5,-80 -21,-82c-10,-1 -48,-5 -85,-8c-71,-7 -103,-23 -188,-97c-36,-32 -42,-41 -34,-58c8,-19 19,-22 90,-23c100,-2 126,-18 160,-95c14,-31 36,-68 49,-82c21,-23 29,-46 26,-76c0,-7 -11,-14 -23,-17c-41,-11 -106,-67 -127,-110c-27,-56 -28,-144 -2,-195c37,-71 117,-132 173,-132c28,0 88,-66 88,-97c0,-37 25,-87 55,-111c36,-28 27,-59 -17,-59c-20,0 -37,-7 -50,-22c-24,-31 -23,-47 8,-77c18,-19 31,-24 50,-20l24,6v-118c0,-93 -4,-132 -20,-177c-42,-123 -107,-199 -210,-249c-62,-30 -71,-31 -213,-34c-142,-4 -149,-3 -190,21c-23,14 -72,59 -109,100c-37,41 -91,90 -120,110c-144,95 -648,704 -648,781c0,58 30,129 73,175c57,60 77,100 77,148c0,48 -30,114 -63,139c-22,18 -25,28 -28,107c-4,82 -3,87 19,97c24,11 25,38 1,31c-40,-10 -65,-1 -96,33c-52,56 -46,66 41,66h75l-6,-36c-5,-29 -3,-36 8,-32c8,2 15,14 17,26c2,14 18,30 42,42c47,24 66,25 104,5c37,-19 36,-20 36,12c0,15 -10,37 -22,50l-22,23l29,30l29,30l23,-22c68,-64 181,26 126,101c-11,14 -32,28 -48,31c-25,5 -27,9 -31,59c-6,76 -40,131 -100,162c-65,33 -72,48 -49,101c10,23 24,50 31,58c6,8 17,32 23,52c21,64 109,124 167,113c19,-3 34,-10 34,-16c0,-6 5,-7 10,-4c32,20 -13,96 -86,146c-34,23 -58,30 -117,35l-74,7l-7,216c-4,119 -11,297 -17,396c-5,99 -6,245 -3,325c7,135 9,147 31,167c19,18 23,32 23,80c0,38 -6,67 -16,82c-17,23 -19,24 -133,16c-195,-12 -309,-6 -316,19c-21,78 -39,109 -73,123c-43,18 -78,10 -86,-19c-3,-13 2,-62 11,-109l16,-87l-27,-55c-17,-35 -44,-69 -74,-93c-74,-58 -132,-116 -148,-146c-21,-41 -18,-134 7,-185c29,-61 109,-145 182,-193c70,-46 84,-48 120,-20c22,17 26,18 37,5c7,-8 19,-15 26,-15c23,0 16,-27 -9,-34c-71,-17 -136,-18 -180,-1c-76,29 -147,-5 -147,-71c0,-18 -7,-66 -15,-106c-20,-91 -14,-117 25,-125c17,-3 30,-12 30,-19c0,-8 9,-14 20,-14c18,0 20,-7 20,-85v-86l-49,-47c-57,-55 -57,-84 0,-92l34,-5l3,-277c2,-257 1,-277 -15,-281c-17,-4 -17,-5 0,-6c22,-1 23,-39 1,-48c-22,-8 -37,12 -74,102c-17,44 -60,148 -95,230c-35,83 -86,204 -113,270c-62,150 -208,496 -232,550c-49,111 -65,148 -101,243c-27,70 -39,118 -39,153c0,43 -4,55 -29,78c-37,34 -101,183 -82,189c7,2 23,14 36,26c72,64 -2,172 -95,138c-23,-9 -28,-5 -72,63c-95,144 -186,217 -302,242c-67,15 -89,15 -164,4c-47,-7 -104,-17 -127,-23c-35,-10 -46,-8 -90,14c-65,33 -157,52 -218,44c-28,-3 -79,-19 -115,-36c-36,-17 -67,-29 -69,-26c-2,2 12,42 32,90c64,154 69,188 69,421c0,223 -3,246 -59,480c-19,77 -41,181 -49,230c-8,50 -27,133 -41,185c-14,52 -46,183 -70,290c-101,433 -126,621 -106,805c6,59 15,113 19,119c5,6 14,29 20,51c16,55 83,156 126,189c41,31 47,56 13,56c-13,0 -28,5 -34,11c-8,8 -53,9 -145,5c-73,-3 -217,-9 -320,-12c-178,-6 -189,-5 -220,14l-32,21l29,11c17,7 35,13 41,14c7,1 18,7 26,14c11,9 89,10 310,6c202,-4 298,-3 302,4c8,13 -24,32 -52,32c-45,0 -60,62 -42,168c13,79 31,99 98,109c58,9 111,69 96,108c-8,20 -40,19 -48,-1zM8144,11497c-13,-16 -27,-39 -30,-52c-6,-26 0,-114 11,-156c7,-26 6,-26 -55,-32c-34,-3 -67,-10 -73,-16c-6,-6 -39,-11 -73,-11c-104,0 -122,17 -49,44c25,10 71,37 103,60c72,54 157,166 124,166c-4,0 -38,-32 -77,-70c-49,-50 -89,-80 -135,-101c-117,-55 -115,-54 -112,-77c3,-20 -1,-22 -47,-22c-27,0 -52,3 -55,8c-2,4 2,32 10,62c12,47 12,64 0,123c-8,38 -21,76 -30,85c-14,16 4,17 249,18h263zM8158,11094c28,-6 30,-8 20,-30c-8,-18 -14,-21 -24,-13c-19,16 -35,3 -123,-101c-51,-60 -83,-107 -87,-128c-9,-47 2,-112 22,-131c15,-15 16,-14 10,9c-23,80 -20,107 17,157c38,52 167,182 167,170c0,-5 -18,-45 -39,-90c-66,-138 -80,-200 -83,-351c-2,-108 1,-140 14,-167c11,-22 23,-95 33,-204c29,-299 44,-392 89,-544c24,-80 53,-191 65,-246c12,-55 40,-174 61,-265c22,-91 51,-243 66,-338c23,-155 25,-183 16,-276c-9,-89 -16,-117 -51,-193c-23,-48 -61,-116 -84,-150c-40,-60 -44,-63 -83,-63c-80,0 -165,96 -199,225c-40,157 0,705 52,705c19,0 11,24 -10,28c-48,10 -77,-171 -77,-488c0,-219 9,-300 42,-365c44,-86 84,-121 171,-149c16,-5 15,-8 -9,-31c-37,-34 -54,-37 -191,-33c-112,3 -121,5 -187,38c-114,58 -187,156 -228,304c-46,166 -51,218 -38,416c17,284 57,517 148,880c39,153 97,417 113,515c26,152 38,384 29,524c-11,159 -23,198 -101,317c-21,33 -39,63 -39,67c0,9 476,9 518,1zM8540,8181c-36,-9 -76,-23 -88,-30c-13,-7 -26,-10 -29,-7c-12,11 103,56 142,55c38,-1 36,-2 -25,-18zM7301,8124c50,-26 106,-135 124,-245l7,-44l-94,91c-59,57 -121,106 -166,131c-67,37 -71,41 -55,55c54,47 109,51 184,12zM9175,8136c59,-28 146,-116 197,-201c36,-59 143,-286 149,-315c2,-8 -9,-28 -24,-44c-31,-33 -33,-46 -13,-84c20,-38 46,-59 84,-67c17,-3 32,-8 32,-10c0,-1 11,-32 25,-68c23,-62 23,-65 5,-60c-35,9 -70,-6 -81,-35c-15,-39 3,-93 40,-115c35,-21 48,-21 84,-2l28,14l40,-85c21,-47 39,-88 39,-91c0,-4 62,-152 122,-288c17,-38 51,-119 75,-180c25,-60 56,-135 68,-165c13,-30 44,-107 70,-170c26,-63 58,-141 71,-173l23,-58l-27,-11c-85,-34 -120,-53 -146,-79c-17,-16 -38,-29 -48,-29c-11,0 -18,-7 -18,-17c0,-28 16,-47 33,-40c9,3 36,-5 62,-18c31,-17 54,-23 74,-19c19,4 38,0 55,-12c35,-22 86,-96 86,-123c0,-12 6,-21 15,-21c8,0 15,-2 15,-4c0,-2 3,-13 7,-23c7,-17 6,-17 -20,0c-20,13 -43,17 -85,15c-51,-3 -58,-6 -70,-30c-17,-36 -6,-91 24,-128c23,-26 23,-30 9,-64c-19,-45 -19,-65 1,-134c20,-69 53,-102 125,-125c42,-14 60,-26 81,-57c15,-22 35,-40 43,-40c8,0 15,-6 16,-12c0,-7 2,-26 3,-42c1,-18 14,-39 34,-57c38,-34 39,-54 17,-199c-21,-139 -21,-141 14,-129c56,20 82,60 97,151c8,46 14,100 14,120c0,28 5,38 20,43c25,8 26,29 1,22c-11,-2 -25,3 -35,14c-21,25 -62,24 -76,-1c-15,-27 -34,-25 -55,6c-19,30 -14,68 12,79c10,4 54,9 97,12l79,6l-7,-42c-5,-33 -3,-42 6,-39c7,3 15,20 18,39c3,21 11,34 20,34c31,0 40,119 12,156c-10,13 -44,68 -77,122c-46,78 -60,95 -68,82c-5,-9 -20,-20 -34,-26l-25,-9l20,-33c86,-142 102,-171 97,-176c-8,-8 -127,-7 -205,1c-70,7 -145,41 -192,86c-53,50 -30,149 41,178c22,8 44,27 52,42c17,34 28,42 57,42c20,0 22,-3 16,-38c-5,-32 -2,-43 17,-65c22,-24 28,-26 63,-18c58,14 71,31 56,75c-6,20 -26,47 -43,61c-30,23 -30,25 -9,25c27,0 28,10 2,60l-20,40h27c26,0 71,20 47,20c-7,0 -15,17 -19,38c-3,20 -17,57 -31,81c-13,24 -22,46 -20,49c15,14 36,-14 56,-72c12,-36 25,-68 30,-71c18,-11 17,12 -1,70c-10,33 -16,68 -13,77c4,13 -1,17 -18,16c-13,-1 -52,-1 -88,0l-66,2l-27,56c-16,31 -26,59 -23,62c3,2 37,7 76,10c71,5 78,9 60,41c-32,61 -51,175 -62,373c-6,115 -8,211 -5,215c4,3 30,-4 59,-18c53,-25 108,-91 108,-131c0,-10 11,-28 25,-40c25,-21 32,-53 17,-74c-4,-5 -21,-16 -38,-23c-69,-28 -114,-104 -114,-193c1,-97 55,-174 141,-199c33,-10 79,-52 79,-72c0,-2 -18,-7 -41,-10c-22,-3 -43,-7 -45,-10c-8,-7 17,-151 28,-162c11,-11 5,105 -7,138c-6,13 -2,17 19,17h27l-3,-82l-3,-83l-33,-3c-68,-7 -17,-22 72,-22c84,0 94,2 99,19c3,14 1,18 -9,14c-8,-3 -14,0 -14,5c0,20 17,22 34,3c22,-24 25,-135 8,-296c-6,-66 -17,-181 -23,-255c-20,-264 -59,-401 -147,-515c-34,-45 -46,-53 -119,-77c-79,-27 -82,-27 -139,-12c-126,32 -195,86 -309,239c-115,155 -152,231 -255,530c-77,222 -77,222 -135,465c-69,293 -118,534 -149,745c-14,94 -37,211 -51,260c-15,50 -37,133 -51,185c-26,102 -107,400 -155,570c-53,187 -183,428 -314,583c-37,43 -64,81 -61,84c12,12 76,21 156,22c70,1 94,-3 135,-23zM8695,8141c3,-5 -18,-41 -47,-80c-29,-39 -71,-105 -93,-148c-66,-128 -83,-153 -106,-153c-37,0 -144,-121 -191,-216c-34,-69 -45,-84 -65,-84c-27,0 -27,2 -12,156c6,60 17,119 25,131c8,12 14,29 14,37c0,9 7,34 16,56c13,32 26,46 60,62c51,24 64,38 35,38c-35,0 -24,26 31,75c68,61 157,105 224,112c30,3 54,10 54,14c0,12 47,11 55,0zM10549,8131c11,-11 25,-39 31,-62c10,-37 9,-44 -9,-63c-12,-13 -21,-36 -21,-53c0,-17 -7,-67 -15,-112c-18,-90 -10,-121 28,-121c14,0 26,-10 35,-27c16,-35 17,-243 1,-243c-8,0 -9,14 -5,44c9,59 -10,104 -63,145l-41,33v-36c0,-34 -2,-36 -34,-36c-67,0 -87,-70 -36,-122c36,-35 51,-61 65,-108c7,-22 21,-40 38,-48c23,-11 25,-16 17,-33c-15,-27 -29,-24 -96,19c-121,79 -194,177 -194,262c0,62 21,95 33,50c3,-11 17,-25 31,-31c75,-35 134,85 60,124l-25,13l60,52c34,30 68,71 81,97c23,48 24,73 4,223c-6,48 -5,52 15,52c11,0 30,-9 40,-19zM8820,8078c38,-43 164,-257 232,-393c70,-138 93,-207 217,-635c103,-355 121,-423 131,-490c5,-36 14,-101 20,-145c40,-286 107,-577 266,-1148c63,-229 119,-348 250,-537c127,-183 351,-350 468,-350c45,0 46,-1 46,-31c0,-17 -3,-29 -7,-27c-5,2 -20,10 -35,17c-24,12 -31,12 -53,-3c-27,-18 -34,-63 -13,-84c15,-15 64,-16 73,-2c10,17 27,11 22,-7c-3,-10 -8,-30 -11,-45c-4,-18 -13,-28 -25,-28c-58,0 -104,-100 -140,-299c-11,-62 -21,-114 -23,-115c-117,-77 -182,-100 -260,-91c-34,3 -58,2 -58,-3c0,-16 103,-24 154,-12c26,6 73,27 104,47c31,20 50,28 43,19c-24,-29 -93,-64 -157,-80c-189,-48 -428,17 -551,150c-51,54 -61,75 -108,214c-44,131 -45,152 -1,40c48,-125 73,-168 130,-225c72,-73 153,-121 224,-135c32,-7 68,-10 78,-8c10,3 -10,11 -45,18c-43,9 -84,27 -126,54c-158,107 -214,198 -295,481c-43,150 -132,622 -195,1035c-35,225 -42,263 -44,225c-1,-31 35,-327 44,-354c2,-9 11,-59 19,-111c8,-52 26,-160 41,-240c14,-80 33,-183 41,-230c20,-113 62,-303 81,-363c8,-27 13,-50 10,-53c-5,-6 -39,100 -77,248c-31,117 -163,824 -174,928c-3,30 -11,170 -16,310c-22,562 -49,979 -69,1085c-6,28 -15,89 -21,136c-6,48 -28,157 -50,243c-75,297 -165,483 -288,599c-28,26 -55,47 -59,47c-4,0 -14,4 -21,8c-10,7 -1,31 34,103c26,52 55,105 64,119c90,132 105,146 130,118zM6933,8053c2,-5 -7,-28 -19,-53c-17,-33 -23,-39 -23,-23c-1,37 -13,55 -45,69c-31,13 -31,13 26,14c31,0 59,-3 61,-7zM7273,7871c48,-46 87,-88 87,-92c0,-5 -28,-37 -63,-71c-106,-107 -191,-278 -261,-528c-57,-202 -75,-335 -86,-620c-5,-140 -16,-349 -24,-465c-8,-115 -20,-302 -25,-415c-11,-215 -23,-302 -90,-670c-23,-124 -51,-274 -62,-335c-11,-60 -33,-164 -50,-230c-33,-132 -147,-495 -159,-508c-4,-5 -18,22 -30,60c-40,120 -94,193 -144,193c-12,0 -27,5 -33,11c-29,29 -68,-19 -92,-116c-14,-57 -51,-327 -51,-374c0,-26 -5,-41 -16,-45c-9,-3 -60,-6 -115,-6c-197,0 -330,79 -407,241c-50,105 -50,106 8,174c78,90 144,193 205,315c30,60 55,114 55,119c0,24 22,19 64,-13c58,-44 144,-76 205,-76c114,0 266,124 320,262c53,135 113,403 131,593c6,61 22,182 35,270c35,237 45,373 75,1022c19,405 77,863 140,1113c48,192 79,266 133,327l20,23l71,-38c46,-24 102,-66 159,-121zM7783,7988l42,-23l-89,-3c-98,-3 -125,7 -80,32c41,21 78,20 127,-6zM8134,7974c-11,-15 -23,-23 -33,-19c-9,3 -67,6 -129,7c-97,2 -115,5 -130,21c-17,19 -16,20 18,14c97,-17 206,-19 240,-4c44,19 54,13 34,-19zM10714,7984c21,-4 88,-2 150,5c140,15 170,8 174,-40c2,-29 -4,-40 -38,-74c-31,-30 -43,-36 -52,-27c-17,17 -53,15 -69,-4c-9,-11 -16,-54 -19,-120c-5,-96 -7,-106 -33,-131c-35,-36 -55,-21 -38,30c12,35 1,87 -17,87c-5,0 -12,29 -16,65c-7,73 -23,115 -42,115c-7,0 -24,-14 -39,-31c-19,-23 -23,-35 -15,-43c8,-8 16,-5 29,13c24,31 31,19 38,-70c5,-58 10,-73 25,-77c20,-5 23,-28 8,-67c-13,-33 3,-65 31,-65c60,0 98,67 99,175c0,39 4,75 8,81c4,6 31,10 60,10l54,-1l-6,-80c-18,-235 -26,-426 -26,-656c0,-215 -2,-259 -15,-269c-20,-17 -172,-4 -216,18c-65,34 -69,54 -70,367c0,255 -8,421 -25,563c-7,57 -24,71 -24,20c0,-45 -13,-64 -29,-44c-7,8 -19,12 -27,9c-23,-9 -27,23 -14,110c18,123 18,123 42,135c23,11 37,11 112,-4zM6770,7935c13,-35 54,-43 90,-17l28,21l-33,-112c-44,-147 -79,-289 -101,-409c-14,-81 -21,-98 -35,-98c-26,0 -59,-39 -59,-69c0,-43 20,-101 35,-101c22,0 24,-11 14,-75c-19,-131 -18,-126 -45,-119c-15,4 -34,0 -49,-10c-53,-35 -21,-156 41,-156c20,0 22,-4 18,-32c-2,-18 -9,-134 -14,-258c-30,-663 -27,-635 -89,-1116c-45,-350 -92,-565 -155,-715c-16,-39 -98,-115 -153,-143c-74,-37 -197,-5 -263,70c-25,29 -28,38 -20,55c14,25 91,243 130,364c38,118 106,382 120,467c11,64 14,68 46,78c68,23 97,109 52,157c-12,13 -27,23 -35,23c-7,0 -13,8 -13,18c0,26 46,287 82,457c17,83 36,182 44,220c17,93 98,540 125,685c37,204 69,353 101,460c16,58 37,130 44,160c16,60 74,220 81,220c2,0 8,-11 13,-25zM8098,7915c2,-2 -8,-41 -22,-86c-34,-117 -38,-140 -45,-264l-6,-110l-112,-3c-87,-2 -113,0 -113,10c-2,48 -31,302 -40,342c-11,56 -22,71 -64,94l-31,17l45,6c40,6 380,0 388,-6zM7582,7870c4,-11 12,-19 18,-15c12,7 87,-60 105,-95c12,-24 46,-176 45,-204c-1,-6 -11,8 -23,31c-34,64 -113,160 -157,191c-31,22 -41,36 -49,75c-6,26 -11,52 -11,57c0,17 64,-18 72,-40zM5793,7853c92,-16 101,-16 152,1c86,27 125,7 125,-66c1,-18 7,-60 14,-93c15,-72 12,-85 -19,-85c-13,0 -25,-5 -27,-12c-2,-6 -10,-8 -16,-4c-8,5 -12,39 -12,102c0,56 -4,94 -10,94c-5,0 -10,-16 -10,-35c0,-40 -9,-44 -35,-15c-10,11 -22,20 -26,20c-17,0 -38,-47 -48,-109c-6,-35 -18,-72 -27,-82c-13,-14 -15,-30 -11,-68c7,-56 2,-65 -25,-50c-31,17 -48,71 -48,156c0,107 -30,145 -88,114c-24,-13 -102,51 -102,83c0,65 53,77 213,49zM7607,7667c53,-67 122,-203 116,-228c-9,-32 -23,-22 -47,34c-13,28 -49,95 -80,147c-31,52 -56,98 -56,102c0,17 27,-6 67,-55zM5975,7680c19,0 36,-322 17,-334c-5,-3 -12,-113 -15,-245c-4,-132 -12,-262 -17,-289c-14,-64 -54,-111 -105,-122c-60,-14 -195,-14 -208,-1c-9,9 -12,115 -13,374c-1,199 -7,400 -12,447c-6,47 -11,105 -11,130l-1,45l58,1c31,0 60,-4 64,-10c4,-6 8,-43 8,-81c0,-87 29,-155 73,-170c46,-16 63,3 59,68c-2,46 0,55 16,59c16,5 20,17 24,75c6,86 16,106 36,75c8,-12 20,-22 27,-22zM8412,7603c-17,-43 -35,-94 -40,-113c-8,-33 -10,-35 -48,-31c-21,1 -40,4 -42,5c-1,2 11,29 28,62c29,59 118,170 127,160c3,-3 -8,-40 -25,-83zM10566,7558c22,-42 4,-90 -38,-106c-42,-16 -46,-9 -14,28c30,37 31,41 11,81c-18,34 -11,57 12,38c8,-7 21,-26 29,-41zM8447,7391c84,-9 95,-12 142,-47c28,-21 51,-42 51,-46c0,-4 -37,-8 -82,-8c-46,0 -126,-3 -178,-6l-95,-6l-12,26c-13,29 -6,33 23,11c43,-32 46,-12 4,26c-68,60 -43,68 147,50zM7886,7369l292,-1l38,-39c21,-21 35,-41 33,-44c-3,-3 -132,-1 -286,5c-155,5 -296,7 -315,5c-18,-2 -116,-7 -218,-10l-185,-5l55,39c75,54 101,61 205,56c50,-3 221,-5 381,-6zM10620,7310c0,-34 -7,-38 -26,-13c-9,13 -9,22 -2,30c17,21 28,15 28,-17zM8427,7254c40,-3 75,-9 78,-13c2,-5 -9,-26 -25,-47c-31,-41 -39,-79 -17,-87c9,-3 9,-7 -1,-20c-8,-9 -23,-35 -35,-59c-18,-34 -28,-44 -52,-46c-29,-4 -29,-3 -12,16c10,11 20,37 23,58l5,39l-27,-50c-32,-60 -54,-86 -65,-79c-5,3 -5,13 1,23c14,27 29,101 20,101c-4,0 -16,-26 -26,-57c-11,-31 -25,-59 -33,-61c-11,-4 -12,0 -6,14c15,32 17,117 5,149c-11,28 -13,28 -20,10c-7,-15 -9,-16 -9,-4c-1,9 -7,22 -15,28c-15,13 -146,46 -216,56c-30,4 -50,12 -58,26c-13,20 -12,20 200,14c117,-3 246,-8 285,-11zM5385,7224c50,-9 114,-14 143,-11l52,6v-53c0,-51 -1,-53 -24,-49c-32,6 -45,-19 -53,-102c-5,-52 -10,-68 -26,-76c-17,-10 -19,-18 -13,-71c5,-53 4,-59 -11,-56c-10,2 -28,18 -40,37c-19,28 -23,47 -23,112c0,43 -5,90 -12,105c-11,24 -16,26 -58,21c-41,-5 -48,-2 -82,29c-30,27 -38,42 -38,69c0,35 0,35 90,54c3,0 46,-6 95,-15zM8045,7195c157,-28 184,-42 143,-75c-14,-10 -39,-50 -57,-89c-27,-58 -37,-71 -61,-76c-39,-9 -38,-22 3,-33l32,-9l-41,-41l-42,-42h-151c-83,0 -154,0 -158,0c-5,-1 -9,8 -11,18c-3,16 5,20 46,24c26,3 63,12 82,21c20,11 57,17 97,17c44,0 62,3 57,11c-4,7 -25,9 -58,5c-47,-6 -52,-5 -61,16c-8,18 -23,25 -75,35c-87,15 -153,45 -222,99c-31,24 -60,44 -65,44c-4,1 -18,16 -30,35c-25,39 -9,49 22,15c22,-24 35,-26 35,-5c0,12 20,15 123,15c84,1 146,7 197,19c41,10 82,17 90,15c8,-1 56,-10 105,-19zM8554,7195c-4,-8 -11,-15 -16,-15c-6,0 -5,6 2,15c7,8 14,15 16,15c2,0 1,-7 -2,-15zM10485,7177c28,-1 68,1 90,3l40,5l3,-55c2,-32 -4,-77 -13,-107c-9,-29 -16,-70 -14,-90c4,-79 -1,-103 -29,-134c-38,-43 -52,-32 -45,34c4,41 2,56 -11,66c-9,7 -16,22 -16,33c0,10 -7,48 -16,83c-17,68 -37,83 -64,50c-21,-25 -42,-18 -39,13c2,15 -1,29 -5,32c-5,3 -8,-36 -7,-87c2,-91 -7,-119 -32,-94c-6,6 -22,11 -35,11c-24,0 -25,2 -18,53c4,28 11,77 15,109c10,81 22,92 91,83c30,-4 78,-8 105,-8zM5566,7054c4,-15 3,-86 -2,-158c-5,-72 -9,-163 -9,-202v-71l-87,-6c-93,-6 -141,-23 -179,-63c-12,-13 -26,-24 -31,-24c-4,0 -8,51 -8,113c0,61 -5,178 -12,259c-6,82 -9,151 -6,154c4,3 15,1 26,-5c14,-8 29,-7 52,0c17,6 34,9 37,5c4,-3 10,-49 13,-101c8,-100 21,-132 66,-161c20,-14 29,-15 51,-5c24,11 25,15 19,63c-6,44 -4,52 13,65c15,10 21,25 21,51c0,53 11,112 21,112c5,0 12,-12 15,-26zM12480,7046c41,0 94,4 116,8c59,12 78,-10 89,-100c13,-117 12,-149 -6,-149c-9,0 -24,-6 -33,-14c-22,-18 -25,-7 -28,104c-2,54 -7,88 -13,85c-5,-3 -8,-17 -6,-32c3,-34 -12,-42 -34,-18c-38,42 -57,21 -76,-86c-7,-38 -20,-74 -28,-80c-11,-8 -13,-25 -8,-67c3,-30 3,-58 0,-61c-9,-9 -49,23 -61,50c-7,14 -12,62 -12,107c0,108 -14,132 -74,123c-37,-6 -45,-3 -79,28c-32,28 -38,39 -35,67c4,43 28,50 133,41c44,-3 114,-6 155,-6zM10444,7024c3,-9 6,-35 6,-59c0,-55 15,-95 35,-95c18,0 19,-20 3,-55c-9,-21 -9,-31 0,-46c10,-15 10,-20 0,-24c-16,-5 -100,-24 -110,-25c-5,0 -8,65 -8,145c0,139 1,145 20,145c11,0 23,7 26,15c8,19 20,19 28,-1zM8238,6998c-15,-23 -48,-37 -48,-21c0,6 45,39 59,42c2,1 -3,-9 -11,-21zM8154,6895c-4,-8 -8,-15 -10,-15c-2,0 -4,7 -4,15c0,8 4,15 10,15c5,0 7,-7 4,-15zM8200,6884c0,-14 -4,-23 -10,-19c-5,3 -10,15 -10,26c0,10 5,19 10,19c6,0 10,-12 10,-26zM8237,6873c-3,-10 -5,-4 -5,12c0,17 2,24 5,18c2,-7 2,-21 0,-30zM12558,6889c7,-11 19,-18 27,-16c10,5 14,-24 20,-139c4,-79 4,-156 0,-171c-4,-16 -11,-122 -15,-238c-12,-302 -15,-330 -45,-382c-15,-24 -38,-48 -52,-54c-14,-5 -71,-12 -128,-16c-81,-5 -104,-3 -111,8c-5,8 -12,199 -16,424c-4,226 -10,447 -14,493l-7,83l37,-6c24,-5 41,-3 52,5c27,23 39,-5 44,-103c6,-103 29,-151 77,-163c44,-11 58,6 55,69c-3,48 0,55 18,60c16,4 20,13 20,49c0,53 10,118 19,118c3,0 12,-9 19,-21zM8290,6855c0,-28 -4,-35 -20,-35c-11,0 -20,5 -20,10c0,6 4,10 10,10c5,0 12,11 16,25c9,35 14,31 14,-10zM8120,6862c0,-11 -11,-24 -25,-30c-31,-14 -32,-6 -3,25c26,28 28,28 28,5zM8167,6823c-3,-3 -13,-3 -21,-1c-15,3 -15,6 1,28l18,25l3,-23c2,-13 1,-26 -1,-29zM3848,6804c33,-4 75,-2 107,6c97,23 119,3 129,-120c3,-36 8,-77 12,-92c6,-25 3,-28 -18,-28c-13,0 -29,-5 -35,-11c-24,-24 -33,3 -33,97c0,56 -4,94 -10,94c-5,0 -10,-18 -10,-40c0,-44 -9,-50 -28,-19c-8,13 -21,19 -35,17c-17,-2 -24,-14 -34,-53c-6,-27 -12,-67 -12,-87c-1,-27 -6,-38 -16,-38c-25,0 -31,-45 -14,-110c7,-26 -32,-17 -54,12c-17,22 -22,47 -25,120c-6,122 -11,132 -69,124c-42,-5 -48,-3 -75,24c-15,16 -33,30 -38,30c-18,0 -11,68 8,80c17,11 136,8 250,-6zM10618,6778c-2,-15 -11,-24 -25,-26c-27,-4 -29,5 -6,30c22,24 35,23 31,-4zM7920,6777c0,-9 23,-13 88,-13c101,-1 203,-24 282,-65c96,-50 110,-70 110,-163c0,-62 -25,-107 -80,-144c-39,-26 -54,-50 -24,-37c11,4 27,7 37,7c9,0 25,11 35,24c9,14 30,39 46,56c26,29 28,29 21,7c-18,-56 -123,-149 -168,-149c-10,0 -17,-4 -17,-10c0,-18 -31,-11 -49,12c-17,20 -21,21 -64,9c-47,-13 -65,-12 -147,9c-54,14 -132,7 -162,-15c-28,-19 -56,-19 -122,0c-38,11 -56,23 -69,45c-10,17 -22,30 -27,30c-4,0 -32,18 -60,41c-90,71 -99,137 -38,271c22,48 37,69 57,76c14,6 80,11 146,11c66,1 121,4 124,7c11,10 81,3 81,-9zM8456,6756c27,-14 51,-23 55,-20c4,2 37,-30 73,-73c60,-69 66,-81 66,-121c0,-43 -25,-103 -60,-146c-22,-26 -84,-56 -119,-56c-16,0 -41,-4 -55,-10c-32,-12 -32,-7 -4,32c56,79 85,208 57,259c-5,11 -11,32 -12,47c-2,20 -15,36 -54,62c-29,19 -52,38 -53,43c0,16 61,6 106,-17zM8391,6714c27,-20 49,-42 49,-49c0,-7 3,-21 6,-29c5,-12 2,-15 -11,-10c-15,6 -16,4 -6,-14c13,-25 15,-72 1,-72c-5,0 -12,28 -16,62c-6,53 -12,68 -47,105c-48,52 -41,55 24,7zM11083,6714c84,-4 111,-15 172,-68l40,-35h-135c-74,0 -171,-5 -215,-12c-44,-6 -88,-11 -97,-11c-10,1 -18,0 -18,-1c4,-39 30,-160 35,-165c4,-4 5,28 1,71c-6,73 -6,77 14,77c18,0 20,-6 20,-80v-80h-29c-34,0 -49,-15 -25,-24c9,-3 54,-6 101,-6h85l-7,-52c-4,-29 -9,-55 -11,-57c-4,-5 -123,-7 -271,-3l-121,2l5,39c3,21 0,48 -6,60c-12,21 -11,21 89,21c60,0 100,4 100,10c0,6 -7,10 -15,10c-10,0 -15,10 -15,34c0,18 -11,54 -25,80c-22,41 -23,46 -7,46c13,0 24,-18 41,-70c24,-75 47,-96 35,-32c-4,20 -13,51 -20,68c-10,23 -10,34 -2,42c7,7 8,12 3,13c-6,1 -19,2 -30,3c-11,1 -116,3 -234,4c-210,2 -214,2 -197,21c26,28 154,94 201,103c36,6 334,2 538,-8zM3982,6635c6,6 18,-163 18,-262c0,-40 -4,-73 -9,-73c-5,0 -10,-120 -13,-267l-4,-268l-28,-48c-37,-63 -67,-77 -184,-84c-80,-5 -100,-3 -110,10c-9,11 -13,100 -16,353c-2,187 -7,411 -11,499c-6,133 -5,158 6,148c17,-16 44,-16 69,-1c30,19 41,-1 41,-74c0,-93 13,-139 49,-170c36,-33 60,-35 85,-8c15,17 16,24 7,46c-18,37 -15,61 8,67c16,4 20,14 20,49c0,23 5,60 11,82l11,38l22,-21c12,-12 25,-19 28,-16zM6181,6565c94,-35 139,-61 147,-83c3,-9 -59,-12 -251,-12c-249,0 -255,-1 -250,-20c3,-10 -2,-40 -11,-66c-18,-54 -20,-74 -7,-74c5,0 19,30 32,66c21,59 41,85 54,72c2,-2 -7,-26 -20,-53c-14,-26 -25,-61 -25,-76c0,-16 -7,-30 -17,-34c-29,-13 21,-23 116,-24c72,-1 82,-3 71,-16c-7,-8 -10,-32 -8,-55l4,-41l-202,3c-111,2 -205,5 -207,8c-3,3 -3,26 0,52l6,47l85,3c57,2 87,7 90,16c2,8 -7,12 -27,12c-30,0 -31,2 -31,43c0,23 -3,59 -6,80c-6,35 -5,37 21,37c24,0 26,-3 21,-22c-13,-50 -19,-128 -8,-128c12,0 20,31 28,108c5,46 4,59 -7,59c-8,0 -57,6 -109,12c-52,7 -158,12 -235,12h-140l30,25c81,65 182,82 516,83l246,1zM11050,6554c-29,-33 -60,-91 -74,-137c-10,-31 -28,-8 -20,26c19,94 57,145 108,146c15,1 13,-5 -14,-35zM11102,6527c-34,-34 -62,-70 -62,-79c0,-10 -9,-22 -20,-28c-26,-14 -26,-1 0,51c33,63 88,119 118,119c25,0 22,-4 -36,-63zM10546,6554c24,-16 54,-64 68,-111c6,-18 3,-23 -11,-23c-12,0 -25,17 -40,49c-14,33 -36,60 -65,82l-43,32l32,-6c18,-4 44,-14 59,-23zM10636,6528c17,-26 36,-60 42,-77c10,-29 9,-31 -11,-31c-18,0 -28,13 -51,65c-16,36 -38,72 -50,81c-21,15 -20,15 9,12c23,-2 37,-14 61,-50zM10717,6542c27,-41 58,-120 50,-128c-11,-11 -58,6 -63,24c-3,9 -17,42 -32,72c-15,30 -28,59 -30,63c-2,5 9,7 24,5c19,-2 36,-14 51,-36zM10978,6572c-17,-39 -38,-104 -43,-134c-3,-21 -11,-38 -17,-38c-6,0 -8,9 -4,23c3,12 6,50 6,84c0,50 3,62 18,66c28,8 44,7 40,-1zM5541,6420c44,-47 77,-105 67,-116c-10,-9 -38,9 -38,25c0,9 -24,41 -54,71c-51,51 -60,70 -33,70c6,0 32,-22 58,-50zM5604,6447c21,-21 66,-122 66,-147c0,-6 -6,-10 -12,-10c-7,0 -22,21 -32,47c-11,26 -38,67 -59,90l-40,43h27c15,0 37,-10 50,-23zM11074,6431c-5,-22 -10,-29 -17,-22c-7,7 -6,18 3,36c17,32 22,27 14,-14zM5323,6446c3,-8 25,-16 50,-20c48,-7 86,-39 109,-91c7,-16 26,-51 41,-77c40,-66 34,-86 -36,-121c-32,-16 -65,-42 -74,-57c-18,-32 -62,-45 -117,-35c-33,7 -33,8 -40,67c-7,74 -8,295 0,323c6,23 59,32 67,11zM5696,6447c1,-1 4,-37 6,-79c4,-82 -5,-103 -17,-41c-4,20 -18,59 -32,86l-25,50l33,-7c18,-3 34,-7 35,-9zM6000,6441c0,-6 -5,-13 -10,-16c-14,-9 -60,-101 -60,-120c0,-11 -10,-15 -36,-15c-32,0 -35,2 -28,23c10,34 44,100 62,120c16,18 72,24 72,8zM6078,6440c-20,-12 -63,-85 -72,-122c-5,-22 -12,-28 -32,-28c-22,0 -24,3 -18,23c22,72 76,137 112,137c22,-1 24,-2 10,-10zM6180,6446c0,-2 -17,-15 -39,-30c-23,-16 -48,-46 -62,-76c-15,-31 -31,-49 -41,-50c-24,0 -23,12 7,70c17,34 37,56 63,69c33,18 72,27 72,17zM6320,6411c0,-10 -18,-106 -40,-212c-22,-107 -53,-279 -71,-384c-61,-373 -123,-631 -224,-919c-25,-72 -48,-132 -50,-134c-18,-18 -98,416 -110,595c-7,112 -4,122 61,187c26,26 34,42 34,70c0,29 5,38 24,46c13,4 33,24 44,42c16,26 34,38 76,51c74,24 109,60 125,132c24,108 -1,171 -95,236c-45,30 -61,62 -50,97c4,11 16,22 26,25c12,3 20,14 20,27c0,28 22,70 52,97c57,53 178,84 178,44zM8470,6260c-14,-11 -29,-20 -35,-20c-5,0 1,9 15,20c14,11 30,20 35,20c6,0 -1,-9 -15,-20zM8213,6254c3,-3 -15,-46 -41,-95l-47,-89h-67c-61,0 -68,2 -80,24c-7,14 -26,46 -42,72c-33,54 -27,64 39,64c22,0 51,7 65,14c25,14 161,22 173,10zM8250,6236c0,-8 -4,-17 -9,-20c-5,-3 -23,-30 -39,-59c-54,-94 -64,-94 -17,1c43,85 65,112 65,78zM8399,6247c-42,-35 -169,-145 -182,-159c-16,-16 -47,-25 -47,-13c0,3 25,43 55,90l55,85h61c34,0 60,-2 58,-3zM11104,6215c38,-41 69,-112 69,-156c0,-39 -38,-102 -88,-149c-25,-24 -33,-25 -170,-28c-132,-3 -144,-2 -161,16c-11,11 -32,24 -49,28c-48,11 -143,62 -153,81c-33,63 -21,137 34,201l36,42l228,-3l227,-3zM7880,6200c0,-5 -2,-10 -4,-10c-3,0 -8,5 -11,10c-3,6 -1,10 4,10c6,0 11,-4 11,-10zM7940,6114c12,-19 21,-37 18,-39c-2,-2 -14,14 -26,36c-28,49 -22,52 8,3zM6069,6091c86,-68 120,-174 72,-224c-48,-52 -129,-84 -236,-94c-234,-22 -342,0 -414,83c-32,36 -33,40 -29,107l4,70l53,48l52,47l228,-2l228,-2zM8271,6047c-10,-9 -11,-8 -5,6c3,10 9,15 12,12c3,-3 0,-11 -7,-18zM8210,5955c0,-30 -4,-55 -9,-55c-13,0 -21,27 -21,71c0,28 4,39 15,39c12,0 15,-13 15,-55zM8165,5952c4,-24 5,-45 3,-47c-2,-2 -56,-5 -121,-6c-125,-4 -136,0 -137,45c0,43 22,51 139,51h109zM5374,5948c3,-13 7,-34 10,-48c2,-14 7,-35 11,-46c8,-24 27,-24 -200,-1c-72,8 -137,9 -188,3c-102,-11 -113,0 -45,47c74,50 88,54 223,56c65,1 121,4 124,6c2,3 17,5 32,5c22,0 30,-6 33,-22zM10239,5873c6,-16 15,-38 21,-50c9,-22 7,-23 -33,-23c-37,0 -45,4 -64,35c-13,19 -23,37 -23,40c0,5 56,22 77,24c6,1 16,-11 22,-26zM10980,5850c0,-5 -4,-10 -9,-10c-5,0 -11,-10 -13,-22c-3,-22 -6,-23 -93,-19c-100,4 -135,13 -135,35c0,13 20,16 108,19c59,1 115,4 125,5c9,1 17,-2 17,-8zM5152,5795c39,-38 93,-123 85,-132c-2,-1 -13,0 -25,4c-14,3 -22,13 -22,27c0,13 -25,44 -67,83c-60,57 -65,63 -42,63c17,0 41,-15 71,-45zM5204,5830c18,-6 34,-27 52,-67c35,-79 41,-113 21,-113c-10,0 -20,15 -27,40c-6,22 -31,65 -56,95c-44,55 -42,65 10,45zM8000,5825c0,-19 30,-32 93,-40c46,-6 67,-25 26,-25c-30,0 -18,-23 18,-32c26,-7 32,-14 36,-46c6,-46 -27,-258 -43,-278c-7,-8 -28,-14 -46,-14c-29,0 -39,7 -73,53c-50,67 -70,107 -76,153c-2,21 -9,42 -15,48c-16,16 -12,-44 5,-94c19,-55 19,-57 -5,-35c-26,24 -50,105 -50,172c0,58 19,106 54,135c27,22 76,24 76,3zM11068,5823c2,-9 -9,-13 -37,-13c-39,0 -50,8 -34,24c11,11 66,2 71,-11zM5316,5816c6,-4 9,-164 4,-161c-4,3 -15,31 -24,63c-9,32 -23,67 -31,78c-22,29 -18,34 18,27c17,-3 33,-6 33,-7zM5385,5793c-4,-16 -9,-53 -11,-83c-3,-59 -24,-84 -24,-28c0,18 -3,57 -6,86c-7,52 -7,52 21,52c25,0 27,-2 20,-27zM5437,5799c7,-7 6,-21 -3,-47c-7,-20 -13,-47 -14,-59c0,-41 19,-24 36,32c12,36 21,52 28,45c6,-6 5,-18 -2,-35c-7,-14 -12,-37 -12,-51c0,-13 -7,-27 -15,-30c-36,-14 4,-24 96,-24h100l-16,-30c-10,-19 -23,-30 -37,-30c-12,0 -34,-11 -49,-26c-25,-24 -31,-25 -172,-27c-87,-1 -150,2 -156,8c-5,6 -11,30 -13,55l-3,45l103,3c56,1 102,7 102,12c0,4 -5,10 -11,12c-8,3 -7,25 2,81c13,78 17,85 36,66zM10050,5806c0,-3 -4,-8 -10,-11c-5,-3 -10,-1 -10,4c0,6 5,11 10,11c6,0 10,-2 10,-4zM8304,5769c35,-20 36,-23 36,-77c0,-32 -7,-68 -15,-82c-8,-14 -22,-41 -31,-60c-92,-201 -103,-219 -128,-226c-17,-4 -36,0 -58,14l-32,20l35,15c88,39 104,81 104,284c0,131 -3,122 47,132c4,0 23,-8 42,-20zM12734,5781c4,-6 36,-19 72,-30c65,-19 134,-62 134,-83c0,-8 -42,-9 -142,-5c-79,4 -193,4 -254,0c-95,-5 -111,-8 -107,-22c2,-9 -5,-42 -16,-73c-13,-38 -16,-60 -9,-64c11,-7 28,13 28,33c0,27 40,103 55,103c19,0 20,4 -10,-54c-14,-27 -25,-58 -25,-69c0,-11 -7,-29 -17,-39c-15,-17 -13,-18 75,-18c114,0 126,-4 107,-34c-10,-15 -13,-34 -9,-54l7,-32h-174c-96,0 -190,3 -211,6c-34,6 -36,9 -40,48c-6,53 8,61 94,57c70,-3 108,4 108,20c0,5 -13,9 -30,9c-27,0 -30,3 -30,34c0,18 -3,54 -6,80c-7,45 -6,46 21,46c21,0 26,-4 21,-17c-13,-33 -19,-133 -9,-133c13,0 20,25 28,105l7,61l-183,22c-101,12 -208,22 -238,22c-53,0 -54,0 -36,20c10,11 39,30 65,43c46,23 53,23 382,26c224,2 338,-1 342,-8zM8198,5750c3,-21 2,-22 -12,-11c-19,16 -21,44 -3,39c6,-3 14,-15 15,-28zM10236,5765c40,-19 70,-52 89,-97c19,-47 19,-58 0,-58c-8,0 -22,18 -31,40c-9,22 -36,58 -60,79c-59,52 -58,67 2,36zM10451,5735c31,-45 52,-106 41,-117c-20,-20 -49,8 -84,84l-38,79l27,-3c19,-2 36,-16 54,-43zM10697,5764c5,-14 -3,-62 -24,-136c-7,-26 -24,-22 -18,5c3,12 7,49 9,82c3,33 5,61 5,63c2,9 23,-1 28,-14zM5565,5722c-3,-7 -8,-25 -11,-38c-4,-14 -14,-25 -25,-25c-10,-1 -25,-2 -31,-3c-15,-1 -12,24 7,72c13,30 16,31 40,20c16,-7 24,-17 20,-26zM5932,5722c19,-19 -23,-32 -128,-38l-109,-7l-12,33l-12,33l126,-6c69,-3 130,-10 135,-15zM5619,5721c9,-6 11,-18 7,-35c-5,-20 -13,-26 -32,-26c-21,0 -25,3 -19,18c4,9 10,25 12,35c6,19 12,21 32,8zM5170,5690c6,-11 8,-26 4,-32c-5,-8 -10,-5 -15,8c-16,41 -8,59 11,24zM10730,5655c0,-35 -15,-54 -31,-38c-11,11 11,84 23,77c4,-3 8,-20 8,-39zM5660,5659c0,-6 -4,-7 -10,-4c-5,3 -10,11 -10,16c0,6 5,7 10,4c6,-3 10,-11 10,-16zM5878,5644c26,-18 28,-45 6,-79c-13,-19 -25,-25 -55,-25c-49,0 -85,32 -94,83l-6,37h63c41,0 71,-5 86,-16zM12242,5590c37,-74 45,-110 25,-110c-9,0 -21,15 -27,35c-7,20 -27,56 -45,80c-22,28 -30,45 -22,49c27,11 43,-2 69,-54zM12310,5565c3,-44 4,-82 2,-85c-6,-9 -22,25 -22,48c0,12 -11,45 -26,73l-25,50l33,-3l33,-3zM12610,5644c0,-3 -9,-18 -20,-33c-10,-15 -28,-50 -38,-77c-17,-43 -23,-49 -52,-52c-29,-3 -31,-1 -25,20c12,41 44,104 65,126c19,20 70,31 70,16zM12672,5617c-11,-12 -32,-48 -46,-80c-19,-42 -31,-57 -46,-57c-25,0 -25,11 0,59c29,57 69,101 93,101h20zM12776,5627c-48,-31 -76,-61 -93,-102c-11,-29 -24,-45 -35,-45c-23,0 -22,8 1,62c26,61 72,97 126,97c19,0 19,-1 1,-12zM12168,5593c36,-46 52,-77 52,-97c0,-14 -3,-14 -20,-4c-11,7 -20,19 -20,26c0,7 -21,35 -46,62c-45,48 -46,50 -21,50c17,0 34,-12 55,-37zM5690,5579c0,-11 14,-33 32,-49c23,-22 29,-33 21,-41c-20,-20 -71,16 -79,55c-3,19 -3,39 1,45c11,18 25,12 25,-10zM10392,5536c29,-58 26,-66 -24,-66c-18,0 -19,4 -14,36c5,25 2,43 -9,60c-14,22 -14,24 3,24c12,0 27,-18 44,-54zM4167,5524c34,-13 67,-24 73,-24c16,0 100,-61 100,-72c0,-6 -78,-6 -188,-2c-224,8 -322,1 -320,-24c1,-9 -6,-43 -16,-75c-10,-32 -15,-61 -13,-64c12,-11 24,9 42,68c17,55 37,81 51,66c3,-3 -6,-28 -20,-56c-14,-28 -26,-62 -26,-76c0,-14 -4,-25 -10,-25c-5,0 -10,-4 -10,-10c0,-6 40,-10 101,-10c93,0 100,-1 93,-17c-5,-10 -8,-37 -8,-59l1,-42l-179,1c-223,0 -240,3 -245,42c-9,77 -18,70 92,73c55,1 104,7 109,12c7,7 -3,10 -27,10h-37l-2,60c-1,33 -2,70 -2,82c-1,14 6,22 21,24c20,3 21,1 16,-79c-5,-89 9,-90 21,-2c4,28 10,60 13,72c4,17 0,22 -14,22c-10,-1 -76,7 -148,16c-88,11 -166,14 -240,10l-110,-6l35,31c62,54 114,73 179,67c32,-4 62,-2 67,3c11,11 284,18 439,12c75,-3 116,-10 162,-28zM5408,5490c101,0 112,-2 112,-18c0,-10 7,-28 16,-40c12,-18 24,-22 52,-20c30,2 40,9 53,35l16,32l34,-25c46,-33 48,-40 55,-142l7,-89l-31,-22c-78,-55 -115,-64 -291,-66c-91,-1 -178,-7 -192,-13c-20,-8 -33,-7 -55,4c-38,20 -129,117 -149,161c-15,30 -15,38 -1,86c27,92 88,130 196,122c36,-3 116,-5 178,-5zM10951,5324c11,-49 10,-55 -14,-96c-14,-24 -37,-54 -52,-68l-28,-25l6,31c3,18 9,84 13,148l7,117l28,-27c18,-18 32,-46 40,-80zM3521,5397c39,-33 87,-100 95,-131c6,-26 6,-27 -15,-14c-11,7 -21,19 -21,28c0,8 -30,43 -66,77c-57,54 -63,63 -43,63c13,0 36,-10 50,-23zM3632,5365c34,-64 46,-125 25,-125c-8,0 -17,13 -21,32c-4,18 -27,59 -52,91l-45,58l33,-3c28,-3 37,-10 60,-53zM3705,5329c6,-72 2,-115 -8,-78c-15,52 -41,126 -48,134c-16,17 -9,25 20,25h29zM4000,5406c0,-2 -16,-33 -35,-70c-19,-37 -35,-74 -35,-82c0,-9 -11,-14 -30,-14c-35,0 -38,13 -15,67c25,60 63,103 91,103c13,0 24,-2 24,-4zM4080,5403c0,-3 -10,-20 -23,-37c-13,-17 -31,-52 -41,-78c-12,-34 -23,-48 -36,-48c-10,0 -21,3 -23,8c-14,21 81,162 109,162c8,0 14,-3 14,-7zM4152,5377c-39,-29 -64,-62 -81,-104c-9,-21 -20,-33 -32,-33c-24,0 -24,1 3,61c23,55 76,99 117,99c24,0 24,0 -7,-23zM12619,5314c36,-8 111,-75 135,-123c23,-44 23,-97 0,-128c-11,-15 -46,-41 -78,-59c-66,-36 -163,-50 -339,-46c-110,2 -135,11 -204,75c-55,51 -64,73 -56,134c5,39 15,56 58,100l51,53h201c110,0 215,-3 232,-6zM3560,5259c0,-11 -4,-19 -10,-19c-5,0 -10,6 -10,14c0,8 -3,23 -7,33c-6,16 -5,16 10,4c9,-7 17,-22 17,-32zM8210,5145c7,-8 10,-24 8,-37c-2,-18 -10,-24 -35,-26c-46,-5 -73,13 -73,47c0,15 2,30 4,32c10,10 86,-4 96,-16zM5775,5083c8,-72 59,-304 86,-396l20,-68l-52,-116c-62,-137 -129,-250 -195,-333c-46,-56 -49,-58 -57,-37c-9,22 -93,581 -104,688c-5,53 -4,58 19,73c30,19 48,56 48,95c0,21 6,30 23,35c12,3 33,22 47,42c19,28 40,42 85,59c33,12 63,20 66,18c4,-1 10,-29 14,-60zM5544,5091c17,-7 17,-8 2,-24c-14,-13 -36,-17 -97,-17c-78,0 -79,0 -79,25c0,25 1,25 78,24c42,0 85,-4 96,-8zM4062,5053c57,-39 108,-122 108,-178c0,-36 -41,-77 -112,-112c-59,-30 -72,-33 -212,-40c-97,-5 -151,-12 -153,-19c-3,-8 32,-13 116,-15c65,-2 123,-7 127,-12c4,-4 1,-14 -7,-21c-10,-10 -46,-15 -124,-16c-138,-3 -135,-4 -135,20c0,22 -28,40 -64,40c-54,0 -196,155 -196,214c1,49 27,109 56,131c52,38 79,41 323,37c232,-4 237,-4 273,-29zM10668,5048c7,-7 12,-19 12,-28c0,-15 -13,-16 -107,-12c-76,3 -116,9 -133,20l-25,16l25,7c44,12 215,10 228,-3zM12548,4916c3,-4 -1,-13 -9,-21c-9,-9 -50,-16 -117,-21c-110,-7 -121,-4 -122,40c0,18 7,19 121,13c66,-3 123,-8 127,-11zM12488,4834c28,-19 28,-44 1,-78c-23,-30 -45,-32 -94,-12c-24,10 -36,23 -41,43c-3,15 -8,36 -11,46c-4,15 4,17 59,17c41,0 71,-5 86,-16zM6407,4073c10,-16 23,-32 30,-38c8,-5 20,-55 29,-110c20,-135 74,-563 74,-592c0,-24 -40,-73 -60,-73c-28,0 -47,39 -54,113c-4,42 -13,111 -22,154c-37,195 -58,523 -34,538c5,3 7,12 3,20c-9,26 16,16 34,-12zM10467,4018c21,-19 23,-30 23,-115c0,-89 28,-298 50,-373c8,-28 6,-47 -9,-95c-11,-33 -23,-75 -26,-93c-9,-42 -43,-66 -76,-53c-38,16 -76,52 -61,58c36,14 43,61 53,331c5,147 7,288 3,315c-7,54 5,61 43,25z"></path><path d="M8040,10373c0,-13 5,-23 10,-23c13,0 13,11 0,30c-8,12 -10,11 -10,-7z"></path><path d="M8160,9383c-31,-48 -40,-98 -17,-91c15,5 53,72 62,111c11,43 -12,33 -45,-20z"></path><path d="M9621,6971c-28,-28 -27,-75 1,-101c43,-40 108,-14 108,44c0,59 -70,96 -109,57z"></path><path d="M9660,6710c-56,-56 -28,-150 44,-150c67,0 88,73 40,136c-30,39 -55,43 -84,14z"></path><path d="M9787,6342c-34,-38 -29,-124 8,-138c25,-10 62,4 68,26c8,31 -32,130 -53,130c-4,0 -14,-8 -23,-18z"></path><path d="M9898,6063c-53,-61 -12,-173 63,-173c65,0 105,89 58,128c-12,9 -31,27 -42,40c-25,26 -58,29 -79,5z"></path><path d="M10610,5517c-62,-32 -17,-136 53,-122c45,10 57,23 57,60c0,54 -60,88 -110,62z"></path><path d="M6267,4392c-22,-24 -21,-53 0,-91c15,-24 62,-60 67,-49c0,2 6,13 13,24c6,12 15,37 18,57c6,28 3,39 -14,56c-26,26 -62,27 -84,3z"></path><path d="M6507,6492c-26,-29 -23,-107 5,-126c31,-22 41,-20 77,10c35,29 41,75 15,112c-19,28 -74,30 -97,4z"></path><path d="M6390,6060c-29,-29 -28,-103 2,-124c32,-23 65,-20 93,9c50,49 21,135 -45,135c-17,0 -39,-9 -50,-20z"></path><path d="M8005,7901c-36,-15 -52,-45 -84,-157c-23,-83 -31,-131 -31,-192c0,-45 4,-82 9,-82c5,0 6,29 4,63c-5,53 0,82 26,164c34,110 55,144 101,163c18,8 30,20 30,31c0,20 -20,24 -55,10z"></path><path d="M8497,6563c-5,-48 -3,-62 9,-50c11,11 17,97 7,97c-6,0 -13,-21 -16,-47z"></path><path d="M8560,6548c0,-19 2,-20 10,-8c13,19 13,30 0,30c-5,0 -10,-10 -10,-22z"></path><path d="M5915,5298c-31,-17 -45,-39 -45,-74c0,-69 106,-103 149,-48c29,37 26,70 -8,105c-31,30 -62,36 -96,17z"></path><path d="M8256,5683c-4,-31 -13,-90 -22,-131c-16,-79 -15,-110 4,-76c19,35 47,264 33,264c-5,0 -11,-26 -15,-57z"></path><path d="M5405,5329c-17,-32 -13,-80 8,-97c7,-5 31,-13 53,-17c40,-6 41,-6 48,26c16,84 -1,119 -59,119c-28,0 -37,-6 -50,-31z"></path><path d="M5543,4939c-25,-25 -15,-73 23,-118c33,-38 40,-42 78,-39c36,3 44,8 60,39c19,35 19,38 3,63c-10,14 -28,33 -40,41c-33,21 -109,30 -124,14z"></path><path d="M7300,11543c-44,-16 -55,-101 -19,-147c23,-30 45,-33 76,-11c47,33 37,136 -14,156c-13,5 -25,9 -26,8c-1,0 -9,-3 -17,-6z"></path><path d="M9293,11530c-49,-20 -56,-76 -14,-122c27,-30 30,-31 60,-18c30,12 61,54 61,82c-1,41 -64,76 -107,58z"></path><path d="M8471,11454c-12,-15 -21,-38 -21,-51c0,-32 42,-73 75,-73c33,0 75,41 75,73c0,40 -36,77 -75,77c-24,0 -39,-7 -54,-26z"></path><path d="M8861,11387c-16,-20 -16,-47 -1,-99c11,-37 19,-48 35,-48c27,0 85,53 85,79c0,30 -11,51 -26,51c-8,0 -17,7 -20,15c-8,19 -58,20 -73,2z"></path><path d="M7275,11305c-48,-47 -22,-137 39,-137c31,0 41,11 55,60c12,40 0,76 -28,91c-29,16 -39,14 -66,-14z"></path><path d="M6730,11307c-13,-7 -31,-23 -38,-37c-12,-22 -12,-33 3,-83c27,-93 92,-115 135,-44c29,47 26,100 -7,136c-34,36 -61,44 -93,28z"></path><path d="M9317,11303c-12,-11 -8,-40 7,-52c28,-23 68,17 45,45c-12,15 -41,19 -52,7z"></path><path d="M8273,11199c-15,-15 1,-49 22,-49c18,0 19,20 2,43c-9,14 -15,15 -24,6z"></path><path d="M8565,11178c-32,-28 -36,-65 -11,-103c24,-36 79,-38 109,-3c36,42 11,110 -44,123c-19,5 -34,0 -54,-17z"></path><path d="M9345,11165c-14,-13 -25,-36 -25,-50c0,-31 41,-75 70,-75c29,0 80,53 80,82c0,66 -76,92 -125,43z"></path><path d="M7259,11039c-24,-24 -22,-73 6,-115c17,-27 65,-33 83,-11c19,23 25,67 12,98c-22,51 -66,63 -101,28z"></path><path d="M8954,11050c-55,-22 -73,-105 -29,-134c37,-25 80,-20 104,10c30,38 28,87 -5,113c-29,23 -38,24 -70,11z"></path><path d="M6758,10969c-33,-13 -42,-38 -33,-95c9,-65 65,-103 106,-71c56,43 47,137 -16,165c-14,7 -27,12 -28,11c-1,0 -14,-5 -29,-10z"></path><path d="M7404,10906c-11,-28 1,-51 27,-54c31,-4 44,19 29,49c-12,22 -48,25 -56,5z"></path><path d="M9450,10913c-43,-15 -54,-82 -18,-107c48,-34 98,-7 98,51c0,41 -41,70 -80,56z"></path><path d="M8643,10810c-48,-19 -40,-107 10,-124c77,-27 125,89 52,122c-30,14 -32,14 -62,2z"></path><path d="M8977,10792c-26,-29 -21,-78 15,-133c17,-27 36,-49 41,-49c5,0 27,14 48,31c31,25 39,37 39,64c0,41 -22,65 -60,65c-19,0 -29,6 -33,20c-6,25 -29,26 -50,2z"></path><path d="M7241,10779c-45,-42 -10,-159 48,-159c38,0 62,30 68,84c5,38 2,48 -20,70c-32,32 -66,33 -96,5z"></path><path d="M9500,10693c-42,-54 -6,-145 56,-145c35,0 74,42 74,80c0,27 -22,69 -44,84c-24,17 -65,8 -86,-19z"></path><path d="M7412,10638c-32,-32 8,-80 48,-58c25,14 26,46 1,60c-25,13 -34,13 -49,-2z"></path><path d="M6772,10567c-25,-27 -29,-69 -7,-91c8,-8 15,-26 15,-40c0,-33 25,-56 60,-56c42,0 65,39 65,108c0,46 -4,57 -28,78c-36,31 -77,31 -105,1z"></path><path d="M9093,10471c-24,-22 -30,-34 -26,-52c9,-39 23,-49 64,-49c47,0 79,28 79,68c0,63 -65,81 -117,33z"></path><path d="M7192,10478c-27,-13 -37,-45 -28,-93c13,-67 67,-86 111,-39c31,34 32,75 3,108c-28,30 -56,38 -86,24z"></path><path d="M9570,10462c-38,-19 -47,-43 -31,-85c13,-34 31,-41 77,-33c68,13 96,74 54,116c-25,25 -54,25 -100,2z"></path><path d="M8717,10452c-20,-22 -22,-52 -4,-74c31,-42 107,-16 107,36c0,49 -70,75 -103,38z"></path><path d="M8760,10285c-10,-12 -10,-21 -2,-40c20,-44 76,-27 70,21c-2,23 -9,30 -29,32c-14,2 -31,-4 -39,-13zM8800,10259c0,-11 -4,-17 -10,-14c-5,3 -10,13 -10,21c0,8 5,14 10,14c6,0 10,-9 10,-21z"></path><path d="M7410,10240c0,-26 45,-49 62,-32c9,9 7,17 -7,32c-24,26 -55,26 -55,0z"></path><path d="M9625,10225c-42,-41 -28,-123 25,-145c64,-27 139,44 119,113c-11,39 -36,56 -82,57c-27,0 -45,-7 -62,-25z"></path><path d="M6762,10214c-48,-33 -48,-105 0,-123c29,-11 89,4 105,25c18,24 16,65 -3,92c-18,27 -69,30 -102,6z"></path><path d="M9134,10186c-19,-19 -34,-44 -34,-55c0,-27 43,-71 69,-71c84,0 131,101 68,145c-34,24 -66,18 -103,-19z"></path><path d="M7182,10154c-17,-12 -22,-25 -22,-59c0,-78 56,-101 105,-43c30,36 28,71 -7,101c-25,21 -47,22 -76,1z"></path><path d="M8796,10137c-38,-27 2,-95 42,-71c24,16 28,55 6,71c-10,7 -21,13 -24,13c-3,0 -14,-6 -24,-13z"></path><path d="M9710,9950c-22,-22 -26,-60 -10,-91c14,-26 90,-27 113,-1c39,43 5,112 -53,112c-17,0 -39,-9 -50,-20z"></path><path d="M7385,9941c-11,-36 17,-67 50,-55c16,6 19,31 9,58c-9,22 -51,20 -59,-3z"></path><path d="M8838,9953c-43,-11 -28,-98 19,-109c51,-13 85,63 45,99c-18,17 -31,19 -64,10zM8885,9900c0,-30 -32,-35 -49,-7c-8,14 -8,20 4,27c24,16 45,7 45,-20z"></path><path d="M6770,9935c-7,-8 -18,-15 -24,-15c-37,0 -71,-83 -48,-115c18,-26 67,-55 93,-55c67,0 89,78 45,155c-25,44 -46,54 -66,30z"></path><path d="M9209,9883c-8,-10 -23,-34 -34,-55c-18,-34 -18,-37 -2,-62c25,-37 88,-37 122,0c31,33 34,93 7,117c-24,22 -75,22 -93,0z"></path><path d="M7115,9830c-29,-56 -10,-110 39,-110c36,0 66,33 66,73c0,67 -76,93 -105,37z"></path><path d="M9770,9740c-14,-11 -31,-25 -37,-30c-37,-31 10,-100 68,-100c65,0 108,90 63,134c-21,22 -64,20 -94,-4z"></path><path d="M8884,9740c-46,-18 -67,-77 -44,-121c15,-28 65,-51 95,-43c33,8 65,50 65,85c0,55 -66,100 -116,79z"></path><path d="M7376,9661c-33,-37 5,-88 52,-70c33,12 31,62 -3,77c-32,15 -29,15 -49,-7z"></path><path d="M6645,9585c-37,-36 -32,-68 16,-115c50,-49 87,-53 118,-14c25,32 27,64 6,104c-29,56 -98,68 -140,25z"></path><path d="M9280,9572c-47,-23 -52,-61 -14,-97c51,-48 134,-17 134,49c0,61 -51,82 -120,48z"></path><path d="M7062,9514c-46,-32 -18,-134 38,-134c54,0 80,88 37,128c-28,26 -45,27 -75,6z"></path><path d="M9827,9519c-21,-12 -47,-61 -47,-88c0,-24 36,-51 67,-51c29,0 71,38 79,72c4,21 0,33 -20,52c-27,28 -50,32 -79,15z"></path><path d="M9855,9361c-3,-7 2,-11 14,-11c22,0 25,-8 15,-34c-9,-23 -23,-20 -34,7l-9,22v-23c-1,-12 6,-25 15,-29c26,-10 49,11 49,43c0,22 -5,30 -22,32c-11,2 -24,-2 -28,-7z"></path><path d="M7040,9321c0,-40 35,-78 56,-60c17,14 18,53 2,67c-7,5 -23,13 -35,16c-20,7 -23,4 -23,-23z"></path><path d="M7340,9335c-7,-8 -10,-25 -6,-39c11,-45 71,-45 82,0c8,30 -11,54 -41,54c-12,0 -28,-7 -35,-15z"></path><path d="M8974,9336c-51,-23 -61,-90 -19,-131c43,-44 109,-27 134,34c11,24 10,34 -4,60c-9,18 -27,36 -41,41c-31,12 -32,12 -70,-4z"></path><path d="M9305,9300c-27,-29 -22,-80 10,-107c34,-30 60,-29 90,2c33,32 31,61 -6,96c-36,34 -69,37 -94,9z"></path><path d="M6652,9264c-35,-14 -56,-54 -46,-86c8,-26 47,-49 85,-50c62,-2 93,77 47,119c-33,29 -50,33 -86,17z"></path><path d="M9887,9235c-40,-40 -28,-114 22,-135c26,-11 35,-10 56,4c46,31 56,94 19,130c-20,20 -78,21 -97,1z"></path><path d="M6988,9163c-23,-26 -32,-104 -15,-127c20,-28 66,-24 94,8c31,37 32,99 1,120c-29,21 -61,20 -80,-1z"></path><path d="M9051,9064c-26,-34 -27,-64 -1,-97c27,-34 78,-44 118,-23c51,26 57,73 13,117c-40,40 -100,41 -130,3z"></path><path d="M7250,9032c-36,-12 -42,-75 -9,-92c27,-15 66,-5 74,19c13,43 -25,86 -65,73z"></path><path d="M5811,9007c-8,-10 -7,-18 4,-33c12,-16 14,-17 15,-2c0,9 5,18 11,20c7,2 6,8 -4,16c-11,10 -17,9 -26,-1z"></path><path d="M6595,8974c-14,-15 -28,-38 -31,-51c-9,-35 14,-80 48,-94c26,-10 35,-10 63,5c33,18 55,52 55,86c0,28 -41,68 -77,75c-27,5 -37,2 -58,-21z"></path><path d="M10734,8954c-4,-14 -1,-51 5,-81c19,-98 15,-144 -20,-196c-17,-25 -60,-69 -95,-97c-36,-28 -79,-72 -95,-98c-27,-42 -30,-54 -27,-107c2,-38 12,-78 27,-105c43,-84 196,-220 248,-220c11,0 26,7 33,15c16,19 27,19 47,-1c24,-24 82,-14 106,18c18,24 21,43 21,135c1,105 2,109 33,155c18,26 34,57 35,69c6,44 -18,27 -56,-42c-37,-68 -38,-75 -40,-172c-1,-60 -7,-111 -14,-124c-17,-30 -68,-32 -77,-3c-9,27 -41,25 -56,-2c-6,-13 -13,-25 -15,-26c-6,-8 -131,84 -174,128c-79,79 -108,174 -75,244c11,22 52,66 101,107c134,111 156,172 124,331c-7,37 -11,71 -7,74c3,4 20,1 37,-6c24,-10 33,-23 45,-63c8,-28 15,-64 15,-80c0,-51 29,-95 101,-148c66,-48 89,-84 89,-136c0,-7 5,-13 10,-13c17,0 11,83 -8,113c-10,15 -39,40 -63,55c-54,35 -99,86 -99,114c0,42 -32,144 -53,166c-14,15 -32,22 -59,22c-32,0 -39,-4 -44,-26z"></path><path d="M9965,8945c-18,-17 -25,-35 -25,-64c0,-63 7,-71 57,-71c57,0 93,33 93,84c0,67 -78,99 -125,51z"></path><path d="M7013,8952c-5,-4 -18,-22 -29,-40c-23,-40 -11,-67 32,-67c22,0 31,6 38,26c16,47 -11,100 -41,81zM7030,8880c-6,-11 -15,-20 -20,-20c-13,0 -13,27 1,52c10,19 12,19 21,5c5,-11 5,-24 -2,-37z"></path><path d="M9400,8933c-14,-3 -31,-10 -37,-15c-15,-12 -17,-64 -3,-73c6,-4 17,-22 25,-41c10,-24 20,-34 31,-32c26,5 55,50 61,95c4,34 2,43 -18,57c-13,9 -26,15 -29,15c-3,-1 -16,-4 -30,-6z"></path><path d="M5665,8856c-9,-21 -12,-48 -8,-68c12,-64 43,-77 63,-28c11,26 10,38 -4,75c-23,59 -33,64 -51,21zM5700,8792c0,-26 -4,-41 -10,-37c-5,3 -10,30 -10,58c0,37 3,48 10,37c5,-8 10,-34 10,-58z"></path><path d="M5812,8840c-27,-11 -49,-59 -67,-148c-16,-75 -28,-90 -117,-149c-57,-38 -69,-51 -78,-84c-11,-40 -5,-89 9,-73c4,5 13,27 19,49c10,34 23,49 86,93c82,57 100,82 110,157c12,83 25,114 58,131c47,25 55,8 35,-78c-22,-95 -22,-129 4,-183c20,-42 65,-89 162,-168c59,-48 79,-86 79,-149c-1,-85 -67,-172 -196,-256l-69,-45l-22,26c-25,32 -41,34 -55,7c-7,-14 -21,-20 -45,-20c-31,0 -35,4 -44,38c-6,20 -11,75 -11,122c0,82 -2,88 -42,158c-42,69 -68,91 -68,54c0,-9 17,-42 38,-72c37,-54 37,-56 42,-173c5,-110 7,-120 29,-138c29,-23 88,-25 113,-2c16,14 20,14 36,1c31,-27 49,-27 99,2c72,41 158,123 193,185c64,111 46,205 -53,288c-111,93 -136,119 -156,168c-22,49 -22,51 -5,135c20,101 12,134 -33,133c-16,0 -38,-4 -51,-9z"></path><path d="M7210,8821c0,-6 5,-13 11,-17c8,-4 7,-9 -2,-15c-19,-11 4,-34 25,-26c22,9 20,44 -3,57c-24,12 -31,13 -31,1z"></path><path d="M9230,8790c-47,-47 -1,-129 65,-116c36,7 55,30 55,66c0,60 -78,92 -120,50z"></path><path d="M6932,8730c-45,-42 -19,-150 36,-150c49,0 92,73 73,123c-18,48 -72,61 -109,27z"></path><path d="M6547,8683c-52,-40 -60,-64 -40,-116c22,-57 31,-67 62,-67c42,0 71,38 78,103c5,50 3,58 -20,81c-32,32 -36,32 -80,-1z"></path><path d="M7161,8644c-14,-49 -5,-56 25,-20c27,30 27,49 1,54c-11,2 -19,-8 -26,-34z"></path><path d="M10012,8668c-7,-7 -12,-27 -12,-45c0,-61 67,-93 118,-57c26,18 30,74 6,98c-18,19 -94,22 -112,4z"></path><path d="M9391,8614c-12,-15 -21,-36 -21,-48c0,-35 18,-88 38,-110c11,-12 19,-35 19,-54c0,-46 40,-86 87,-86c77,0 104,83 46,139c-25,24 -29,35 -25,57c8,37 -11,94 -38,113c-35,24 -82,19 -106,-11z"></path><path d="M7170,8471c0,-6 5,-13 10,-16c6,-3 10,1 10,9c0,9 -4,16 -10,16c-5,0 -10,-4 -10,-9z"></path><path d="M10760,8413c-1,-40 -7,-78 -15,-93c-8,-14 -14,-36 -15,-49c0,-27 64,-111 85,-111c24,0 61,154 47,201c-7,27 -81,119 -94,119c-5,0 -8,-30 -8,-67zM10841,8361c7,-17 4,-44 -12,-94l-22,-71l-23,28c-26,30 -29,45 -14,90c5,17 12,48 15,69c6,39 7,39 27,20c11,-10 24,-29 29,-42z"></path><path d="M6887,8402c-23,-26 -32,-78 -17,-97c20,-24 66,-18 89,11c26,33 27,66 3,87c-24,22 -55,21 -75,-1z"></path><path d="M10119,8392c-9,-4 -29,-22 -44,-39c-24,-30 -26,-36 -15,-69c7,-19 19,-38 27,-41c19,-7 92,26 104,48c30,56 -18,123 -72,101z"></path><path d="M6467,8372c-26,-29 -23,-141 4,-176c28,-36 80,-36 116,0c23,23 25,31 21,85c-5,74 -33,109 -88,109c-23,0 -43,-7 -53,-18z"></path><path d="M5813,8295c-53,-53 -57,-84 -26,-202c20,-77 37,-81 87,-19c38,46 44,79 21,110c-10,13 -15,44 -15,88c0,81 -8,84 -67,23zM5850,8256c0,-13 7,-46 16,-74c16,-49 16,-51 -5,-81c-12,-17 -25,-31 -29,-31c-10,0 -42,102 -42,132c0,26 34,78 51,78c5,0 9,-11 9,-24z"></path><path d="M9437,8262c-21,-23 -22,-81 -2,-109c29,-42 112,-34 134,13c17,38 13,63 -14,89c-30,31 -93,34 -118,7z"></path><path d="M10167,8145c-32,-31 -34,-48 -7,-75c27,-27 62,-25 88,3c27,28 28,58 4,80c-26,24 -53,21 -85,-8z"></path><path d="M9656,8044c-24,-23 -20,-61 8,-79c54,-35 106,35 58,78c-23,21 -46,22 -66,1z"></path><path d="M6397,8030c-46,-36 -34,-106 23,-135c81,-42 154,73 80,126c-41,30 -73,33 -103,9z"></path><path d="M12408,8020c-26,-20 -58,-111 -58,-162c0,-36 -30,-70 -103,-116c-78,-49 -88,-62 -94,-116c-6,-47 11,-72 22,-34c18,64 31,81 100,129c82,56 98,83 113,182c11,70 29,101 65,113c31,10 35,-10 19,-104c-9,-50 -12,-103 -8,-124c9,-51 57,-111 145,-182c40,-33 82,-73 92,-90c22,-37 25,-112 5,-159c-21,-51 -104,-136 -180,-185l-70,-44l-21,26c-25,31 -51,34 -60,5c-5,-16 -14,-19 -38,-17c-45,4 -57,35 -57,143c0,95 3,86 -66,213c-19,35 -44,43 -44,14c0,-9 17,-42 38,-72c37,-54 37,-56 42,-173c5,-110 7,-120 29,-138c28,-23 79,-25 109,-3c21,15 25,15 41,0c24,-22 57,-20 100,6c111,66 202,173 221,261c23,99 -11,156 -163,280c-27,22 -59,61 -74,90l-26,52l17,91c21,110 14,134 -38,134c-18,0 -45,-9 -58,-20z"></path><path d="M10240,7993c-54,-20 -66,-78 -25,-118c29,-30 68,-32 95,-5c30,30 25,63 -15,99c-20,17 -37,31 -38,30c-1,0 -9,-3 -17,-6z"></path><path d="M9756,7835c-20,-31 -20,-42 2,-53c38,-21 82,21 62,59c-15,26 -45,24 -64,-6zM9805,7814c0,-12 -8,-20 -22,-22c-26,-4 -28,1 -12,29c13,24 34,20 34,-7z"></path><path d="M3978,7793c-32,-37 -53,-108 -39,-131c5,-8 14,11 24,48c10,33 22,60 27,60c13,0 13,0 -5,-49c-18,-52 -4,-54 19,-2c28,62 10,115 -26,74z"></path><path d="M3804,7782c-31,-25 -43,-52 -53,-127c-11,-78 -20,-90 -117,-156c-78,-52 -84,-61 -84,-120c0,-52 15,-49 29,6c10,40 19,50 87,95c84,57 94,74 119,192c17,80 37,108 79,108c16,0 18,-5 13,-42c-3,-24 -11,-68 -18,-99c-11,-50 -10,-62 5,-102c23,-61 61,-107 142,-172c77,-61 114,-115 114,-165c0,-83 -88,-195 -213,-274l-59,-37l-19,26c-25,30 -44,32 -61,5c-13,-21 -43,-26 -66,-12c-20,13 -32,71 -32,162c0,80 -3,89 -38,150c-21,36 -46,66 -55,68c-27,5 -20,-21 23,-84c40,-59 40,-59 40,-157c0,-104 13,-147 50,-167c24,-13 85,-3 100,15c9,11 15,10 31,-6c27,-27 53,-24 119,16c72,44 155,133 186,200c51,108 24,194 -91,285c-85,67 -133,125 -141,168c-4,19 -1,72 6,118c15,106 10,124 -38,124c-20,0 -47,-8 -58,-18z"></path><path d="M6344,7719c-16,-17 -18,-34 -16,-93c2,-62 6,-74 28,-93c14,-13 34,-23 44,-23c31,0 79,48 86,87c8,45 -10,108 -39,128c-31,22 -80,19 -103,-6z"></path><path d="M5443,7668c-63,-65 -67,-84 -41,-189c12,-49 27,-89 34,-89c20,0 94,88 94,112c-1,13 -7,34 -15,48c-8,15 -14,53 -15,93c0,37 -4,67 -8,67c-4,0 -27,-19 -49,-42zM5470,7615c0,-20 9,-53 20,-75l20,-39l-26,-30c-14,-17 -29,-31 -33,-31c-10,0 -41,100 -41,132c0,26 34,78 51,78c5,0 9,-16 9,-35z"></path><path d="M9807,7662c-38,-42 -5,-112 52,-112c56,0 80,58 45,108c-19,28 -74,30 -97,4z"></path><path d="M12422,7486c-52,-56 -57,-84 -32,-176c11,-41 20,-78 20,-82c0,-23 42,-2 74,36c38,47 44,79 21,110c-10,13 -15,44 -15,88c0,83 -11,86 -68,24zM12460,7443c0,-16 8,-49 17,-75l17,-48l-29,-30l-28,-30l-19,52c-22,64 -23,106 -2,136c21,31 44,28 44,-5z"></path><path d="M6263,7465c-24,-17 -46,-97 -36,-136c16,-67 85,-81 134,-28c42,46 41,99 -5,145c-37,37 -60,42 -93,19z"></path><path d="M9895,7428l-27,-21l35,-19c20,-10 43,-15 51,-12c21,8 30,42 16,59c-17,21 -43,19 -75,-7z"></path><path d="M9955,7280c-24,-27 -21,-77 6,-106c46,-49 107,-15 96,53c-11,64 -66,93 -102,53z"></path><path d="M3822,7258c-52,-54 -62,-91 -45,-157c8,-31 17,-69 20,-84c9,-46 32,-45 75,3c42,47 46,69 23,123c-8,20 -15,61 -15,92c0,65 -12,70 -58,23zM3876,7122c14,-32 13,-35 -12,-65c-15,-18 -29,-32 -32,-32c-7,0 -41,106 -41,132c-1,12 11,36 27,54l27,33l8,-45c5,-24 15,-59 23,-77z"></path><path d="M6209,7169c-22,-22 -21,-67 2,-96c14,-16 65,-17 75,-1c13,20 14,60 2,82c-22,41 -48,46 -79,15z"></path><path d="M10013,7123c-16,-6 -17,-55 -1,-71c18,-18 36,-14 53,12c28,42 -5,78 -52,59zM10048,7087c2,-10 -3,-17 -12,-17c-10,0 -16,9 -16,21c0,24 23,21 28,-4z"></path><path d="M9936,6883c26,-71 57,-157 71,-193c13,-36 33,-90 44,-120c20,-55 39,-85 39,-61c0,7 -18,56 -40,109c-47,116 -124,326 -134,365c-3,15 -11,27 -16,27c-5,0 11,-57 36,-127z"></path><path d="M10062,6968c-25,-25 0,-64 32,-52c21,8 21,50 0,58c-20,8 -18,8 -32,-6z"></path><path d="M10084,6815c-8,-46 10,-77 44,-73c19,2 28,10 30,26c4,29 -20,68 -47,75c-17,4 -22,-1 -27,-28zM10131,6767c-15,-15 -31,2 -31,31l1,27l20,-24c12,-15 16,-28 10,-34z"></path><path d="M6140,6801c-12,-24 -13,-111 -1,-130c8,-12 15,-12 45,3c20,9 40,25 46,36c14,26 13,83 -2,98c-20,20 -76,15 -88,-7z"></path><path d="M10160,6630c-22,-22 -25,-42 -10,-71c22,-40 80,-11 80,40c0,50 -35,66 -70,31z"></path><path d="M10250,6350c-29,-29 -27,-90 3,-119c26,-24 51,-20 67,10c20,36 7,101 -24,121c-17,12 -24,10 -46,-12z"></path><path d="M11277,5732c-22,-25 -21,-75 1,-95c29,-27 88,-22 108,8c23,35 11,69 -30,89c-44,21 -59,20 -79,-2z"></path><path d="M11395,5466c-14,-14 -25,-37 -25,-51c0,-33 24,-81 45,-89c79,-30 129,61 68,119c-49,46 -60,49 -88,21z"></path><path d="M11485,5189c-29,-55 0,-119 54,-119c63,0 84,71 36,123c-35,37 -70,36 -90,-4z"></path><path d="M5070,4933c-23,-9 -90,-80 -90,-97c0,-8 14,-26 31,-40c56,-48 129,-28 148,40c12,43 -1,77 -36,93c-26,12 -30,12 -53,4z"></path><path d="M11670,4910c-11,-11 -20,-28 -20,-38c0,-29 29,-62 55,-62c24,0 55,33 55,58c0,15 -45,62 -60,62c-5,0 -19,-9 -30,-20z"></path><path d="M4733,4781c-17,-11 -34,-28 -37,-39c-4,-11 -16,-22 -27,-25c-16,-4 -20,-12 -17,-33c4,-37 86,-87 142,-88c54,-1 96,46 96,108c0,37 -5,48 -31,70c-37,31 -81,34 -126,7z"></path><path d="M11913,4770c-43,-18 -57,-85 -26,-130c23,-34 33,-40 68,-40c40,0 75,25 75,54c0,36 -27,93 -52,110c-25,18 -33,19 -65,6z"></path><path d="M4397,4653c-43,-33 -46,-58 -12,-95c34,-37 68,-45 101,-24c31,21 45,57 37,96c-11,56 -68,66 -126,23z"></path><path d="M4590,4660c0,-5 5,-10 10,-10c6,0 10,5 10,10c0,6 -4,10 -10,10c-5,0 -10,-4 -10,-10z"></path><path d="M4116,4615c-45,-40 -48,-46 -42,-79c5,-25 16,-41 40,-55c40,-25 48,-26 92,-5c64,31 85,114 39,159c-36,37 -71,32 -129,-20z"></path><path d="M12090,4593c-36,-46 -8,-103 51,-103c32,0 69,40 69,75c0,56 -83,75 -120,28z"></path><path d="M8201,4236c-6,-8 -20,-63 -31,-122c-10,-60 -25,-138 -34,-174c-17,-75 -39,-227 -56,-386c-12,-121 -5,-178 27,-206c37,-33 83,-48 142,-48c53,0 65,4 95,30c58,52 69,94 56,229c-13,147 -25,244 -51,401c-18,113 -52,267 -61,275c-2,1 -19,5 -39,9c-26,4 -40,2 -48,-8zM8285,4008c13,-145 36,-301 54,-380c25,-106 13,-186 -32,-224c-45,-38 -100,-20 -112,36c-8,37 20,328 46,479c10,62 19,124 19,137c0,13 4,24 9,24c5,0 12,-33 16,-72z"></path><path d="M11721,3826c-22,-26 -9,-69 22,-80c35,-13 61,2 65,37c5,43 -60,75 -87,43z"></path><path d="M11740,3677c-42,-20 -67,-92 -117,-327c-38,-183 -47,-244 -48,-330c0,-92 3,-109 23,-141c12,-20 35,-41 50,-46c157,-56 181,-56 232,-5c64,64 74,118 67,367c-5,177 -10,226 -32,313c-27,113 -44,146 -86,168c-34,17 -56,18 -89,1zM11816,3592c16,-13 23,-32 27,-77c3,-33 13,-82 22,-109c14,-41 16,-79 13,-235c-5,-204 -15,-250 -61,-285c-32,-23 -42,-18 -27,15c7,17 8,131 3,367c-5,188 -6,342 -3,342c3,0 15,-8 26,-18z"></path><path d="M6073,3518c-61,-30 -14,-103 51,-79c31,13 40,39 21,67c-17,26 -37,29 -72,12z"></path><path d="M4735,3366c-15,-15 -26,-41 -30,-72c-4,-27 -18,-89 -30,-139c-58,-228 -88,-510 -66,-617c23,-110 96,-173 201,-173c69,1 133,40 164,100c23,44 26,101 14,345c-10,201 -70,501 -111,552c-7,9 -36,18 -65,21c-47,6 -56,3 -77,-17zM4868,3315c40,-87 66,-309 57,-481c-6,-110 -5,-132 9,-143c10,-9 12,-19 7,-34c-5,-12 -16,-49 -26,-81c-22,-76 -55,-111 -98,-102c-44,9 -51,20 -34,47c9,13 18,40 21,59c8,48 36,574 36,677c0,85 8,102 28,58z"></path><path d="M6092,3360c-9,-17 -27,-33 -40,-36c-35,-10 -43,-36 -53,-182c-5,-76 -19,-220 -30,-322c-24,-214 -26,-297 -9,-360c24,-92 85,-150 159,-150c45,0 134,36 164,68c43,45 48,73 47,261c-2,226 -23,470 -51,591c-18,78 -28,101 -54,127c-27,27 -41,33 -74,33c-36,0 -44,-4 -59,-30zM6185,3297c20,-48 43,-184 55,-322c5,-66 14,-136 20,-156c13,-45 -3,-323 -20,-361c-24,-51 -123,-76 -162,-41c-24,22 -23,30 7,37c51,13 56,43 67,375c5,168 8,350 5,404c-5,102 3,122 28,64z"></path><path d="M9863,3375c-28,-19 -61,-108 -79,-208c-7,-43 -20,-101 -29,-130c-27,-96 -57,-337 -52,-419c7,-103 40,-177 96,-212c22,-14 45,-26 51,-26c5,0 15,-9 22,-20c7,-11 17,-20 22,-20c4,0 3,6 -3,14c-10,12 -3,15 39,21c36,5 62,16 85,36c18,16 37,29 41,29c13,0 14,25 18,345c4,324 -3,395 -53,501c-42,90 -106,126 -158,89zM9950,3217c6,-28 15,-120 20,-203c6,-112 12,-158 24,-177c13,-19 17,-53 17,-166c0,-79 -5,-157 -11,-176c-10,-29 -17,-35 -58,-44c-26,-5 -49,-8 -51,-6c-2,3 1,17 7,32c7,17 14,179 18,415c4,213 10,385 14,383c5,-3 14,-29 20,-58z"></path><path d="M2302,2428c6,-18 28,-21 28,-4c0,9 -7,16 -16,16c-9,0 -14,-5 -12,-12z"></path></g></g></g></svg> 