<?xml version="1.0" encoding="UTF-8"?> <svg xmlns="http://www.w3.org/2000/svg" xmlns:xlink="http://www.w3.org/1999/xlink" version="1.1" width="867.000000pt" height="925.000000pt" viewBox="0,0,239.94319,256"><g fill="#262262" fill-rule="nonzero" stroke="none" stroke-width="1" stroke-linecap="butt" stroke-linejoin="miter" stroke-miterlimit="10" stroke-dasharray="" stroke-dashoffset="0" font-family="none" font-weight="none" font-size="none" text-anchor="none" style="mix-blend-mode: normal"><g transform="translate(6.72299,4.96881) scale(0.27676,0.27676)"><g transform="translate(0,925) scale(0.1,-0.1)"><path d="M3251,8178c-29,-14 -53,-36 -70,-64c-18,-31 -33,-43 -49,-44c-28,0 -64,-18 -75,-36c-4,-8 -17,-14 -28,-14c-11,0 -29,-5 -39,-10c-13,-7 -21,-7 -25,0c-9,15 -108,12 -131,-4c-18,-13 -51,-20 -81,-17c-7,1 -41,26 -75,57c-72,65 -81,69 -164,79c-98,11 -146,-24 -180,-131c-15,-47 -15,-62 -5,-110c17,-75 63,-160 118,-215l45,-47l-27,-42c-34,-54 -64,-144 -65,-193c0,-44 34,-117 58,-124c9,-3 27,-26 39,-51c12,-26 43,-67 69,-92c121,-117 186,-188 204,-225c10,-22 31,-87 45,-145c14,-58 31,-116 37,-130c6,-14 13,-65 14,-115c3,-90 18,-193 35,-251c9,-29 31,-276 30,-339c-1,-28 18,-110 35,-149c7,-18 4,-19 -56,-13c-35,4 -80,16 -100,26c-20,10 -51,22 -70,26c-63,12 -252,66 -430,122c-96,30 -195,60 -220,68c-129,39 -383,70 -509,61c-145,-9 -363,-43 -428,-65c-167,-57 -235,-96 -299,-171c-89,-106 -110,-193 -69,-284c7,-17 16,-42 18,-56c3,-14 26,-83 51,-153c38,-106 43,-132 34,-152c-14,-31 -3,-88 22,-110c18,-16 18,-19 2,-53c-9,-21 -28,-55 -41,-77c-14,-22 -36,-62 -49,-90c-104,-219 -110,-280 -40,-425c58,-121 117,-193 209,-256c125,-85 253,-131 414,-149c81,-9 224,-41 317,-70c42,-13 114,-30 161,-36c75,-11 94,-10 193,9c60,12 171,25 247,28c117,6 140,5 155,-9c9,-8 29,-19 45,-22c15,-4 27,-12 27,-17c0,-5 -14,-40 -31,-76c-17,-37 -42,-116 -57,-176c-14,-62 -35,-122 -48,-140c-13,-17 -35,-50 -51,-74c-15,-24 -44,-61 -64,-82c-21,-22 -63,-90 -94,-152c-37,-74 -72,-128 -101,-157c-25,-24 -54,-60 -64,-80c-27,-53 -49,-63 -109,-49c-39,9 -56,8 -81,-2c-56,-23 -160,-162 -160,-214c0,-23 37,-99 89,-182l32,-51l-22,-54c-28,-69 -32,-203 -8,-269c23,-63 42,-215 30,-239c-11,-20 3,-41 28,-41c9,0 57,21 106,47l90,47h140c85,1 148,5 159,12c16,10 28,6 70,-22c28,-19 69,-48 90,-66c62,-53 99,-75 133,-82c18,-4 41,-17 50,-29c58,-72 120,-85 185,-40c35,24 39,30 37,67c-2,26 4,52 16,69c22,35 16,106 -16,168l-21,43l28,24c16,13 75,47 132,75c120,59 174,102 195,154c8,21 36,74 61,118c56,97 61,155 21,220c-13,22 -25,43 -25,47c0,3 14,9 31,13c17,4 57,20 88,35c31,15 76,33 101,40c137,37 326,176 401,295c31,49 39,56 44,40c20,-64 50,-133 66,-151c17,-18 19,-38 19,-157c0,-180 30,-387 68,-462c8,-16 29,-46 46,-67c31,-36 59,-76 93,-132c169,-274 477,-509 899,-684c145,-60 192,-72 282,-72c59,0 79,5 134,34c67,35 103,43 328,71c161,20 247,53 314,121c15,14 16,14 16,-5c0,-29 31,-27 59,3c13,13 27,43 32,66c16,72 55,117 139,159c109,56 163,108 206,198c56,116 83,228 90,373c8,145 -4,207 -60,318c-47,93 -67,115 -216,237c-71,57 -159,139 -197,182c-148,170 -143,164 -133,183c23,43 11,85 -55,191c-36,57 -65,107 -65,111c0,4 33,7 73,7c39,0 92,7 116,15c82,30 113,23 197,-44c145,-115 205,-136 376,-128c83,4 115,10 158,30c30,13 60,23 67,21c26,-9 53,20 74,77c23,63 80,125 198,215c96,73 138,114 156,155c18,40 18,42 -1,80c-19,40 -79,108 -230,263c-88,90 -140,179 -150,257c-5,40 -2,51 29,97c76,113 93,251 44,354c-29,61 -46,82 -100,122c-28,21 -37,35 -37,57c0,109 -104,188 -310,233c-151,33 -165,35 -375,47c-341,20 -367,25 -471,82c-120,66 -141,86 -161,158c-9,33 -24,68 -33,77c-19,20 -11,62 20,98c20,23 74,159 118,295c17,52 49,151 72,220c55,166 55,166 34,174c-42,16 -82,-42 -135,-199c-13,-38 -30,-74 -37,-79c-21,-13 -95,-175 -148,-322c-64,-180 -75,-219 -72,-258c1,-19 -3,-40 -9,-48c-6,-7 -36,-89 -68,-183c-117,-348 -180,-436 -416,-583c-114,-71 -211,-110 -319,-126c-25,-4 -60,-12 -78,-18c-28,-8 -35,-7 -46,8c-10,14 -32,18 -99,22c-47,2 -99,0 -116,-6l-30,-11l20,52c12,29 24,59 27,67c27,70 118,198 239,335c113,129 123,144 123,181c0,35 14,50 43,46c13,-3 17,4 17,23c0,15 9,40 20,55c20,28 13,49 -11,34c-16,-10 -7,160 10,179c6,8 25,41 41,73c30,58 30,59 24,19c-4,-22 -20,-66 -35,-97c-34,-68 -37,-104 -9,-113c35,-11 57,13 115,127c32,61 71,135 88,162c16,28 52,107 79,176c27,69 55,136 62,150c7,14 34,64 60,111c25,47 46,96 46,108c0,13 9,26 24,32c13,6 27,20 29,30c3,12 11,17 21,13c10,-4 19,4 29,28c18,42 109,128 136,128c14,0 23,9 27,28c13,57 16,63 45,69c31,6 40,32 12,34c-125,7 -205,-47 -384,-260c-33,-39 -46,-74 -31,-79c6,-2 8,-17 5,-36c-3,-20 -1,-36 7,-41c16,-10 17,-7 36,66c20,79 33,96 24,31c-7,-58 -87,-202 -112,-202c-11,0 -44,-54 -105,-175l-88,-175l-7,47c-5,32 -2,57 8,82c9,20 24,70 34,111c81,327 119,463 136,483c21,25 53,71 70,103c82,152 372,355 626,438c154,50 440,102 471,85c7,-4 44,-9 82,-11c68,-3 71,-4 97,-40c15,-21 40,-45 55,-55c16,-10 39,-31 52,-46c32,-38 77,-65 232,-144c148,-74 153,-82 97,-159c-31,-44 -32,-44 -52,-25c-39,35 -85,51 -208,71c-202,33 -401,21 -483,-29c-16,-11 -58,-33 -91,-50c-101,-51 -174,-138 -174,-207c0,-18 5,-24 23,-24c16,0 39,20 79,69c67,82 187,171 230,171c35,0 86,-25 171,-85c105,-73 149,-89 247,-90c76,0 91,3 145,31c33,18 68,34 78,38c9,3 17,15 17,26c0,12 9,24 23,29c34,13 104,94 112,129c9,43 -17,94 -64,125c-21,14 -94,52 -164,86c-125,59 -126,61 -125,93c0,24 -13,52 -45,101c-43,63 -46,70 -40,117c8,67 -11,134 -58,202c-21,32 -39,66 -39,76c0,47 -158,195 -262,245c-96,47 -246,92 -423,129c-61,12 -220,5 -257,-12c-20,-10 -41,-10 -90,-1c-93,16 -169,14 -299,-9c-185,-33 -299,-77 -425,-165c-59,-41 -76,-55 -168,-135c-60,-53 -126,-147 -126,-181c0,-20 -13,-40 -47,-73l-48,-45l-10,47c-6,26 -7,49 -3,50c21,9 1,37 -69,97c-42,36 -86,67 -97,69c-12,3 -84,9 -161,16c-77,6 -191,21 -254,34c-97,19 -117,26 -137,50c-13,15 -24,35 -24,46c0,17 -57,143 -101,223c-41,73 -142,98 -228,55zM3387,8114c14,-4 33,-28 54,-68c17,-33 40,-73 50,-88c20,-28 25,-43 10,-33c-5,3 -17,-2 -26,-11c-21,-22 -6,-45 67,-102c47,-36 72,-47 173,-72c64,-17 148,-33 185,-36c60,-6 69,-10 84,-35c9,-15 26,-29 38,-31c31,-4 44,-56 57,-238c6,-87 16,-157 22,-161c6,-3 10,-19 9,-35c-5,-68 8,-72 37,-11c26,51 43,112 43,150c0,25 -3,28 -25,25l-25,-3l-6,111c-2,61 -8,134 -13,162c-10,65 0,67 75,15c50,-35 54,-41 54,-79c0,-22 5,-66 11,-98c10,-54 9,-60 -19,-109c-30,-53 -63,-140 -82,-213c-6,-26 -17,-44 -28,-46c-25,-7 -90,-144 -108,-226c-8,-37 -23,-184 -34,-327c-28,-349 -34,-384 -43,-235c-8,145 -56,356 -132,584c-19,57 -35,111 -35,120c0,9 -8,16 -17,16c-14,0 -29,31 -64,124c-42,114 -45,126 -32,150c19,37 29,126 14,126c-6,0 -11,11 -11,25c0,14 -4,25 -10,25c-5,0 -3,18 5,40c12,35 12,41 -2,49c-15,8 -15,15 -3,65c15,65 7,82 -34,72c-30,-7 -46,-53 -46,-136c0,-30 -7,-82 -14,-115c-8,-33 -12,-63 -10,-67c11,-17 24,-7 34,25c10,31 10,31 4,-8c-10,-67 -6,-89 48,-252c66,-206 84,-242 115,-230c4,1 12,-18 19,-43c7,-25 27,-97 44,-160c18,-63 41,-145 51,-181c30,-101 51,-268 56,-447c6,-185 -2,-222 -43,-214c-20,4 -24,0 -25,-19c-2,-44 3,-84 12,-101c7,-13 6,-18 -5,-18c-8,0 -17,-8 -19,-17c-3,-12 -5,-10 -6,7c-2,39 -17,57 -38,44c-40,-25 -38,-94 4,-177l24,-47l54,5l55,5v-40c0,-22 6,-56 14,-75c14,-32 13,-35 -5,-40c-33,-11 -88,-65 -130,-128c-21,-32 -39,-63 -39,-68c0,-20 -17,-7 -37,29c-12,20 -37,51 -55,69c-40,39 -189,129 -226,138c-23,5 -31,16 -50,68c-12,35 -35,113 -50,173l-28,110l76,18c41,10 88,26 103,35c53,30 49,92 -10,131c-31,21 -48,25 -107,24c-59,0 -83,-6 -140,-34c-39,-19 -87,-52 -111,-77l-43,-44l-21,70c-14,46 -23,107 -25,174c-6,145 -39,287 -66,287c-6,0 -8,21 -4,53c4,31 1,70 -7,97c-7,25 -14,97 -15,160c-3,195 -35,271 -195,454c-19,23 -46,70 -58,106c-13,36 -28,79 -34,95c-12,34 -52,69 -67,60c-6,-3 -10,-15 -10,-26c0,-21 40,-105 73,-154c20,-30 20,-30 -16,4c-26,25 -41,52 -57,103c-16,54 -26,71 -45,78c-32,12 -31,18 5,96c19,41 35,64 46,64c12,0 15,6 10,26c-4,16 0,38 14,62c34,62 60,152 60,209c0,58 4,62 33,36c18,-17 19,-17 33,2c12,15 30,20 104,23c67,3 90,1 90,-8c0,-7 14,-28 30,-47c17,-18 30,-40 30,-48c0,-24 59,-83 90,-90c17,-4 30,-10 30,-13c0,-4 18,-18 40,-32c27,-17 40,-32 40,-47c0,-12 6,-26 14,-30c8,-4 15,-17 18,-28c7,-39 33,-22 36,24c3,36 1,43 -12,38c-12,-5 -16,1 -16,24c0,26 -3,30 -19,26c-13,-3 -22,3 -30,19c-6,13 -15,24 -21,24c-7,0 -5,9 4,21c12,17 12,26 3,43c-7,11 -16,24 -20,27c-5,3 -7,12 -6,20c1,8 -3,27 -9,42c-7,16 -12,35 -12,43c0,8 -7,14 -15,14c-12,0 -13,5 -7,18c5,9 8,22 6,27c-2,6 4,15 14,22c16,10 18,8 15,-10c-4,-19 6,-27 58,-50c60,-27 89,-29 89,-7c0,18 -20,53 -48,82c-21,23 -23,29 -11,41c35,34 89,46 146,31zM5930,7973c85,-24 156,-45 158,-47c1,-2 -11,-6 -28,-9c-33,-7 -41,-34 -12,-44c9,-4 19,-9 22,-13c12,-15 101,-70 168,-104c88,-44 144,-93 171,-150c25,-51 27,-93 5,-124c-9,-13 -14,-34 -11,-49c4,-21 2,-24 -17,-19c-11,4 -34,9 -51,13c-16,3 -33,10 -36,15c-5,8 -110,27 -151,28c-10,0 -18,-7 -18,-15c0,-15 13,-19 84,-29c38,-5 54,-12 45,-20c-2,-2 -33,1 -69,6c-168,26 -469,-53 -690,-182c-167,-97 -334,-240 -407,-348c-47,-70 -126,-248 -151,-342c-67,-249 -81,-377 -43,-387c19,-5 19,-7 -6,-77c-14,-39 -41,-108 -60,-152c-28,-67 -38,-81 -53,-77c-19,5 -24,-27 -34,-219c-4,-89 -20,-115 -91,-147c-128,-58 -359,-311 -426,-466c-13,-30 -26,-55 -29,-55c-3,0 -15,22 -27,48c-12,26 -28,58 -36,72c-22,37 -50,166 -43,194c5,19 11,23 27,19c12,-4 25,0 30,8c15,24 10,46 -11,52c-14,4 -20,14 -20,35c0,22 -9,37 -31,55c-30,23 -31,27 -41,143c-11,129 -4,204 46,524c14,85 32,243 41,350c37,446 38,459 76,535c19,39 50,113 68,165c40,113 75,184 131,265c23,33 48,71 57,85c9,14 32,36 52,48c21,13 53,38 72,57c66,61 254,197 320,230c134,68 352,107 505,90l69,-7l-45,-17c-47,-18 -108,-51 -182,-97c-57,-36 -158,-141 -158,-165c0,-11 3,-19 6,-19c3,0 38,26 77,58c117,95 278,182 376,203c28,6 51,14 51,19c0,4 11,11 25,14c37,9 61,51 47,81l-11,24l52,-6c29,-3 122,-25 207,-50zM6560,6860c117,-18 185,-33 215,-48l30,-15l-52,-15c-72,-20 -125,-10 -230,43c-97,49 -91,54 37,35zM1898,5957c15,-8 48,-17 75,-20c26,-4 66,-15 90,-26c69,-31 245,-87 347,-111c113,-26 250,-71 342,-111c36,-16 72,-29 79,-29c19,0 79,-43 79,-57c0,-21 42,-54 105,-83c73,-33 137,-44 179,-30c24,8 42,7 71,-3c31,-11 41,-21 56,-58c28,-72 112,-208 182,-295c90,-112 177,-187 263,-229l74,-36l-20,-21c-11,-12 -20,-27 -20,-34c0,-26 -320,-47 -448,-29l-50,7l31,28c24,21 31,36 31,63c0,42 -15,62 -67,89c-29,14 -54,19 -93,16c-51,-3 -53,-2 -58,26c-14,69 -93,127 -152,112c-28,-7 -64,-60 -64,-93c0,-13 -3,-23 -7,-23c-17,0 -100,80 -156,150l-59,74l56,13c100,23 146,59 146,114c0,61 -113,106 -242,97c-163,-10 -319,-156 -335,-312c-4,-41 -1,-55 15,-73c36,-42 65,-29 169,75c29,29 57,52 62,52c5,0 12,-14 16,-30c8,-38 103,-142 150,-164c20,-10 44,-15 54,-11c10,3 24,-2 35,-14c16,-18 15,-18 -62,-6c-43,7 -136,16 -208,20c-71,3 -165,11 -209,16c-159,20 -249,28 -378,36c-196,12 -246,11 -257,-7c-22,-34 -18,-35 170,-54c679,-70 937,-91 972,-81c20,5 21,5 5,-5c-33,-21 -67,-87 -67,-132c0,-98 88,-136 194,-84l55,27l46,-35c25,-20 71,-43 102,-52c81,-24 139,-13 423,78c36,12 89,27 119,33c49,12 56,11 74,-6c25,-23 74,-25 124,-4c50,21 90,19 103,-5c12,-23 11,-23 -65,-21c-76,3 -253,-25 -326,-51c-92,-34 -228,-110 -324,-183c-55,-41 -87,-59 -93,-53c-13,13 -73,13 -114,-1c-20,-7 -73,-52 -132,-111c-54,-54 -103,-96 -110,-94c-7,3 -31,-18 -55,-46c-36,-42 -48,-50 -76,-50c-37,0 -213,-43 -245,-60c-11,-6 -124,-10 -288,-10h-269l-89,31c-169,58 -250,79 -401,104c-182,30 -283,67 -375,135c-68,50 -129,122 -147,173l-10,27h109c110,0 139,9 99,31c-29,15 -198,8 -208,-10c-6,-9 -10,-6 -14,11c-17,61 -3,139 54,312c16,49 29,97 29,106c0,9 11,27 24,39c24,23 25,23 182,13c161,-10 338,-1 359,19c20,19 -21,29 -125,29c-58,0 -174,7 -259,15c-177,17 -196,26 -204,98c-9,81 -57,246 -92,318c-33,67 -36,80 -33,144c6,124 41,153 266,226c40,13 81,31 91,40c10,10 47,23 82,29c35,6 84,15 109,21c137,30 451,34 508,6zM5630,5521c14,-6 68,-37 120,-69c69,-41 95,-62 92,-74c-2,-11 8,-23 27,-33c50,-25 36,-24 -34,3c-45,18 -65,31 -65,43c0,37 -160,127 -202,113c-42,-13 -27,-94 22,-109c11,-3 20,-12 20,-20c0,-7 15,-22 33,-34c17,-11 47,-32 65,-47c33,-27 144,-64 194,-64c16,0 37,9 48,20c12,12 33,20 54,20c18,0 55,4 82,9c27,5 88,12 136,16c83,7 86,6 82,-12c-5,-18 1,-21 58,-26c57,-5 188,-47 213,-67c19,-16 106,-33 116,-23c14,14 -36,60 -103,94c-31,16 -59,33 -63,39c-7,12 13,5 109,-39c38,-17 77,-31 87,-31c21,0 29,19 17,42c-8,16 -4,16 38,-2c26,-11 63,-33 83,-48c20,-15 48,-36 64,-45c20,-13 27,-25 27,-50c0,-17 9,-61 20,-95c22,-72 25,-126 9,-204c-15,-78 -67,-192 -92,-204c-27,-12 -32,-28 -12,-47c8,-9 15,-30 15,-47c0,-39 32,-103 79,-156c20,-23 63,-74 96,-113c33,-39 67,-70 75,-69c35,4 108,-16 143,-39c39,-27 107,-97 107,-111c0,-5 -14,-30 -31,-55c-24,-36 -37,-47 -57,-47c-15,0 -42,-9 -60,-20c-18,-11 -34,-20 -36,-20c-1,0 -3,14 -4,30c-1,28 -41,92 -81,130c-9,8 -35,38 -58,66c-82,99 -212,180 -336,209c-34,8 -83,21 -109,29c-39,12 -49,12 -64,1c-16,-11 -23,-11 -44,0c-14,7 -43,16 -63,20c-33,6 -36,9 -21,20c10,7 15,19 11,29c-13,34 -87,49 -362,77c-330,32 -385,35 -385,16c0,-9 5,-19 10,-22c15,-9 116,-23 245,-34c139,-12 203,-27 201,-48c0,-10 11,-20 29,-25c17,-4 62,-17 100,-28c178,-49 218,-63 335,-118c154,-73 284,-152 330,-201c19,-20 61,-65 93,-99c62,-65 85,-76 94,-42c5,19 6,19 19,-5c13,-25 11,-29 -44,-83c-61,-60 -85,-101 -102,-168c-9,-35 -15,-42 -41,-48c-63,-12 -67,-10 -79,52c-16,77 -46,120 -116,162c-57,34 -61,35 -164,35c-117,0 -220,-19 -247,-45c-16,-15 -21,-15 -53,-2c-26,11 -49,12 -90,6c-30,-4 -93,-8 -140,-8c-90,0 -145,18 -158,52c-11,29 -207,395 -234,437c-29,46 -119,139 -196,203c-29,24 -52,50 -52,57c0,8 -10,17 -22,21c-13,4 -36,18 -53,32c-61,51 -188,91 -295,92c-30,0 -66,7 -80,14l-24,14l39,17c71,30 124,28 75,-3c-22,-14 -27,-32 -7,-32c6,0 25,7 41,15c15,8 37,15 48,15c28,0 95,36 102,56c4,9 0,24 -9,34c-13,15 -12,19 11,39c31,27 28,54 -6,61c-41,8 -29,34 45,101c39,35 59,51 46,36c-23,-25 -23,-29 -9,-43c13,-13 20,-14 37,-4c28,14 111,127 111,149c0,29 -11,32 -40,11c-38,-27 -44,-14 -16,34c31,54 78,175 100,256c26,97 21,91 53,76c15,-8 39,-19 53,-25zM2799,5379l45,-20l-22,-22c-20,-20 -36,-23 -155,-28c-138,-6 -153,-9 -202,-43c-28,-19 -29,-19 -15,-1c89,116 239,165 349,114zM3636,5273c17,-12 44,-47 59,-75c37,-68 112,-167 184,-242l56,-58l-100,75c-115,87 -173,144 -244,242c-28,39 -55,75 -59,80c-5,6 -17,24 -28,40l-19,29l60,-34c33,-18 74,-44 91,-57zM4012,5042c69,-106 76,-122 53,-122c-9,0 -60,39 -112,87l-94,87l43,17c24,10 45,18 48,18c3,0 31,-39 62,-87zM3076,5000c15,-22 27,-50 28,-63c1,-20 7,-22 83,-27c96,-6 122,-21 84,-49c-38,-29 -86,-40 -151,-34c-49,5 -64,2 -80,-12c-11,-10 -20,-23 -20,-30c0,-20 -83,-50 -127,-46c-43,4 38,117 87,123c24,3 25,6 28,91c2,79 5,87 22,87c12,0 30,-16 46,-40zM4565,4675c162,-13 181,-13 192,1c12,17 43,14 145,-13c39,-11 59,-22 63,-34c6,-19 92,-68 145,-84c14,-4 57,-39 96,-79c39,-39 86,-84 106,-101c19,-16 65,-73 101,-125c36,-52 109,-140 162,-195c104,-109 115,-125 233,-356c44,-86 105,-196 136,-245c31,-49 63,-111 71,-138c42,-140 155,-282 364,-454c129,-105 160,-143 199,-242c49,-124 51,-205 7,-366c-32,-115 -74,-199 -123,-247l-40,-39l-124,1c-69,1 -140,6 -159,11c-45,13 -85,13 -124,-1c-26,-10 -40,-8 -96,15c-69,27 -109,33 -109,16c0,-6 -17,-1 -38,11c-26,15 -38,29 -38,43c1,24 -116,109 -138,100c-15,-6 -104,93 -155,171c-18,28 -24,40 -13,27c21,-23 42,-29 42,-11c0,18 -114,178 -127,179c-7,0 -13,-11 -13,-25c0,-14 3,-25 8,-25c4,0 14,-10 21,-22c11,-17 5,-15 -23,10c-20,17 -41,32 -46,32c-5,0 -46,72 -90,160c-48,95 -87,160 -96,160c-8,0 -14,-5 -14,-11c0,-13 105,-240 131,-283c16,-26 16,-31 3,-51c-15,-22 -14,-26 8,-80c6,-16 12,-38 13,-47c4,-29 56,-109 106,-161c40,-42 51,-48 63,-38c17,14 40,6 30,-10c-21,-34 57,-109 178,-170c107,-54 137,-26 38,36c-33,20 -65,44 -71,51c-7,8 19,-4 57,-27c38,-23 101,-57 140,-75c42,-19 77,-43 88,-59c10,-15 48,-41 89,-61c59,-28 88,-35 163,-40l92,-7l-2,-31c-1,-27 -10,-37 -66,-73c-36,-24 -80,-50 -99,-59c-40,-18 -162,-40 -281,-49c-76,-5 -188,-34 -215,-55c-11,-9 -220,4 -250,15c-80,31 -321,144 -395,186c-170,96 -334,221 -475,363c-66,67 -130,129 -142,138c-12,9 -27,36 -33,60c-7,23 -26,60 -42,81c-60,75 -85,195 -98,457c-5,116 -14,204 -24,235c-9,28 -28,104 -43,170c-27,119 -27,123 -24,420c2,177 7,305 13,312c13,16 12,125 -2,266c-12,116 -3,233 22,281c27,51 211,-52 211,-118c0,-14 5,-26 12,-26c15,0 57,-45 49,-53c-3,-3 9,-12 28,-20c23,-10 39,-26 48,-48c16,-39 83,-141 105,-159c21,-18 45,-5 45,25c0,17 5,25 18,25c10,0 27,7 38,15c16,13 17,16 4,24c-10,7 -22,6 -37,-4c-16,-11 -24,-12 -29,-3c-4,7 -3,13 3,15c30,10 47,34 48,64c0,18 6,34 12,36c6,2 46,-29 90,-69c43,-41 101,-89 128,-108c60,-41 64,-46 111,-135c44,-82 107,-179 141,-216c21,-23 28,-25 49,-15c31,14 30,28 -7,90c-37,61 -77,105 -104,116c-21,8 -91,120 -74,120c14,0 11,37 -5,69c-8,15 -69,80 -135,143c-98,95 -131,120 -177,138c-40,14 -69,19 -94,15c-28,-5 -42,-1 -63,15c-14,11 -43,27 -64,34c-44,15 -91,76 -100,130c-4,27 0,39 23,64c16,18 34,32 39,32c6,0 91,-7 190,-15zM3854,4570c-27,-28 -69,-63 -94,-78c-25,-15 -54,-32 -65,-39c-11,-7 -27,-15 -35,-19c-8,-4 -49,-22 -90,-41c-118,-55 -161,-70 -216,-75l-51,-5l41,32c129,98 337,212 458,250c40,13 79,24 87,24c7,1 -8,-22 -35,-49zM3939,4330c2,-111 19,-306 31,-350c16,-56 -32,-526 -54,-545c-7,-5 -25,-32 -41,-60c-72,-125 -279,-358 -383,-432c-37,-26 -72,-52 -78,-58c-6,-5 -51,-18 -100,-28c-113,-23 -133,-33 -157,-80c-32,-63 -33,-115 -3,-160c14,-21 26,-42 26,-47c0,-4 -16,-41 -35,-81c-19,-41 -35,-79 -35,-86c0,-6 -9,-27 -20,-45c-19,-34 -42,-45 -128,-68c-85,-22 -181,-119 -182,-183c0,-15 -8,-42 -17,-60c-12,-22 -17,-58 -17,-118l-1,-87l-78,79c-42,43 -110,101 -149,129c-39,27 -66,50 -60,50c32,0 69,172 44,203c-7,8 -8,26 -2,52c5,22 10,54 10,71c0,24 4,31 17,30c13,-1 20,10 26,39c49,221 68,272 153,408c24,39 44,77 44,84c0,25 -19,13 -51,-32c-18,-25 -34,-43 -37,-40c-6,6 82,147 107,169c11,10 17,24 15,31c-3,8 13,34 35,58c44,48 49,57 27,57c-44,0 -296,-344 -347,-473c-11,-28 -19,-65 -18,-82c2,-16 1,-35 -3,-40c-3,-6 -8,-22 -12,-36c-3,-15 -13,-30 -22,-33c-13,-5 -14,-1 -9,27c4,17 13,50 21,72c17,51 18,75 1,75c-15,0 -57,-93 -83,-185c-9,-33 -27,-96 -40,-140c-31,-105 -32,-119 -14,-122c10,-2 24,12 37,39c28,55 28,42 0,-118c-22,-128 -23,-131 -60,-164l-38,-33l-112,-1c-95,-1 -117,-4 -147,-22c-31,-19 -76,-35 -97,-34c-5,0 -9,24 -10,53c-1,28 -5,111 -8,182c-7,128 -7,132 24,223c17,51 31,102 31,113c0,11 -12,42 -26,70c-22,45 -28,50 -50,45c-23,-6 -24,-4 -18,21c17,71 77,136 134,147c49,9 127,65 145,103c9,18 29,41 45,53c65,46 154,189 217,344c15,38 59,123 98,190c39,66 81,143 94,171c13,27 54,85 92,128c38,43 67,82 64,88c-15,23 -48,4 -102,-57c-59,-67 -75,-71 -50,-12c24,57 64,96 106,103c33,5 42,3 64,-19c19,-19 36,-26 66,-26c38,0 111,33 111,49c0,5 19,29 43,54c44,49 103,77 162,77c41,0 159,35 203,61c19,11 62,29 95,40c129,43 226,110 263,182c8,15 16,27 17,27c2,0 2,-28 -1,-62c-2,-38 -14,-88 -30,-126l-27,-63l-37,6c-45,8 -52,-10 -12,-25c22,-9 25,-14 19,-38c-4,-15 -9,-40 -10,-57c-2,-16 -10,-64 -20,-105c-26,-118 -5,-190 56,-190c37,0 101,72 141,157c21,46 38,85 38,89c0,3 6,20 14,37c20,46 46,180 46,236c0,27 -7,68 -15,91c-15,42 -15,43 15,88c16,25 31,50 31,56c4,35 17,-62 18,-134zM6582,3723c48,-51 121,-157 110,-161c-25,-8 -110,40 -182,103l-80,70l37,12c61,19 77,15 115,-24z"></path><path d="M3200,7216c0,-14 12,-67 26,-118c14,-51 36,-136 49,-188c65,-266 112,-433 172,-610c68,-204 87,-250 103,-250c16,0 11,35 -14,107c-48,133 -124,390 -186,628c-17,66 -37,140 -45,165c-7,25 -25,86 -40,135c-15,50 -31,105 -37,123c-11,38 -28,43 -28,8z"></path><path d="M3530,6353c0,-47 88,-442 127,-568c35,-115 121,-325 134,-325c17,0 19,20 4,52c-76,171 -131,351 -199,663c-15,66 -31,137 -37,158c-10,38 -29,51 -29,20z"></path><path d="M5010,7818c-67,-11 -208,-66 -266,-103c-75,-48 -125,-128 -103,-168c11,-19 -14,-47 -42,-47c-41,0 -209,-215 -209,-267c0,-30 16,-29 36,2c9,14 24,25 33,25c9,0 43,34 75,75c95,124 298,307 384,348c12,5 22,16 22,23c0,15 34,35 115,65c31,11 54,26 52,32c-5,17 -48,24 -97,15z"></path><path d="M5935,7559c-33,-3 -79,-11 -101,-18c-62,-17 -136,-61 -130,-77c3,-7 -9,-22 -30,-34c-36,-23 -64,-56 -64,-78c0,-23 27,-24 53,0c38,36 151,72 227,74c36,0 84,4 108,8c36,7 42,11 37,27c-6,18 0,19 97,19c57,0 130,-7 163,-15c98,-23 102,14 5,48c-113,39 -258,58 -365,46z"></path><path d="M4263,6548c-17,-22 -41,-128 -57,-248c-51,-387 -56,-498 -23,-487c7,2 13,28 15,68c3,73 41,351 49,359c3,3 3,-24 0,-60c-13,-142 -19,-278 -12,-299c6,-20 35,-30 35,-12c0,5 8,11 19,14c20,5 25,29 37,159c7,83 0,132 -19,125c-7,-2 -15,-23 -18,-48c-4,-26 -6,1 -5,66c1,97 -1,110 -16,109c-18,-2 -18,-8 7,156c14,91 9,126 -12,98z"></path><path d="M4265,5809c-4,-6 -7,-37 -8,-69c0,-51 -3,-59 -20,-62c-31,-5 -47,-81 -46,-228c1,-146 7,-174 36,-178c16,-2 24,4 32,30c22,70 43,228 36,280c-3,29 -6,92 -5,139c1,81 -9,115 -25,88z"></path><path d="M1316,5341c-7,-11 0,-16 39,-24c12,-3 8,-5 -12,-6c-18,0 -38,-9 -45,-18c-7,-10 -24,-19 -38,-21c-14,-1 -32,-5 -40,-9c-8,-3 -42,-5 -75,-4c-33,1 -66,-3 -74,-8c-20,-13 -6,-39 26,-47c15,-4 31,-11 34,-16c12,-18 78,-26 126,-15c26,5 69,9 96,8c41,-1 47,1 47,19c0,16 -7,20 -32,21c-21,1 -11,5 27,10c33,5 61,13 63,19c2,5 10,10 17,10c20,0 30,21 14,31c-8,5 -30,9 -49,9c-33,1 -33,2 -11,11c18,7 22,12 13,21c-16,16 -118,23 -126,9z"></path><path d="M1453,5214c-19,-8 -16,-32 5,-42c23,-13 76,-21 215,-32c65,-5 195,-23 288,-41c158,-30 196,-32 173,-9c-9,9 -221,66 -377,100c-89,20 -281,35 -304,24z"></path><path d="M1042,4948c-41,-41 6,-58 159,-58c90,0 124,-4 134,-14c17,-17 175,-29 310,-24c71,2 89,6 87,17c-2,11 10,13 65,8c159,-15 443,-20 443,-9c0,7 -10,14 -22,17c-34,7 -517,35 -614,35c-45,0 -134,6 -196,14c-175,22 -351,29 -366,14z"></path><path d="M1110,4721c-85,-10 -143,-35 -138,-58c3,-15 13,-18 56,-16c34,2 51,-1 47,-8c-22,-34 81,-55 121,-24c16,13 17,16 4,25c-8,5 -35,10 -60,11c-36,1 -25,5 52,18c53,9 100,20 104,24c26,26 -74,41 -186,28z"></path><path d="M5489,5148c-35,-47 -69,-108 -69,-124c0,-7 7,-17 15,-22c13,-7 12,-12 -10,-32c-27,-25 -33,-50 -12,-50c29,0 177,168 177,201c0,23 -32,5 -75,-43c-26,-30 -36,-37 -22,-18c36,51 59,99 52,110c-11,18 -31,10 -56,-22z"></path><path d="M4145,4290c-4,-6 -1,-70 5,-143c17,-192 18,-197 40,-197c15,0 23,13 36,58c16,53 16,62 0,140c-25,122 -58,180 -81,142z"></path><path d="M4670,3862c0,-16 7,-49 15,-72c19,-53 19,-66 1,-51c-33,28 -22,-14 35,-135c49,-103 63,-144 71,-204c5,-41 20,-113 34,-160c14,-47 32,-111 40,-143c17,-70 99,-264 121,-289c31,-35 36,-21 28,75c-5,50 -8,133 -6,184c3,112 -22,217 -82,348c-81,173 -234,469 -245,473c-7,2 -12,-8 -12,-26z"></path><path d="M5194,3686c-15,-40 320,-623 379,-660c30,-19 29,2 -1,46c-60,84 -164,265 -242,419c-43,86 -84,166 -92,178c-16,27 -37,35 -44,17z"></path><path d="M4948,3544c-9,-9 12,-74 47,-144c18,-36 53,-114 79,-175c26,-60 58,-128 71,-150c13,-22 41,-69 61,-105c97,-169 228,-351 290,-403c29,-24 104,-36 104,-17c0,5 -29,42 -65,82c-36,40 -84,101 -108,135c-30,45 -47,61 -59,57c-12,-4 -25,7 -43,35c-34,54 -154,290 -189,371c-49,114 -69,153 -120,238c-47,79 -56,89 -68,76z"></path><path d="M4316,3432c-9,-16 34,-280 64,-392c17,-63 36,-133 41,-154c24,-98 183,-376 215,-376c22,0 17,18 -21,68c-20,25 -50,76 -66,112c-106,229 -147,356 -169,530c-10,76 -19,126 -35,198c-5,22 -19,29 -29,14z"></path><path d="M4190,3065c0,-19 -5,-45 -11,-58c-8,-18 -6,-43 9,-106c20,-84 19,-120 -4,-134c-12,-7 7,-68 46,-152c5,-11 14,-32 20,-47c10,-30 30,-38 30,-13c0,8 5,15 10,15c17,0 11,35 -20,128c-32,97 -41,160 -10,77c47,-128 67,-170 81,-170c21,0 13,39 -36,183c-23,70 -53,169 -66,220c-14,57 -28,92 -36,92c-8,0 -13,-13 -13,-35z"></path><path d="M3824,3853c-43,-72 -68,-133 -59,-142c3,-3 15,0 26,8c18,11 20,10 15,-6c-17,-59 -18,-73 -3,-73c20,0 87,151 85,192c-1,18 2,45 6,61c7,23 5,27 -11,27c-13,0 -32,-22 -59,-67z"></path><path d="M2948,3775c-29,-24 -58,-50 -63,-57c-6,-7 -49,-56 -96,-108c-100,-112 -133,-156 -124,-170c3,-5 -14,-31 -39,-58c-60,-64 -145,-181 -153,-210c-10,-42 9,-37 51,13c22,28 83,94 135,147c86,89 96,96 111,83c24,-22 60,-19 60,4c0,18 -45,64 -72,73c-7,3 32,50 89,109c110,113 173,186 173,199c0,24 -23,16 -72,-25z"></path><path d="M3156,3660c-134,-108 -286,-289 -273,-325c4,-8 18,-15 34,-15c23,0 54,27 171,147c155,161 198,214 188,238c-10,28 -44,15 -120,-45z"></path><path d="M5222,5352c-41,-81 -79,-154 -85,-162c-18,-23 -147,-124 -210,-164c-53,-34 -71,-56 -47,-56c32,0 194,113 260,181c32,34 111,177 160,292c24,57 24,57 8,57c-7,0 -46,-67 -86,-148z"></path><path d="M4565,4983c-63,-17 -126,-47 -135,-64c-9,-15 -6,-24 14,-44c29,-29 73,-32 203,-14c76,10 123,29 123,49c0,41 -140,91 -205,73z"></path></g></g></g></svg> 