<?xml version="1.0" encoding="UTF-8"?>
<svg xmlns="http://www.w3.org/2000/svg" viewBox="0 0 908 657" width="908" height="657" fill="none">
  <path fill="#2B3F2F" fill-rule="evenodd" d="M 873.00 648.99 C 873.00 647.89 869.70 641.93 865.66 635.74 C 861.63 629.56 854.66 618.15 850.17 610.40 C 841.74 595.81 834.93 585.42 819.50 563.62 C 814.55 556.62 809.88 550.02 809.13 548.95 C 807.87 547.16 807.98 547.00 810.41 547.00 C 813.72 547.00 819.82 544.50 822.49 542.06 C 823.59 541.05 825.94 539.91 827.70 539.54 C 830.16 539.02 831.32 537.96 832.70 534.93 C 834.10 531.88 835.31 530.78 838.13 530.00 C 840.13 529.44 842.32 528.32 843.00 527.50 C 843.67 526.69 844.64 526.28 845.14 526.59 C 845.64 526.90 845.95 526.78 845.82 526.32 C 845.69 525.87 846.36 524.06 847.29 522.30 C 848.23 520.54 849.00 517.74 849.00 516.08 C 849.00 514.21 850.08 511.82 851.83 509.78 C 853.39 507.98 854.95 505.71 855.30 504.75 C 855.65 503.79 856.55 503.00 857.31 503.00 C 858.97 503.00 861.00 498.83 861.00 495.42 C 861.00 493.68 861.97 492.35 864.25 490.99 C 869.54 487.83 872.41 482.65 872.69 475.74 C 872.82 472.44 873.62 468.70 874.47 467.41 C 875.31 466.12 876.00 463.72 876.00 462.07 C 876.00 460.07 876.68 458.70 878.05 457.97 C 881.68 456.03 883.99 450.97 884.00 444.95 C 884.00 441.90 884.53 438.87 885.17 438.23 C 885.82 437.58 886.44 435.36 886.57 433.28 C 886.86 428.51 889.15 422.00 890.55 422.00 C 891.14 422.00 892.49 422.66 893.56 423.47 C 896.77 425.90 899.00 425.39 899.00 422.22 C 899.00 420.24 898.20 418.96 896.25 417.80 C 889.06 413.54 886.54 409.24 886.13 400.50 C 885.95 396.58 883.03 392.72 879.40 391.62 C 872.62 389.55 871.37 388.76 869.00 385.08 C 866.35 380.97 849.84 362.92 836.49 349.53 C 820.97 333.97 815.09 326.60 806.01 311.35 C 797.63 297.28 795.97 295.17 782.71 281.85 C 774.13 273.23 765.45 263.33 760.98 257.05 C 752.02 244.48 744.70 236.42 736.56 230.17 C 733.23 227.60 729.83 224.91 729.00 224.19 C 728.18 223.47 720.06 217.15 710.96 210.15 C 701.87 203.15 691.61 195.08 688.16 192.21 C 681.73 186.86 679.00 185.79 679.00 188.61 C 679.00 191.91 697.90 210.08 709.58 218.01 C 717.53 223.41 725.95 230.71 725.20 231.54 C 724.81 231.97 724.99 232.04 725.60 231.69 C 726.20 231.35 727.55 232.07 728.60 233.28 C 729.65 234.50 736.45 242.54 743.72 251.14 C 750.99 259.75 761.79 271.21 767.72 276.63 C 784.39 291.86 790.25 298.22 793.46 304.61 C 795.10 307.85 797.91 312.84 799.71 315.70 C 801.52 318.56 803.00 321.57 803.00 322.39 C 803.00 323.21 803.44 324.15 803.98 324.48 C 804.51 324.82 806.58 327.99 808.56 331.54 C 810.55 335.09 812.76 338.33 813.49 338.75 C 814.22 339.16 818.52 342.88 823.04 347.00 C 827.57 351.12 832.00 354.91 832.89 355.41 C 835.87 357.09 839.15 360.86 842.58 366.57 C 846.10 372.40 846.75 376.31 845.09 381.60 C 844.60 383.20 843.01 388.55 841.56 393.50 C 840.12 398.45 838.50 403.88 837.97 405.57 C 837.44 407.26 837.00 409.32 837.00 410.14 C 837.00 410.96 835.88 412.62 834.50 413.81 C 833.12 415.01 832.00 416.93 832.00 418.08 C 832.00 419.24 831.06 420.94 829.90 421.88 C 828.51 423.01 827.62 425.17 827.27 428.29 C 826.98 430.88 826.35 433.00 825.88 433.00 C 824.15 433.00 819.00 439.36 819.00 441.50 C 819.00 442.71 817.65 445.12 816.00 446.84 C 814.35 448.57 813.00 450.63 813.00 451.41 C 813.00 452.20 811.88 454.18 810.50 455.82 C 809.12 457.45 808.00 459.27 808.00 459.87 C 808.00 460.46 806.65 461.65 805.00 462.50 C 803.35 463.35 802.00 464.47 802.00 464.99 C 802.00 465.51 800.32 467.07 798.27 468.46 C 796.22 469.86 794.98 471.00 795.52 471.00 C 796.06 471.01 794.97 471.94 793.11 473.08 C 791.24 474.22 789.07 475.79 788.28 476.57 C 787.50 477.36 785.82 478.00 784.55 478.00 C 783.28 478.00 781.72 478.63 781.08 479.40 C 779.95 480.77 775.44 481.71 767.60 482.24 C 765.24 482.40 762.57 481.81 760.83 480.75 C 759.25 479.79 757.55 479.00 757.07 479.00 C 754.70 479.00 747.90 473.38 747.44 471.05 C 747.16 469.65 746.05 466.74 744.96 464.59 C 743.88 462.44 743.14 460.53 743.32 460.35 C 743.50 460.17 746.89 464.07 750.84 469.01 C 754.80 473.95 758.46 478.00 758.96 478.00 C 763.80 478.00 758.96 467.51 748.41 455.15 C 734.01 438.27 731.53 436.33 715.78 429.64 C 713.11 428.51 711.88 427.27 711.44 425.28 C 709.46 416.20 706.00 413.80 706.00 421.50 C 706.00 424.67 705.41 426.59 704.00 428.00 C 701.46 430.54 699.07 430.69 701.35 428.17 C 702.26 427.17 703.00 425.53 703.00 424.55 C 703.00 422.10 699.31 422.90 690.25 427.31 C 682.04 431.31 667.80 436.35 660.00 438.03 C 653.60 439.41 651.77 440.20 651.23 441.82 C 650.32 444.54 660.19 442.85 676.93 437.41 C 686.40 434.33 694.37 432.04 694.65 432.32 C 694.92 432.59 694.10 433.11 692.83 433.47 C 691.55 433.83 689.60 434.54 688.50 435.04 C 680.51 438.67 668.13 442.79 651.50 447.35 C 627.98 453.80 625.52 454.05 578.98 454.71 C 555.59 455.04 534.83 455.00 532.84 454.63 C 530.09 454.11 528.93 453.24 528.00 450.99 C 526.31 446.91 527.13 445.47 532.83 442.59 C 537.54 440.20 555.42 433.73 566.00 430.59 C 570.94 429.12 571.00 429.13 569.93 431.14 C 567.31 436.02 572.35 434.02 582.85 425.99 C 587.25 422.63 591.66 418.67 592.65 417.19 C 601.36 404.20 603.30 393.76 600.39 375.73 C 599.87 372.52 600.14 371.68 602.25 370.02 C 603.61 368.94 605.30 366.70 605.99 365.02 C 607.24 362.02 606.98 354.27 605.51 350.75 C 604.94 349.38 605.30 348.98 607.14 348.92 C 611.10 348.78 617.25 344.74 620.46 340.16 C 623.28 336.14 623.50 335.20 623.50 327.16 C 623.50 319.66 623.18 318.06 621.14 315.19 C 617.33 309.86 607.08 304.44 605.53 306.96 C 605.20 307.49 606.57 309.74 608.58 311.96 C 610.59 314.18 612.02 316.00 611.76 316.00 C 611.50 316.00 607.87 314.42 603.71 312.50 C 595.75 308.82 591.00 308.03 591.00 310.38 C 591.00 312.34 593.09 313.82 599.17 316.17 C 607.23 319.28 609.88 319.55 611.44 317.41 C 612.68 315.72 613.01 315.95 615.89 320.49 C 619.55 326.26 619.77 329.55 616.88 335.29 C 614.32 340.36 612.53 342.15 608.28 343.89 C 603.50 345.86 597.17 344.14 580.00 336.22 C 572.98 332.97 566.19 328.40 551.31 316.88 C 534.43 303.81 531.07 301.72 528.98 303.01 C 527.39 304.00 533.47 310.22 545.25 319.67 C 548.96 322.65 552.00 325.72 552.00 326.51 C 552.00 327.29 551.05 330.31 549.89 333.21 C 547.29 339.76 547.69 351.33 550.67 355.42 C 553.72 359.61 554.33 358.45 553.66 349.74 C 553.17 343.37 553.43 340.04 554.78 335.25 L 556.54 329.02 L 561.52 332.61 C 567.39 336.84 575.19 340.61 587.25 345.05 C 592.06 346.81 597.12 349.31 598.50 350.58 C 601.70 353.55 601.80 358.52 598.75 363.03 C 596.45 366.43 589.01 370.92 585.59 370.97 C 584.54 370.99 578.24 368.35 571.59 365.11 C 564.94 361.87 558.71 358.96 557.75 358.64 C 554.72 357.64 555.71 361.58 559.25 364.57 C 562.21 367.07 575.36 373.66 584.00 376.98 C 585.92 377.72 588.17 378.88 589.00 379.56 C 589.83 380.24 591.39 380.96 592.48 381.16 C 595.99 381.80 596.60 386.15 594.58 396.29 C 591.93 409.64 588.95 415.42 582.64 419.45 C 579.81 421.26 575.02 423.26 572.00 423.90 C 563.47 425.71 529.84 437.16 526.64 439.34 C 522.75 442.00 520.70 447.04 522.03 450.70 C 524.27 456.90 525.18 457.79 530.88 459.39 C 535.89 460.79 541.29 460.86 579.01 459.98 C 626.06 458.88 628.44 458.67 652.00 453.61 C 673.69 448.95 680.65 446.60 702.00 436.75 L 708.50 433.75 L 715.51 437.43 C 723.02 441.37 726.60 443.96 734.25 450.94 C 738.20 454.54 739.01 455.83 738.53 457.75 C 737.72 460.97 740.66 472.44 743.79 478.28 C 745.25 481.02 746.28 484.44 746.18 486.28 C 745.26 503.03 745.29 520.82 746.23 522.75 C 747.42 525.18 751.54 525.87 752.14 523.75 C 752.34 523.06 752.50 514.36 752.50 504.42 L 752.50 486.34 L 755.50 488.16 C 757.15 489.17 759.27 489.99 760.21 490.00 C 761.31 490.00 765.25 494.99 771.06 503.69 C 776.08 511.22 781.69 519.23 783.54 521.48 C 785.39 523.74 788.00 527.95 789.34 530.84 C 790.68 533.74 793.48 538.15 795.57 540.65 C 797.66 543.15 802.80 550.66 806.99 557.35 C 814.95 570.04 830.05 592.64 851.51 624.00 C 858.48 634.17 865.37 644.41 866.83 646.75 C 869.65 651.26 873.00 652.48 873.00 648.99 Z M 809.04 541.84 C 805.65 540.56 805.62 540.47 807.65 538.10 C 809.40 536.06 812.69 535.07 811.54 536.93 C 811.23 537.44 811.92 538.53 813.08 539.34 C 815.10 540.76 815.11 540.87 813.35 541.79 C 812.19 542.40 810.58 542.42 809.04 541.84 Z M 813.79 538.94 C 812.85 538.39 812.34 537.29 812.65 536.47 C 813.37 534.59 817.39 534.56 818.94 536.43 C 819.89 537.57 819.73 538.08 818.13 538.93 C 815.76 540.20 815.94 540.20 813.79 538.94 Z M 798.12 531.75 C 797.15 529.91 797.03 529.86 797.47 531.50 C 798.00 533.47 797.98 533.47 796.50 531.56 C 795.68 530.49 795.00 529.23 795.00 528.76 C 795.00 528.29 793.88 526.78 792.50 525.41 C 791.12 524.03 790.00 522.48 790.00 521.95 C 790.00 521.06 794.25 520.49 798.31 520.84 C 799.30 520.93 799.88 520.61 799.59 520.15 C 799.01 519.21 807.19 513.65 810.76 512.55 C 812.01 512.17 812.77 511.44 812.46 510.93 C 812.14 510.42 812.38 510.00 812.98 510.00 C 816.61 510.00 829.02 494.37 833.45 484.24 C 834.47 481.90 835.94 479.46 836.72 478.82 C 838.19 477.60 845.00 467.68 845.00 466.76 C 845.00 466.47 846.80 463.53 849.00 460.24 C 851.20 456.94 853.00 453.52 853.00 452.63 C 853.00 451.21 857.40 440.69 860.05 435.78 C 860.56 434.84 861.41 432.36 861.94 430.28 C 862.48 428.20 864.51 421.86 866.46 416.18 C 868.41 410.50 870.00 404.99 870.00 403.93 C 870.00 401.50 871.10 401.47 873.14 403.85 C 874.26 405.16 874.81 408.20 875.01 414.10 C 875.43 426.74 875.10 435.31 874.17 435.94 C 873.71 436.25 872.10 439.20 870.58 442.50 C 869.07 445.80 867.46 449.22 867.00 450.09 C 866.55 450.96 866.56 452.29 867.02 453.04 C 868.27 455.05 866.20 458.29 864.17 457.52 C 862.89 457.03 862.77 457.16 863.68 458.07 C 865.46 459.86 863.53 463.93 858.95 468.02 C 855.97 470.68 854.66 472.88 853.59 477.01 C 852.81 480.01 852.34 482.74 852.54 483.06 C 852.74 483.39 851.58 486.32 849.96 489.58 C 848.33 492.84 847.01 496.05 847.00 496.73 C 847.00 497.41 845.88 498.24 844.51 498.59 C 842.67 499.05 841.75 500.23 840.97 503.11 C 840.04 506.58 839.12 507.47 836.81 507.14 C 836.43 507.08 835.85 507.91 835.51 508.97 C 835.17 510.03 834.07 511.16 833.06 511.48 C 831.99 511.82 830.44 514.24 829.33 517.28 C 827.82 521.44 827.00 522.49 825.27 522.43 C 824.08 522.39 823.31 522.69 823.56 523.10 C 823.82 523.52 823.11 524.15 821.99 524.50 C 820.87 524.86 819.23 526.24 818.36 527.58 C 817.33 529.15 815.82 530.00 814.07 530.00 C 812.59 530.00 809.51 530.90 807.24 532.00 C 801.88 534.59 799.58 534.53 798.12 531.75 Z M 825.70 531.60 C 827.70 528.94 829.00 529.12 829.00 532.06 C 829.00 533.47 828.31 534.00 826.45 534.00 C 823.93 534.00 823.93 533.98 825.70 531.60 Z M 834.55 524.08 C 833.14 521.80 840.89 511.56 842.68 513.34 C 844.60 515.26 842.66 521.95 840.62 520.45 C 840.28 520.20 840.23 520.30 840.50 520.67 C 841.20 521.60 837.98 525.00 836.40 525.00 C 835.70 525.00 834.86 524.59 834.55 524.08 Z M 781.50 510.00 C 781.16 509.45 781.25 508.99 781.69 508.98 C 782.14 508.98 781.99 508.64 781.37 508.23 C 779.97 507.32 773.53 498.92 772.29 496.38 C 770.86 493.47 771.31 491.68 773.50 491.50 C 779.80 490.98 784.99 489.72 786.04 488.45 C 786.70 487.65 787.98 487.00 788.88 487.00 C 789.78 487.00 791.10 486.06 791.82 484.92 C 792.54 483.76 793.75 483.07 794.53 483.37 C 795.31 483.67 796.63 483.23 797.46 482.40 C 798.30 481.56 799.84 480.81 800.88 480.73 C 802.11 480.64 802.58 480.07 802.22 479.13 C 801.87 478.21 802.08 477.93 802.80 478.38 C 803.50 478.81 804.50 477.74 805.40 475.58 C 806.33 473.35 807.76 471.85 809.31 471.46 C 810.65 471.12 812.26 469.73 812.88 468.37 C 813.50 467.00 814.46 466.17 815.01 466.51 C 815.56 466.85 816.31 466.31 816.67 465.31 C 817.34 463.47 818.71 461.73 822.75 457.58 C 823.99 456.31 825.00 454.22 825.00 452.93 C 825.00 451.65 826.37 449.19 828.04 447.46 C 829.87 445.58 831.32 442.81 831.69 440.50 C 832.12 437.89 833.38 435.73 835.63 433.75 C 837.45 432.15 838.87 430.54 838.78 430.17 C 838.42 428.77 840.18 424.99 840.97 425.48 C 841.42 425.76 841.80 424.98 841.81 423.74 C 841.85 420.38 844.27 412.76 846.27 409.70 C 847.25 408.22 847.80 407.00 847.50 407.00 C 847.20 407.00 847.65 405.64 848.52 403.97 C 849.38 402.30 849.82 400.52 849.50 400.00 C 849.18 399.48 849.67 397.60 850.60 395.81 C 851.52 394.02 852.42 390.52 852.59 388.03 C 852.93 382.96 853.68 378.99 854.44 378.22 C 855.26 377.41 858.04 380.13 857.41 381.14 C 857.10 381.64 857.42 381.93 858.11 381.77 C 858.80 381.62 859.98 382.74 860.74 384.25 C 861.49 385.76 862.53 387.00 863.05 387.00 C 863.57 387.00 864.00 388.86 864.00 391.13 C 864.00 394.90 863.45 397.74 861.03 406.50 C 859.42 412.30 852.15 431.54 850.09 435.46 C 848.94 437.64 848.00 439.93 848.00 440.56 C 848.00 441.18 847.10 442.73 846.00 444.00 C 844.90 445.27 844.00 446.83 844.00 447.48 C 844.00 448.98 838.16 459.78 836.94 460.54 C 836.42 460.86 836.00 461.97 836.00 463.01 C 836.00 464.06 834.85 466.05 833.45 467.45 C 832.05 468.85 831.17 470.00 831.48 470.00 C 832.36 470.00 829.26 475.60 827.27 477.58 C 826.30 478.56 825.48 479.61 825.46 479.93 C 825.36 481.45 821.67 488.00 820.91 488.00 C 820.44 488.00 819.39 489.24 818.57 490.75 C 815.89 495.73 807.37 504.35 805.98 503.49 C 805.22 503.02 804.94 503.09 805.29 503.67 C 806.00 504.80 802.28 508.29 801.13 507.58 C 800.71 507.32 799.61 507.98 798.69 509.05 C 797.31 510.66 795.72 511.00 789.57 511.00 C 785.47 511.00 781.84 510.55 781.50 510.00 Z M 847.45 506.91 C 846.77 505.82 848.70 503.00 850.12 503.00 C 850.61 503.00 851.00 503.85 851.00 504.89 C 851.00 507.00 848.41 508.47 847.45 506.91 Z M 17.92 501.67 C 20.63 499.38 46.99 483.93 51.41 482.04 C 57.39 479.48 70.82 477.16 82.50 476.68 C 89.13 476.40 94.58 475.55 98.67 474.15 C 108.71 470.71 126.45 462.22 137.37 455.64 C 142.97 452.26 148.76 448.87 150.23 448.11 C 151.70 447.34 153.34 445.46 153.88 443.92 L 154.85 441.14 L 150.42 441.50 C 147.29 441.75 140.02 444.82 125.74 451.91 C 107.14 461.15 104.21 462.28 89.50 465.92 C 71.85 470.28 63.28 471.95 55.71 472.51 C 51.60 472.82 50.10 473.49 47.47 476.19 C 45.70 478.01 40.48 481.43 35.88 483.78 C 25.74 488.96 11.63 498.97 11.18 501.31 C 10.77 503.42 15.54 503.67 17.92 501.67 Z M 314.93 498.88 C 319.88 497.15 317.28 495.81 307.30 494.94 C 257.74 490.62 225.76 486.23 208.00 481.31 C 195.13 477.74 188.11 474.83 187.88 472.97 C 187.41 469.37 187.78 468.40 190.00 467.34 C 192.80 466.02 225.56 460.97 231.00 461.03 C 234.11 461.06 234.31 461.21 232.77 462.38 C 231.81 463.11 231.28 463.95 231.59 464.26 C 232.53 465.20 237.01 463.52 247.92 458.14 C 258.02 453.16 261.78 451.92 260.50 454.00 C 259.71 455.28 260.33 455.26 263.25 453.93 C 271.07 450.37 284.31 409.59 278.39 407.32 C 275.96 406.39 278.45 405.33 285.00 404.51 L 290.50 403.83 L 290.19 417.66 C 289.83 433.86 290.43 436.69 297.16 450.75 C 301.71 460.24 304.00 463.18 304.00 459.50 C 304.00 457.18 305.41 457.71 307.80 460.94 C 312.51 467.31 330.76 478.07 334.45 476.66 C 337.01 475.67 335.10 473.29 329.99 471.09 C 325.35 469.09 321.27 465.70 325.59 467.43 C 332.77 470.30 345.30 473.87 349.50 474.24 C 354.77 474.71 368.82 480.51 367.61 481.73 C 366.84 482.50 361.12 483.25 342.50 485.04 C 330.18 486.22 309.81 485.90 275.00 483.97 C 252.10 482.70 244.56 481.56 241.97 478.97 C 240.89 477.89 239.01 477.00 237.81 477.00 C 235.08 477.00 225.99 475.35 215.50 472.96 C 211.10 471.95 204.80 470.88 201.50 470.58 C 198.20 470.28 194.22 469.74 192.65 469.38 C 190.23 468.83 189.85 469.01 190.15 470.61 C 190.75 473.86 196.27 475.94 218.00 481.14 C 222.68 482.25 229.20 483.83 232.50 484.63 C 235.80 485.44 244.57 486.50 252.00 486.99 C 259.43 487.48 272.02 488.36 280.00 488.93 C 287.98 489.51 297.43 490.17 301.00 490.40 C 304.57 490.64 309.98 491.36 313.00 492.00 C 317.35 492.93 322.68 492.86 338.50 491.66 C 357.71 490.21 367.17 488.31 369.23 485.50 C 369.70 484.87 369.98 484.94 369.98 485.68 C 370.04 489.83 358.78 492.77 338.35 493.94 C 330.57 494.39 323.67 495.08 323.02 495.49 C 320.38 497.12 324.17 497.96 337.07 498.61 C 358.42 499.68 372.46 495.62 374.40 487.83 C 376.20 480.60 369.78 474.81 356.50 471.66 C 353.20 470.88 344.88 468.59 338.00 466.56 C 330.42 464.33 324.41 463.09 322.74 463.42 C 320.31 463.89 318.77 462.78 309.98 454.23 C 300.44 444.95 299.93 444.24 298.96 438.88 C 298.40 435.79 298.07 426.35 298.22 417.91 L 298.50 402.57 L 305.52 399.98 C 318.46 395.21 326.85 390.01 335.08 381.68 C 343.33 373.34 345.60 369.51 344.61 365.59 C 343.86 362.60 341.40 360.00 339.31 360.00 C 338.17 360.00 337.95 360.59 338.45 362.25 C 338.82 363.49 339.38 366.40 339.69 368.73 C 340.25 372.94 340.24 372.97 335.88 374.83 C 330.13 377.29 321.20 379.54 320.40 378.73 C 320.05 378.38 319.55 376.15 319.28 373.76 C 318.72 368.82 319.56 367.74 325.61 365.65 C 327.86 364.87 329.65 363.54 329.85 362.50 C 330.17 360.87 329.64 360.76 324.35 361.37 C 317.79 362.12 313.67 364.56 313.16 368.00 C 312.97 369.27 313.56 372.64 314.46 375.51 C 316.13 380.84 318.12 382.64 322.97 383.21 C 324.94 383.44 323.90 384.26 317.80 387.26 C 304.67 393.74 291.95 397.88 267.50 403.66 C 254.42 406.75 255.08 411.10 268.25 408.62 L 272.00 407.91 L 271.96 412.70 C 271.87 422.03 270.22 431.92 267.97 436.57 C 265.53 441.60 258.62 447.30 247.53 453.44 C 242.07 456.47 241.48 456.59 238.01 455.39 C 234.96 454.34 232.75 454.37 225.41 455.59 C 220.51 456.40 209.79 458.15 201.58 459.48 C 184.65 462.22 183.08 463.09 182.28 470.21 C 181.87 473.88 182.18 475.08 184.14 477.23 C 186.25 479.55 197.88 484.42 207.50 487.02 C 209.15 487.46 213.20 488.59 216.50 489.52 C 235.23 494.81 242.03 495.65 289.50 498.45 C 301.60 499.16 311.55 499.80 311.60 499.87 C 311.66 499.94 313.15 499.49 314.93 498.88 Z M 853.00 498.01 C 853.00 496.11 855.05 492.91 855.91 493.45 C 857.43 494.38 856.54 498.47 854.75 498.81 C 853.79 499.00 853.00 498.63 853.00 498.01 Z M 764.50 487.00 C 764.84 486.45 765.79 486.00 766.62 486.00 C 767.44 486.00 767.84 486.45 767.50 487.00 C 767.16 487.55 766.21 488.00 765.38 488.00 C 764.56 488.00 764.16 487.55 764.50 487.00 Z M 775.60 486.17 C 775.32 485.71 775.72 485.33 776.50 485.33 C 777.28 485.33 777.68 485.71 777.40 486.17 C 777.11 486.62 776.71 487.00 776.50 487.00 C 776.29 487.00 775.89 486.62 775.60 486.17 Z M 858.68 484.60 C 858.38 483.83 858.77 482.36 859.54 481.35 C 860.31 480.33 860.97 478.82 861.00 478.00 C 861.11 475.68 865.63 470.66 866.91 471.44 C 867.53 471.82 867.73 472.63 867.36 473.22 C 866.94 473.90 867.16 474.02 867.95 473.53 C 869.46 472.60 868.64 475.81 866.17 480.50 C 864.68 483.32 864.46 483.88 864.11 485.75 C 864.03 486.16 863.49 485.82 862.91 485.00 C 862.11 483.87 861.72 483.81 861.34 484.75 C 860.67 486.41 859.34 486.34 858.68 484.60 Z M 757.50 484.00 C 757.16 483.45 757.36 483.00 757.94 483.00 C 758.52 483.00 759.00 483.45 759.00 484.00 C 759.00 484.55 758.80 485.00 758.56 485.00 C 758.32 485.00 757.84 484.55 757.50 484.00 Z M 292.56 477.88 C 295.00 477.27 297.00 476.20 297.00 475.51 C 297.00 473.83 291.47 473.02 279.82 473.01 C 269.43 473.00 260.16 471.40 247.70 467.46 C 239.05 464.73 234.60 464.30 235.24 466.25 C 236.50 470.07 256.01 476.96 266.00 477.10 C 269.57 477.16 273.62 477.56 275.00 478.00 C 278.76 479.20 287.55 479.14 292.56 477.88 Z M 793.00 477.00 C 793.00 476.45 793.45 476.00 794.00 476.00 C 794.55 476.00 795.00 476.45 795.00 477.00 C 795.00 477.55 794.55 478.00 794.00 478.00 C 793.45 478.00 793.00 477.55 793.00 477.00 Z M 869.60 465.16 C 869.25 464.60 869.45 463.84 870.05 463.47 C 871.59 462.52 872.58 463.82 871.30 465.10 C 870.58 465.82 870.02 465.84 869.60 465.16 Z M 296.46 462.65 C 299.44 460.48 297.33 459.00 291.19 458.97 C 288.06 458.95 282.35 458.49 278.50 457.95 C 263.67 455.87 261.00 455.70 261.00 456.82 C 261.00 458.25 264.15 459.92 271.00 462.12 C 277.86 464.33 293.72 464.66 296.46 462.65 Z M 600.50 452.08 C 624.51 449.17 633.48 447.45 633.82 445.69 C 634.10 444.26 633.26 444.00 628.32 444.02 C 625.12 444.03 619.58 444.46 616.00 444.97 C 612.42 445.48 604.10 446.39 597.50 446.99 C 590.90 447.59 581.90 448.47 577.50 448.95 C 570.20 449.73 542.21 448.76 536.00 447.51 C 534.62 447.23 532.83 447.44 532.00 447.97 C 529.67 449.46 533.01 452.20 538.21 453.07 C 544.75 454.16 589.19 453.45 600.50 452.08 Z M 817.54 453.07 C 817.23 452.56 817.42 451.86 817.98 451.51 C 818.54 451.16 819.00 451.58 819.00 452.44 C 819.00 454.20 818.40 454.46 817.54 453.07 Z M 874.40 452.46 C 874.52 451.69 874.92 450.75 875.30 450.37 C 875.67 449.99 875.49 449.09 874.89 448.37 C 874.08 447.39 874.37 446.14 876.02 443.48 C 877.23 441.51 878.43 440.10 878.68 440.34 C 880.01 441.68 879.86 448.28 878.45 450.43 C 876.61 453.25 874.10 454.50 874.40 452.46 Z M 168.46 442.91 C 173.57 440.51 175.45 438.61 174.69 436.62 C 174.32 435.68 175.09 435.03 177.02 434.65 C 178.59 434.33 186.32 430.93 194.19 427.08 C 203.17 422.69 211.11 419.54 215.50 418.63 C 219.35 417.83 228.57 415.97 236.00 414.51 C 250.04 411.75 252.14 411.09 252.75 409.26 C 253.47 407.10 249.15 407.00 239.41 408.94 C 209.06 415.00 203.16 416.59 188.50 422.67 C 174.85 428.33 168.76 431.38 167.06 433.42 C 165.93 434.79 166.10 435.00 168.38 435.00 C 172.70 435.00 171.36 436.72 165.26 439.00 C 159.26 441.25 157.00 442.65 157.00 444.12 C 157.00 445.75 163.99 445.01 168.46 442.91 Z M 822.00 443.10 C 822.00 441.71 824.62 439.96 825.50 440.76 C 825.95 441.17 826.03 440.69 825.67 439.70 C 825.28 438.62 825.42 438.14 826.01 438.51 C 827.78 439.60 827.06 441.65 824.50 442.82 C 823.12 443.44 822.00 443.57 822.00 443.10 Z M 612.81 441.09 C 623.16 439.08 625.43 437.84 622.04 436.02 C 620.34 435.11 617.05 435.23 607.19 436.56 C 597.59 437.85 591.34 438.10 581.35 437.58 C 568.75 436.93 566.30 437.31 567.82 439.65 C 570.12 443.22 597.34 444.09 612.81 441.09 Z M 880.00 433.94 C 880.00 433.36 880.45 433.16 881.00 433.50 C 881.55 433.84 882.00 434.32 882.00 434.56 C 882.00 434.80 881.55 435.00 881.00 435.00 C 880.45 435.00 880.00 434.52 880.00 433.94 Z M 749.37 424.63 C 755.68 417.14 759.00 411.84 759.00 409.27 C 759.00 408.02 758.65 407.00 758.23 407.00 C 757.27 407.00 741.73 425.72 740.88 427.90 C 738.94 432.86 744.12 430.87 749.37 424.63 Z M 832.50 427.00 C 832.84 426.45 833.32 426.00 833.56 426.00 C 833.80 426.00 834.00 426.45 834.00 427.00 C 834.00 427.55 833.52 428.00 832.94 428.00 C 832.36 428.00 832.16 427.55 832.50 427.00 Z M 743.55 419.70 C 753.46 409.17 758.32 401.00 754.67 401.00 C 752.82 401.00 736.00 421.00 736.00 423.20 C 736.00 426.30 738.38 425.19 743.55 419.70 Z M 881.21 423.78 C 881.15 423.07 880.79 419.75 880.42 416.39 C 879.65 409.43 880.94 407.45 883.59 411.50 C 884.96 413.58 885.11 415.02 884.39 419.20 C 883.58 423.88 881.50 426.88 881.21 423.78 Z M 626.33 417.24 C 627.99 416.27 629.54 414.89 629.78 414.16 C 630.24 412.77 627.61 412.95 618.93 414.90 C 614.02 416.01 614.63 415.10 620.29 412.89 C 625.09 411.01 625.93 409.57 623.08 408.04 C 621.61 407.26 618.48 407.26 611.77 408.08 C 606.67 408.70 602.16 409.41 601.75 409.66 C 600.13 410.65 601.16 411.69 604.75 412.70 L 608.50 413.75 L 605.32 413.87 C 595.10 414.28 595.11 418.64 605.33 419.32 C 614.97 419.96 623.04 419.16 626.33 417.24 Z M 663.45 417.85 L 662.77 415.70 L 683.78 416.42 C 704.07 417.12 707.87 416.72 704.74 414.25 C 703.10 412.95 692.86 411.19 680.50 410.08 C 668.04 408.97 660.17 406.28 649.13 399.35 C 640.97 394.24 633.89 390.51 627.80 388.14 C 622.86 386.22 622.12 384.17 616.08 355.75 C 614.63 348.93 612.05 346.67 610.02 350.46 C 609.12 352.14 608.96 354.85 609.46 359.67 C 610.56 370.35 613.97 387.09 615.95 391.60 C 618.04 396.35 632.54 410.81 637.31 412.90 C 645.27 416.38 656.84 419.93 660.32 419.97 C 663.77 420.00 664.07 419.80 663.45 417.85 Z M 649.09 409.84 C 643.19 408.14 627.50 397.00 631.01 397.00 C 631.84 397.00 633.65 398.05 635.03 399.33 C 636.41 400.61 638.12 401.46 638.83 401.22 C 639.54 400.99 640.88 401.46 641.81 402.28 C 644.77 404.88 654.64 410.03 655.33 409.33 C 655.70 408.97 656.00 409.19 656.00 409.83 C 656.00 411.20 653.83 411.20 649.09 409.84 Z M 161.25 401.85 C 162.21 401.34 163.00 400.33 163.00 399.60 C 163.00 398.64 160.79 398.12 155.25 397.76 C 147.67 397.27 144.98 397.56 145.02 398.86 C 145.12 403.13 155.24 405.00 161.25 401.85 Z M 877.23 400.33 C 874.84 397.66 874.49 396.43 875.85 395.59 C 877.19 394.76 879.98 397.27 880.45 399.73 C 881.07 402.96 879.78 403.20 877.23 400.33 Z M 249.39 397.42 C 251.36 392.29 248.45 382.39 246.03 386.00 C 244.91 387.67 244.63 397.29 245.67 398.33 C 246.85 399.52 248.77 399.04 249.39 397.42 Z M 256.83 392.55 C 257.23 389.15 256.28 385.00 255.10 385.00 C 254.63 385.00 253.68 386.37 252.98 388.05 C 252.01 390.39 251.99 391.68 252.87 393.62 C 254.32 396.80 256.40 396.24 256.83 392.55 Z M 740.77 372.78 C 739.21 370.43 738.74 370.14 721.50 360.72 C 702.42 350.29 692.50 341.84 690.09 333.93 C 687.25 324.63 672.23 297.73 668.87 295.93 C 665.19 293.96 665.82 297.61 671.03 308.46 C 673.86 314.35 677.20 322.01 678.45 325.46 C 683.53 339.47 696.62 354.13 711.53 362.50 C 724.13 369.58 736.01 374.89 739.37 374.95 C 742.12 375.00 742.18 374.90 740.77 372.78 Z M 199.00 371.88 C 215.92 372.44 219.99 372.31 230.50 370.85 C 236.55 370.01 247.56 369.22 254.98 369.09 C 262.39 368.96 270.26 368.48 272.48 368.01 C 300.69 362.10 308.50 359.93 308.50 358.00 C 308.50 356.82 306.84 356.44 300.75 356.21 C 293.82 355.95 292.51 356.21 288.33 358.65 C 283.94 361.22 283.70 361.26 284.21 359.32 C 284.70 357.45 284.18 357.20 278.65 356.62 C 275.30 356.27 266.56 356.50 259.25 357.13 C 251.93 357.76 245.67 358.01 245.34 357.68 C 245.01 357.35 245.25 355.06 245.87 352.60 C 248.17 343.47 246.38 325.80 242.45 318.78 C 240.62 315.53 240.27 315.66 255.55 314.01 C 265.61 312.93 271.11 313.41 289.50 316.96 C 299.79 318.95 310.14 319.95 327.32 320.62 C 337.04 321.00 345.00 321.69 345.00 322.15 C 345.00 322.62 344.20 323.00 343.22 323.00 C 342.24 323.00 340.39 323.74 339.09 324.65 C 336.89 326.19 336.78 326.72 337.38 333.22 C 338.38 343.90 340.56 347.00 347.08 347.00 C 349.92 347.00 350.96 348.29 349.06 349.46 C 348.54 349.79 340.39 351.34 330.96 352.92 C 321.52 354.50 313.29 356.31 312.66 356.94 C 310.66 358.94 313.70 359.75 323.86 359.90 C 339.08 360.13 353.03 355.44 356.26 349.00 L 358.01 345.50 L 355.26 344.30 C 353.74 343.63 351.35 343.07 349.94 343.05 C 345.90 342.97 343.37 339.84 342.59 333.94 C 342.08 330.09 342.24 328.46 343.19 327.84 C 343.91 327.37 348.32 327.10 353.00 327.24 L 361.50 327.50 L 361.80 332.20 C 361.99 335.04 361.49 338.08 360.55 339.90 C 359.70 341.55 359.00 343.37 359.00 343.95 C 359.00 345.97 362.87 344.98 364.86 342.45 C 369.53 336.51 368.36 327.11 362.45 323.24 C 360.57 322.01 358.29 321.00 357.38 321.00 C 356.48 321.00 354.33 320.16 352.62 319.12 C 350.28 317.71 345.88 316.96 335.00 316.10 C 327.02 315.46 317.80 314.65 314.50 314.28 C 311.20 313.92 308.05 313.59 307.50 313.56 C 306.50 313.50 306.06 311.12 307.00 310.86 C 307.27 310.78 311.32 311.26 316.00 311.92 C 320.68 312.57 331.94 313.20 341.02 313.31 C 356.10 313.48 357.80 313.33 360.43 311.50 C 362.01 310.40 364.92 308.60 366.89 307.50 C 371.40 304.98 373.29 301.10 373.14 294.66 C 373.02 289.19 372.01 287.40 369.57 288.34 C 368.41 288.78 368.00 290.36 368.00 294.40 C 368.00 303.47 365.25 304.60 352.08 300.95 C 346.65 299.45 344.40 299.20 343.60 300.02 C 342.03 301.62 347.05 305.73 351.60 306.59 C 354.12 307.06 354.80 307.51 353.85 308.11 C 352.04 309.26 329.73 309.23 322.93 308.07 C 319.95 307.56 314.87 306.85 311.66 306.49 C 306.81 305.94 305.90 305.55 306.34 304.17 C 308.88 296.17 312.58 288.10 314.95 285.41 C 318.73 281.09 318.22 276.46 313.12 269.00 C 307.06 260.14 307.13 260.62 312.06 261.28 C 314.46 261.60 320.72 264.08 325.97 266.79 C 331.21 269.50 338.88 272.98 343.00 274.54 C 351.47 277.73 352.47 278.38 352.49 280.77 C 352.49 281.70 353.79 283.09 355.37 283.84 C 359.10 285.64 366.00 286.56 366.00 285.27 C 366.00 283.11 357.74 275.08 352.00 271.66 C 348.66 269.67 342.12 266.88 337.46 265.46 C 332.81 264.04 329.00 262.63 329.00 262.34 C 329.00 262.04 332.55 262.11 336.89 262.49 C 346.51 263.34 353.20 262.07 362.00 257.72 C 366.32 255.58 369.08 253.46 370.26 251.38 C 372.45 247.52 372.91 239.80 371.08 237.60 C 368.96 235.04 367.00 237.49 367.00 242.69 C 367.00 248.87 365.64 251.00 361.71 250.99 C 357.95 250.99 351.80 249.47 347.35 247.44 C 341.64 244.84 337.28 246.13 340.59 249.44 C 342.91 251.77 347.03 253.73 351.28 254.53 C 353.33 254.91 355.00 255.56 355.00 255.98 C 355.00 257.40 337.59 258.08 329.50 256.98 C 325.10 256.38 317.68 255.51 313.00 255.04 C 304.28 254.17 295.74 252.26 287.93 249.44 C 285.49 248.55 279.90 247.22 275.50 246.47 C 267.20 245.07 260.32 245.38 232.00 248.48 C 224.36 249.32 220.08 249.41 219.25 248.75 C 218.37 248.05 217.99 243.90 217.97 234.63 C 217.94 225.30 217.38 219.19 216.03 213.50 C 214.98 209.10 214.44 205.21 214.81 204.85 C 215.19 204.49 220.68 203.93 227.00 203.60 C 265.91 201.61 261.25 201.44 274.50 205.32 C 281.10 207.25 290.10 209.58 294.50 210.51 C 314.59 214.74 328.30 218.70 339.47 223.50 C 342.97 225.01 343.24 225.35 341.76 226.44 C 340.83 227.11 339.61 228.89 339.04 230.40 C 337.78 233.72 337.65 245.00 338.88 245.00 C 340.65 245.00 342.53 241.61 343.53 236.62 L 344.56 231.50 L 349.53 231.58 C 352.26 231.63 356.70 231.85 359.39 232.08 C 362.59 232.35 364.43 232.09 364.70 231.32 C 365.34 229.52 352.21 222.73 337.92 217.47 C 323.45 212.15 323.55 212.36 332.17 205.70 C 338.25 201.01 347.71 196.26 359.50 191.99 C 368.86 188.60 382.49 181.92 389.64 177.22 C 402.47 168.80 408.13 165.79 410.37 166.22 C 413.48 166.81 414.31 166.08 422.55 155.50 C 437.35 136.48 443.37 123.64 445.57 106.38 L 446.32 100.50 L 447.72 103.90 C 448.50 105.77 450.99 110.04 453.26 113.40 C 466.04 132.28 482.92 143.56 517.00 156.02 C 532.82 161.80 556.27 173.67 556.78 176.15 C 556.93 176.90 554.35 179.89 551.05 182.80 C 540.05 192.48 534.64 203.60 536.80 212.11 C 537.40 214.49 537.81 216.45 537.70 216.47 C 535.21 216.87 530.88 220.64 528.53 224.44 C 525.77 228.90 525.50 230.11 525.50 237.92 C 525.50 246.42 525.55 246.57 530.25 254.13 C 532.86 258.32 535.00 262.38 535.00 263.16 C 535.00 263.93 534.04 265.22 532.87 266.03 C 528.70 268.90 525.99 272.53 525.42 275.99 C 525.11 277.92 524.37 280.75 523.79 282.28 C 522.55 285.54 523.34 296.74 524.92 298.32 C 527.01 300.41 528.18 297.30 529.39 286.49 L 530.59 275.78 L 534.88 271.77 L 539.17 267.77 L 543.52 274.26 C 545.92 277.83 549.59 282.18 551.69 283.93 C 556.48 287.93 592.92 306.04 596.69 306.30 C 602.27 306.69 599.66 303.58 590.50 298.91 C 585.55 296.38 579.92 293.36 578.00 292.19 C 576.08 291.02 570.84 287.97 566.36 285.41 C 553.86 278.25 552.08 276.33 537.27 254.00 C 531.64 245.51 529.66 241.68 529.72 239.36 C 529.76 237.64 531.73 232.14 534.09 227.15 L 538.39 218.08 L 541.32 224.79 C 544.58 232.24 554.48 247.59 556.53 248.37 C 558.16 249.00 559.93 246.29 562.99 238.50 C 564.29 235.20 566.66 230.64 568.26 228.37 C 571.07 224.37 571.12 224.13 569.59 221.17 C 567.35 216.85 562.10 209.18 560.83 208.40 C 560.25 208.04 559.41 208.34 558.96 209.06 C 558.13 210.41 561.08 217.31 562.99 218.49 C 564.66 219.53 564.13 224.28 561.92 227.90 C 560.78 229.76 559.07 233.27 558.12 235.70 L 556.39 240.10 L 555.09 237.30 C 551.57 229.72 550.63 228.19 547.02 224.11 C 541.40 217.77 540.32 212.41 542.95 203.88 C 545.18 196.69 547.74 193.03 555.73 185.62 C 559.16 182.43 561.50 180.98 562.54 181.38 C 565.44 182.49 579.55 214.38 580.60 222.20 C 581.73 230.59 575.77 241.47 568.32 244.62 C 564.24 246.35 563.38 247.81 565.30 249.73 C 567.54 251.97 571.35 250.64 576.64 245.76 C 582.36 240.49 585.08 235.17 585.73 228.01 C 586.15 223.39 585.51 219.84 582.18 208.37 C 574.72 182.71 571.98 177.61 561.97 170.77 C 552.40 164.23 530.51 153.99 509.00 146.00 C 485.49 137.25 478.36 133.18 468.44 122.83 C 461.56 115.65 456.34 108.98 457.63 109.03 C 458.11 109.05 460.30 110.89 462.50 113.12 C 464.70 115.34 469.09 119.22 472.25 121.73 C 475.41 124.24 478.00 126.68 478.00 127.15 C 478.00 127.62 478.34 127.90 478.75 127.78 C 479.39 127.60 490.58 134.54 492.00 136.01 C 493.10 137.14 503.97 142.00 505.41 142.00 C 508.03 142.00 520.74 147.43 539.50 156.57 L 557.50 165.34 L 567.00 165.77 C 583.72 166.53 600.20 162.52 609.49 155.44 C 611.42 153.97 613.00 153.11 613.00 153.53 C 613.00 153.95 614.02 153.19 615.26 151.85 C 616.51 150.51 624.72 144.30 633.51 138.05 C 655.12 122.71 663.93 115.18 672.93 104.36 C 684.39 90.58 687.55 82.62 683.14 78.63 C 681.98 77.58 676.96 76.24 669.89 75.08 C 600.07 63.68 528.73 63.79 474.50 75.39 C 464.22 77.59 453.75 80.98 451.75 82.76 C 448.35 85.78 450.08 95.22 455.69 104.25 C 456.98 106.31 457.58 108.00 457.03 108.00 C 455.97 108.00 451.71 100.36 448.72 93.08 C 447.72 90.65 446.45 85.08 445.90 80.69 C 444.81 71.96 443.64 69.12 439.20 64.33 C 435.63 60.48 431.63 59.27 418.00 57.90 C 401.21 56.21 386.49 54.17 372.00 51.50 C 352.49 47.92 351.65 47.82 350.00 48.98 C 348.69 49.90 348.74 50.22 350.39 51.48 C 351.42 52.27 354.35 53.21 356.89 53.56 C 359.42 53.91 369.82 55.79 380.00 57.74 C 405.37 62.58 406.75 62.79 421.50 64.13 C 428.65 64.78 434.88 65.64 435.34 66.05 C 436.72 67.25 424.88 68.21 415.88 67.61 C 411.27 67.31 400.75 66.81 392.50 66.51 C 384.25 66.21 374.40 65.69 370.60 65.36 C 364.09 64.80 363.73 64.88 364.22 66.74 C 364.71 68.60 364.31 68.69 357.62 68.31 C 334.78 67.02 312.85 64.68 307.00 62.92 C 296.46 59.73 271.83 55.87 240.32 52.46 C 228.03 51.14 208.13 47.45 207.00 46.29 C 206.72 46.01 210.55 46.06 215.50 46.40 C 220.45 46.74 237.32 47.47 253.00 48.02 C 300.80 49.70 324.06 51.02 333.95 52.60 C 339.14 53.44 344.50 53.84 345.85 53.50 C 350.35 52.37 346.00 49.89 337.87 48.95 C 333.82 48.48 324.43 47.18 317.00 46.05 C 308.58 44.77 293.71 43.62 277.50 43.00 C 263.20 42.45 244.53 41.49 236.00 40.86 C 220.94 39.75 206.84 40.25 204.02 41.99 C 202.87 42.70 202.85 43.12 203.94 44.42 C 205.06 45.78 204.94 46.00 203.09 46.00 C 200.64 46.00 199.21 48.61 200.79 50.19 C 203.24 52.64 237.35 58.43 255.42 59.46 C 261.42 59.80 272.90 61.46 280.92 63.14 C 288.94 64.82 297.52 66.57 300.00 67.02 C 302.48 67.47 305.18 68.08 306.00 68.39 C 307.41 68.91 314.47 69.72 338.50 72.13 C 356.64 73.94 413.92 74.10 427.84 72.38 C 434.63 71.53 440.31 70.99 440.46 71.17 C 440.62 71.35 440.98 79.38 441.26 89.00 C 441.54 98.62 441.49 104.28 441.14 101.58 C 440.49 96.58 438.56 94.41 437.69 97.69 C 437.42 98.69 436.65 102.31 435.97 105.75 C 434.81 111.60 433.00 114.28 433.00 110.15 C 433.00 104.38 420.28 101.30 382.00 97.82 C 362.12 96.01 267.98 96.00 248.00 97.81 C 210.33 101.22 196.00 104.55 196.00 109.90 C 196.00 114.45 207.44 134.74 212.40 139.00 C 217.75 143.59 227.34 150.84 245.00 163.63 C 266.48 179.20 275.12 185.95 281.11 191.82 C 285.59 196.22 291.32 198.84 297.00 199.08 C 299.18 199.17 299.08 199.30 296.17 200.14 C 291.67 201.44 293.32 203.37 300.79 205.54 C 308.76 207.86 320.51 206.25 318.57 203.11 C 318.19 202.50 316.90 201.96 315.69 201.92 C 314.49 201.87 315.98 201.27 319.00 200.58 C 322.02 199.89 326.52 198.14 329.00 196.68 C 335.35 192.93 336.12 193.36 330.61 197.57 C 328.04 199.53 324.81 202.93 323.43 205.12 C 322.04 207.31 320.20 209.37 319.34 209.70 C 316.93 210.62 288.55 204.70 286.25 202.80 C 285.48 202.16 284.03 200.03 283.02 198.07 C 280.34 192.87 275.91 188.77 267.21 183.41 C 254.90 175.85 228.66 156.48 215.50 145.26 C 203.08 134.67 196.50 122.28 190.95 99.02 C 188.62 89.27 188.50 81.74 190.54 73.08 C 192.24 65.88 197.56 49.93 199.64 45.80 C 201.45 42.22 201.39 42.00 198.65 42.00 C 195.80 42.00 194.03 43.97 191.05 50.49 C 184.88 63.96 181.63 86.79 184.35 97.50 C 186.87 107.45 192.97 126.97 194.28 129.28 C 199.92 139.26 205.51 144.76 229.00 163.50 C 243.14 174.78 252.61 181.44 262.25 186.89 C 268.03 190.16 279.48 199.86 278.60 200.73 C 278.34 200.99 275.29 200.30 271.81 199.19 C 268.34 198.07 263.77 196.88 261.66 196.52 C 257.35 195.80 219.88 197.72 216.00 198.86 C 214.50 199.30 212.05 199.03 209.88 198.20 C 206.74 196.98 205.88 197.00 203.40 198.30 C 200.77 199.68 200.25 199.63 196.83 197.66 L 193.13 195.53 L 190.04 197.81 C 187.23 199.89 185.37 200.17 169.37 200.95 C 152.79 201.76 148.97 202.53 150.37 204.78 C 151.49 206.60 156.66 206.87 174.05 205.98 L 191.50 205.09 L 193.50 207.58 C 194.60 208.96 197.01 211.86 198.86 214.03 C 202.62 218.45 202.70 220.69 199.40 229.14 C 197.57 233.84 197.75 236.60 200.71 249.75 C 201.13 251.63 200.79 252.00 198.67 252.00 C 197.27 252.00 194.86 251.51 193.32 250.92 C 191.77 250.33 186.00 249.24 180.50 248.51 C 175.00 247.78 169.49 246.86 168.25 246.47 C 166.46 245.91 166.00 246.15 166.00 247.66 C 166.00 250.54 168.53 253.55 172.55 255.46 C 175.29 256.76 179.99 257.31 191.84 257.73 C 200.45 258.03 208.41 258.62 209.52 259.03 C 211.91 259.91 215.36 269.21 216.94 279.00 C 218.22 286.96 218.30 302.98 217.07 304.92 C 216.43 305.93 212.98 306.56 205.33 307.08 C 193.00 307.92 188.69 309.16 189.19 311.73 C 189.78 314.79 194.04 315.97 204.58 315.99 L 214.66 316.00 L 216.87 320.75 C 218.38 324.00 219.21 328.02 219.48 333.50 C 219.70 337.90 220.18 345.01 220.55 349.30 C 221.41 359.27 220.49 360.50 211.40 361.47 C 203.25 362.35 187.78 366.44 184.49 368.60 C 183.12 369.50 182.00 371.02 182.00 371.99 C 182.00 373.56 182.49 373.63 186.75 372.69 C 189.36 372.10 194.88 371.74 199.00 371.88 Z M 662.54 364.44 C 661.79 361.17 660.43 355.35 659.51 351.50 C 655.91 336.44 655.10 330.53 654.42 314.14 C 653.66 296.01 653.19 293.77 650.58 295.94 C 645.42 300.22 654.52 366.96 660.91 371.67 C 663.48 373.57 664.05 371.07 662.54 364.44 Z M 589.80 365.74 C 591.02 364.28 591.75 350.02 590.69 348.31 C 590.03 347.24 581.74 345.00 578.42 345.00 C 577.60 345.00 576.64 345.79 576.28 346.75 C 575.93 347.71 574.81 349.09 573.82 349.81 C 571.30 351.62 571.48 357.07 574.17 360.49 C 578.02 365.38 587.47 368.55 589.80 365.74 Z M 260.00 363.00 C 258.72 362.17 258.75 362.03 260.25 362.02 C 261.21 362.01 262.00 362.45 262.00 363.00 C 262.00 364.22 261.89 364.22 260.00 363.00 Z M 267.81 362.32 C 268.53 362.03 269.40 362.06 269.73 362.40 C 270.06 362.73 269.47 362.96 268.42 362.92 C 267.25 362.87 267.01 362.64 267.81 362.32 Z M 234.50 360.00 C 234.84 359.45 235.32 359.00 235.56 359.00 C 235.80 359.00 236.00 359.45 236.00 360.00 C 236.00 360.55 235.52 361.00 234.94 361.00 C 234.36 361.00 234.16 360.55 234.50 360.00 Z M 580.87 357.75 C 575.83 353.44 576.80 349.32 582.49 350.84 C 585.78 351.72 587.09 353.98 584.33 354.03 C 582.72 354.06 582.68 354.21 584.04 355.28 C 585.50 356.44 585.61 360.01 584.18 360.00 C 583.80 359.99 582.32 358.98 580.87 357.75 Z M 627.37 350.73 C 632.53 336.41 634.04 329.15 634.99 314.00 C 635.52 305.48 636.25 294.85 636.61 290.39 C 637.40 280.47 635.82 278.27 633.61 286.21 C 631.96 292.13 631.41 296.22 629.97 313.36 C 628.66 328.90 626.68 339.85 623.56 348.70 C 620.74 356.69 621.01 360.94 624.09 357.14 C 625.06 355.94 626.53 353.06 627.37 350.73 Z M 227.21 344.68 C 225.21 327.89 225.67 324.95 229.57 329.48 C 232.84 333.29 233.71 343.01 231.22 347.83 C 230.17 349.85 229.49 352.02 229.71 352.66 C 229.93 353.30 229.73 354.05 229.26 354.34 C 228.80 354.63 227.87 350.28 227.21 344.68 Z M 140.86 348.50 C 142.68 346.57 144.85 345.00 145.68 345.00 C 147.74 345.00 154.00 341.97 154.00 340.97 C 154.00 339.46 148.19 338.87 144.14 339.96 C 139.42 341.23 136.00 345.09 136.00 349.13 C 136.00 352.86 136.85 352.75 140.86 348.50 Z M 239.87 344.25 C 239.58 340.24 239.25 338.09 238.70 336.67 C 238.38 335.83 238.79 334.91 239.63 334.59 C 240.76 334.15 240.97 334.50 240.50 336.01 C 240.14 337.15 240.32 338.00 240.93 338.00 C 241.52 338.00 242.00 339.80 242.00 342.00 C 242.00 345.85 240.13 347.83 239.87 344.25 Z M 266.29 340.39 C 265.78 330.75 264.83 326.00 263.43 326.00 C 261.56 326.00 261.36 341.96 263.21 343.81 C 265.26 345.86 266.51 344.47 266.29 340.39 Z M 273.01 333.90 C 272.61 328.86 272.13 327.45 270.75 327.19 C 268.78 326.81 268.66 327.31 268.98 335.00 C 269.10 338.02 269.69 341.10 270.30 341.84 C 272.34 344.33 273.55 340.76 273.01 333.90 Z M 612.41 336.80 C 614.10 333.41 615.00 329.96 615.00 326.86 C 615.00 322.61 613.73 319.94 612.36 321.31 C 611.42 322.24 606.22 340.49 606.67 341.25 C 607.85 343.23 610.06 341.52 612.41 336.80 Z M 602.18 339.36 C 601.67 338.45 597.29 335.64 592.44 333.11 C 587.59 330.57 583.16 327.73 582.59 326.79 C 581.87 325.59 581.96 323.67 582.91 320.29 C 585.30 311.77 585.36 311.00 583.66 311.00 C 579.03 311.00 574.96 320.58 576.87 326.95 C 578.25 331.58 581.25 333.96 590.73 337.98 C 598.67 341.34 603.62 341.93 602.18 339.36 Z M 225.00 326.00 C 225.00 325.45 225.45 325.00 226.00 325.00 C 226.55 325.00 227.00 325.45 227.00 326.00 C 227.00 326.55 226.55 327.00 226.00 327.00 C 225.45 327.00 225.00 326.55 225.00 326.00 Z M 231.50 319.00 C 231.16 318.45 231.36 318.00 231.94 318.00 C 232.52 318.00 233.00 318.45 233.00 319.00 C 233.00 319.55 232.80 320.00 232.56 320.00 C 232.32 320.00 231.84 319.55 231.50 319.00 Z M 14.47 308.40 C 16.45 308.90 20.59 306.76 23.00 304.00 C 23.27 303.68 27.55 299.87 32.50 295.53 C 51.72 278.68 56.61 274.15 66.57 264.00 C 78.95 251.37 79.97 250.23 90.08 237.50 C 103.46 220.67 104.08 219.98 107.93 217.55 C 111.14 215.52 124.19 211.75 136.00 209.44 C 140.10 208.63 145.28 205.26 144.45 203.92 C 144.14 203.42 140.91 203.00 137.27 203.00 C 122.32 203.00 108.75 207.49 101.91 214.71 C 90.70 226.55 82.49 234.49 74.39 241.32 C 69.39 245.55 59.06 255.87 51.46 264.25 C 32.40 285.26 28.03 289.44 16.25 297.98 C 8.78 303.39 6.00 305.98 6.00 307.54 C 6.00 310.68 7.05 311.20 9.76 309.42 C 11.15 308.51 13.16 308.08 14.47 308.40 Z M 276.55 309.10 C 274.74 308.39 274.76 308.29 276.98 307.72 C 279.65 307.02 281.32 307.67 280.46 309.07 C 279.79 310.14 279.23 310.15 276.55 309.10 Z M 614.48 303.42 C 617.96 301.14 620.36 294.13 619.77 288.00 C 619.51 285.22 619.01 282.68 618.68 282.34 C 617.33 281.00 612.76 285.39 610.91 289.81 C 609.83 292.39 608.17 295.99 607.22 297.80 C 605.52 301.07 605.53 301.13 608.00 303.03 C 611.05 305.38 611.45 305.41 614.48 303.42 Z M 230.38 302.86 C 229.89 302.11 229.47 297.23 229.42 292.00 C 229.38 286.77 228.78 280.02 228.08 277.00 C 227.38 273.98 226.66 270.16 226.49 268.53 C 226.31 266.89 225.68 265.39 225.08 265.19 C 224.49 265.00 224.00 263.36 224.00 261.56 L 224.00 258.29 L 238.75 257.59 C 246.86 257.20 256.18 256.20 259.46 255.36 C 262.74 254.52 266.57 254.05 267.96 254.32 C 283.21 257.21 289.01 258.28 291.80 258.71 C 295.42 259.28 298.12 262.45 298.35 266.40 C 298.43 267.74 298.68 268.66 298.89 268.44 C 299.11 268.23 300.95 269.73 302.99 271.77 C 307.55 276.37 307.92 279.75 303.79 279.13 C 303.39 279.07 303.34 279.71 303.66 280.55 C 303.98 281.39 303.56 282.85 302.72 283.79 C 301.89 284.73 300.47 288.41 299.57 291.96 C 297.20 301.33 295.92 302.42 288.50 301.39 C 276.23 299.70 254.66 300.61 234.88 303.66 C 232.41 304.04 230.97 303.78 230.38 302.86 Z M 686.75 299.85 C 687.61 298.99 689.02 299.02 692.41 299.98 C 698.74 301.75 715.46 300.97 717.63 298.80 C 720.72 295.71 718.32 294.70 709.22 295.27 C 702.68 295.67 699.14 295.36 693.87 293.90 C 690.11 292.85 684.88 292.00 682.25 292.00 C 676.55 292.00 670.51 289.11 670.51 286.38 C 670.50 282.89 631.34 265.00 623.71 265.00 C 620.89 265.00 608.24 252.16 603.38 244.36 C 595.79 232.19 592.03 222.53 592.01 215.21 C 592.00 208.83 592.42 207.67 598.59 197.18 C 599.99 194.81 601.55 190.25 602.07 187.05 C 604.07 174.65 605.86 172.82 614.00 174.91 C 615.92 175.40 618.77 176.09 620.32 176.44 C 625.30 177.56 629.90 190.49 628.54 199.56 C 628.17 202.07 627.24 204.35 626.48 204.64 C 625.71 204.94 623.02 203.15 620.30 200.52 C 613.37 193.80 607.65 190.58 605.09 191.95 C 600.83 194.23 597.52 213.23 600.40 218.81 C 604.18 226.12 612.69 233.00 617.96 233.00 C 622.03 233.00 619.47 228.92 610.75 221.51 C 603.38 215.24 602.98 214.14 605.50 207.00 C 606.33 204.66 607.00 201.13 607.00 199.15 L 607.00 195.54 L 615.27 203.77 C 621.41 209.88 624.22 212.00 626.16 212.00 C 627.61 212.00 629.05 212.68 629.36 213.50 C 629.68 214.33 634.57 218.01 640.22 221.68 C 645.87 225.35 650.68 228.49 650.90 228.66 C 651.12 228.83 650.73 232.24 650.03 236.23 C 647.49 250.73 647.22 252.51 647.55 252.86 C 647.73 253.06 649.15 252.33 650.69 251.25 C 652.24 250.17 654.01 249.47 654.64 249.69 C 656.36 250.30 659.81 244.02 660.18 239.61 C 660.59 234.67 658.87 233.98 656.75 238.23 L 655.13 241.50 L 655.06 236.14 C 655.00 230.79 655.00 230.78 657.75 231.47 C 659.26 231.85 661.85 232.76 663.50 233.50 C 680.33 241.06 680.45 241.09 699.50 241.93 C 717.90 242.74 720.36 242.58 719.72 240.65 C 719.08 238.74 711.09 237.06 697.57 235.99 C 676.76 234.34 663.77 230.14 644.28 218.73 L 636.06 213.92 L 638.08 208.79 C 641.81 199.33 641.63 186.47 637.70 181.25 C 636.41 179.54 636.13 179.50 654.50 184.00 C 670.64 187.96 678.00 188.91 678.00 187.04 C 678.00 185.07 670.63 182.68 642.50 175.53 C 638.65 174.56 633.48 172.63 631.00 171.26 C 627.76 169.46 625.24 168.83 622.00 168.99 C 613.75 169.41 609.96 169.30 609.29 168.62 C 608.92 168.25 611.07 165.45 614.06 162.39 C 618.31 158.04 622.24 155.46 632.00 150.62 C 649.47 141.96 657.04 136.64 668.10 125.23 C 679.75 113.21 684.56 106.82 689.78 96.43 C 696.99 82.07 698.18 76.76 698.70 56.50 C 699.11 40.83 698.92 37.60 697.23 31.50 L 695.29 24.50 L 691.41 24.50 C 686.50 24.50 685.81 26.79 689.42 31.09 C 691.66 33.75 692.00 35.10 692.03 41.33 C 692.05 45.27 692.49 51.81 693.02 55.86 C 694.55 67.63 692.26 79.07 685.91 91.46 C 680.06 102.88 676.09 108.93 671.63 113.23 C 665.73 118.92 631.53 143.81 621.10 150.01 C 607.38 158.16 598.00 171.56 594.53 187.97 C 593.52 192.75 591.66 198.07 590.26 200.19 C 585.86 206.83 586.22 224.92 591.00 238.00 C 592.07 240.91 592.72 243.64 592.46 244.06 C 592.20 244.48 592.39 244.98 592.88 245.16 C 593.86 245.53 601.00 254.68 601.00 255.56 C 601.00 255.86 599.09 254.32 596.75 252.14 C 585.69 241.81 582.41 239.77 581.34 242.55 C 580.22 245.47 587.56 254.00 603.00 267.72 C 605.48 269.92 609.30 273.35 611.50 275.35 C 615.79 279.26 620.45 280.39 619.29 277.25 C 618.93 276.29 616.22 272.21 613.26 268.18 C 610.30 264.15 608.03 260.41 608.22 259.85 C 608.40 259.30 610.56 260.61 613.02 262.76 C 619.60 268.50 624.54 271.05 644.50 278.96 C 659.77 285.01 662.80 286.56 664.50 289.20 C 665.73 291.10 669.60 293.98 674.50 296.64 C 682.93 301.21 684.88 301.72 686.75 299.85 Z M 595.00 297.05 C 595.00 296.53 592.07 294.01 588.48 291.45 C 578.40 284.26 578.01 282.62 584.50 274.66 C 586.98 271.62 589.00 268.88 589.00 268.57 C 589.00 268.26 587.54 268.01 585.75 268.02 C 579.88 268.06 575.00 274.16 575.00 281.45 C 575.00 287.06 577.92 290.52 586.39 294.93 C 592.44 298.08 595.00 298.71 595.00 297.05 Z M 348.95 290.76 C 350.53 284.52 349.65 279.50 346.98 279.50 C 345.91 279.50 345.18 281.66 344.30 287.42 C 343.01 295.89 343.24 297.29 345.84 296.80 C 346.93 296.59 348.00 294.53 348.95 290.76 Z M 126.50 288.70 C 128.72 285.15 137.87 280.08 142.17 280.03 C 148.01 279.96 150.37 276.63 145.45 275.40 C 136.95 273.26 123.12 280.63 121.46 288.18 C 120.23 293.78 123.13 294.08 126.50 288.70 Z M 267.40 285.93 C 268.09 281.56 268.65 281.19 270.64 283.75 C 271.93 285.41 272.08 285.40 273.50 283.56 C 275.50 280.97 275.43 273.05 273.37 270.12 C 272.10 268.30 271.56 268.09 270.89 269.15 C 270.11 270.37 269.54 266.87 269.74 262.18 C 269.77 261.46 269.55 261.12 269.24 261.42 C 268.94 261.73 268.08 261.48 267.34 260.87 C 266.60 260.26 266.00 260.10 266.00 260.53 C 266.00 260.96 265.17 260.56 264.15 259.63 C 262.73 258.36 261.72 258.18 259.90 258.91 C 258.58 259.44 257.89 259.90 258.37 259.94 C 258.85 259.97 258.74 260.61 258.12 261.36 C 257.28 262.37 257.27 265.30 258.09 272.61 C 258.69 278.05 259.22 283.06 259.26 283.75 C 259.30 284.44 259.64 285.00 260.01 285.00 C 260.38 285.00 261.15 286.03 261.72 287.28 C 262.29 288.53 263.66 289.62 264.76 289.71 C 266.36 289.83 266.89 289.06 267.40 285.93 Z M 610.41 278.15 C 611.83 275.84 596.61 265.00 591.94 265.00 C 587.76 265.00 590.56 268.50 598.92 273.74 C 607.26 278.96 609.40 279.78 610.41 278.15 Z M 207.92 240.75 C 207.88 240.06 207.68 238.62 207.48 237.55 C 207.28 236.48 207.53 234.91 208.03 234.05 C 208.67 232.96 208.95 233.91 208.97 237.25 C 208.99 239.86 208.78 242.00 208.50 242.00 C 208.22 242.00 207.97 241.44 207.92 240.75 Z M 121.90 235.57 C 123.71 234.24 126.93 232.85 129.04 232.49 C 136.44 231.24 136.93 226.41 129.58 227.24 C 121.22 228.18 115.09 233.10 117.46 236.94 C 118.31 238.31 118.10 238.38 121.90 235.57 Z M 255.57 223.94 C 254.72 221.07 253.73 215.87 253.38 212.37 C 252.94 208.14 252.29 206.00 251.42 206.00 C 249.13 206.00 248.76 207.98 249.48 216.55 C 250.08 223.80 250.60 225.52 253.33 229.22 C 256.11 233.00 256.52 233.24 256.80 231.32 C 256.98 230.12 256.42 226.80 255.57 223.94 Z M 630.23 229.60 C 631.47 227.75 631.02 218.61 629.61 216.75 C 627.79 214.35 626.13 214.56 625.57 217.25 C 624.54 222.21 623.90 231.03 624.49 231.99 C 625.18 233.10 628.94 231.54 630.23 229.60 Z M 206.00 227.57 C 206.00 226.24 206.56 224.55 207.25 223.82 C 209.17 221.80 208.45 216.47 205.52 210.86 C 204.07 208.07 203.16 205.50 203.52 205.15 C 204.35 204.31 206.99 207.91 207.03 209.94 C 207.05 210.80 207.69 212.33 208.46 213.35 C 209.23 214.36 209.62 215.83 209.32 216.60 C 209.03 217.37 209.28 218.00 209.89 218.00 C 211.76 218.00 211.18 225.49 209.13 227.85 C 206.72 230.63 206.00 230.56 206.00 227.57 Z M 265.00 224.50 C 265.00 219.07 263.47 218.63 262.08 223.66 C 260.98 227.65 261.35 229.00 263.56 229.00 C 264.60 229.00 265.00 227.75 265.00 224.50 Z M 668.70 225.65 C 669.72 224.35 671.63 219.88 672.94 215.69 C 674.86 209.57 675.08 207.80 674.09 206.61 C 672.44 204.62 670.41 205.54 669.19 208.82 C 668.64 210.29 667.00 214.60 665.54 218.39 C 664.09 222.18 663.13 225.89 663.42 226.64 C 664.21 228.72 666.65 228.26 668.70 225.65 Z M 260.15 219.39 C 260.25 217.80 259.98 215.40 259.54 214.06 C 258.78 211.73 258.69 211.71 257.37 213.50 C 255.69 215.81 255.62 219.07 257.18 222.50 C 258.56 225.52 259.82 224.19 260.15 219.39 Z M 551.54 219.25 C 552.40 217.19 553.85 214.38 554.76 213.00 C 557.19 209.34 557.12 208.00 554.52 208.00 C 551.59 208.00 546.00 214.21 546.00 217.46 C 546.00 219.51 548.24 223.00 549.56 223.00 C 549.79 223.00 550.68 221.31 551.54 219.25 Z M 369.50 178.00 C 369.84 177.45 370.79 177.00 371.62 177.00 C 372.44 177.00 372.84 177.45 372.50 178.00 C 372.16 178.55 371.21 179.00 370.38 179.00 C 369.56 179.00 369.16 178.55 369.50 178.00 Z M 585.88 176.84 C 592.94 175.61 595.78 173.65 593.86 171.33 C 592.16 169.28 572.00 170.20 572.00 172.33 C 572.00 173.93 576.17 178.00 577.81 178.00 C 578.61 178.00 582.25 177.48 585.88 176.84 Z M 330.96 173.16 C 331.62 171.88 332.44 171.10 332.77 171.44 C 333.11 171.77 332.57 172.82 331.57 173.77 C 329.85 175.42 329.82 175.40 330.96 173.16 Z M 378.50 174.00 C 378.84 173.45 379.57 173.00 380.12 173.00 C 380.67 173.00 380.84 173.45 380.50 174.00 C 380.16 174.55 379.43 175.00 378.88 175.00 C 378.33 175.00 378.16 174.55 378.50 174.00 Z M 333.54 170.07 C 332.88 168.99 334.83 167.50 335.73 168.40 C 336.06 168.73 335.78 169.00 335.11 169.00 C 334.43 169.00 334.16 169.45 334.50 170.00 C 334.84 170.55 334.89 171.00 334.62 171.00 C 334.34 171.00 333.86 170.58 333.54 170.07 Z M 401.00 162.07 C 401.00 161.55 401.90 160.85 403.01 160.50 C 404.11 160.15 406.35 158.74 407.98 157.36 C 410.82 154.98 413.00 154.89 413.00 157.17 C 413.00 157.74 412.37 157.97 411.59 157.67 C 410.82 157.38 409.41 157.99 408.46 159.04 C 407.51 160.09 406.39 160.74 405.98 160.49 C 405.57 160.23 404.67 160.69 403.99 161.51 C 402.60 163.18 401.00 163.48 401.00 162.07 Z M 333.24 157.02 C 333.38 156.21 334.05 154.95 334.73 154.22 C 335.40 153.50 336.38 152.14 336.90 151.21 C 337.42 150.28 338.19 149.85 338.60 150.26 C 339.01 150.67 338.57 151.79 337.62 152.75 C 336.68 153.71 335.25 155.40 334.44 156.50 C 333.51 157.76 333.07 157.95 333.24 157.02 Z M 389.00 155.73 C 389.00 154.29 389.47 152.83 390.05 152.47 C 390.70 152.07 390.96 152.79 390.75 154.37 C 390.28 157.91 389.00 158.90 389.00 155.73 Z M 586.19 151.47 C 589.32 148.36 592.37 146.11 592.96 146.47 C 593.55 146.84 593.77 147.56 593.45 148.09 C 593.13 148.61 592.37 148.73 591.78 148.36 C 591.18 147.99 590.97 148.15 591.32 148.71 C 591.67 149.27 591.11 150.50 590.08 151.43 C 589.05 152.36 588.01 152.76 587.77 152.31 C 587.53 151.87 587.44 152.00 587.58 152.61 C 587.71 153.21 586.18 154.48 584.16 155.42 C 580.61 157.08 580.67 156.97 586.19 151.47 Z M 414.06 153.83 C 415.69 150.69 415.67 150.70 416.34 152.44 C 416.70 153.37 416.13 154.39 414.89 155.06 C 412.99 156.08 412.93 155.99 414.06 153.83 Z M 555.23 152.42 C 556.18 151.43 557.17 150.83 557.43 151.10 C 557.69 151.36 556.92 152.17 555.70 152.90 C 553.60 154.16 553.58 154.14 555.23 152.42 Z M 571.00 153.43 C 571.00 152.37 574.09 149.76 574.67 150.33 C 574.98 150.65 574.54 151.60 573.69 152.45 C 572.10 154.04 571.00 154.44 571.00 153.43 Z M 389.65 149.53 C 389.34 148.72 389.52 147.80 390.04 147.47 C 390.57 147.15 391.00 147.81 391.00 148.94 C 391.00 151.36 390.44 151.60 389.65 149.53 Z M 557.00 149.64 C 557.00 149.50 559.11 147.40 561.69 144.95 C 564.27 142.50 566.08 141.29 565.72 142.25 C 565.32 143.31 565.54 144.03 566.28 144.07 C 566.95 144.10 566.49 144.62 565.25 145.22 C 564.01 145.82 563.00 146.74 563.00 147.26 C 563.00 147.78 562.27 147.94 561.39 147.60 C 560.32 147.18 559.94 147.41 560.28 148.28 C 560.57 149.05 560.00 149.65 558.89 149.73 C 557.85 149.81 557.00 149.77 557.00 149.64 Z M 544.00 146.50 C 546.76 143.56 546.89 143.51 546.59 145.58 C 546.36 147.18 544.26 148.96 542.58 148.98 C 542.07 148.99 542.71 147.88 544.00 146.50 Z M 576.00 148.19 C 576.00 147.65 576.71 146.94 577.58 146.61 C 578.56 146.23 579.01 146.46 578.77 147.19 C 578.27 148.68 576.00 149.50 576.00 148.19 Z M 605.54 148.06 C 605.18 147.48 605.33 147.00 605.87 147.00 C 606.42 147.00 607.15 146.10 607.50 145.00 C 608.26 142.61 611.29 142.27 610.82 144.63 C 610.38 146.86 606.39 149.45 605.54 148.06 Z M 340.61 146.58 C 340.94 145.71 341.65 145.00 342.19 145.00 C 343.50 145.00 342.68 147.27 341.19 147.77 C 340.46 148.01 340.23 147.56 340.61 146.58 Z M 580.00 144.41 C 580.00 143.57 580.41 143.14 580.91 143.45 C 581.42 143.76 582.06 143.45 582.34 142.76 C 582.66 141.96 582.87 142.10 582.92 143.14 C 582.96 144.05 582.33 145.05 581.50 145.36 C 580.57 145.72 580.00 145.36 580.00 144.41 Z M 531.00 144.06 C 531.00 143.54 531.44 142.84 531.99 142.51 C 532.56 142.16 532.72 142.56 532.38 143.45 C 531.72 145.18 531.00 145.50 531.00 144.06 Z M 345.50 141.00 C 345.16 140.45 345.36 140.00 345.94 140.00 C 346.52 140.00 347.00 140.45 347.00 141.00 C 347.00 141.55 346.80 142.00 346.56 142.00 C 346.32 142.00 345.84 141.55 345.50 141.00 Z M 612.40 139.49 C 612.68 137.56 614.56 135.68 616.49 135.40 C 618.45 135.11 618.48 135.05 615.09 138.25 C 613.22 140.02 612.26 140.46 612.40 139.49 Z M 376.75 136.34 C 377.44 136.06 378.56 136.06 379.25 136.34 C 379.94 136.62 379.38 136.84 378.00 136.84 C 376.62 136.84 376.06 136.62 376.75 136.34 Z M 571.73 134.88 C 572.41 134.19 573.22 133.89 573.53 134.19 C 573.83 134.50 573.28 135.06 572.29 135.44 C 570.87 135.98 570.75 135.86 571.73 134.88 Z M 530.01 131.98 C 530.59 130.89 531.62 130.04 532.29 130.08 C 533.19 130.14 533.18 130.29 532.24 130.66 C 531.55 130.94 531.21 131.54 531.49 131.98 C 531.76 132.43 531.31 133.05 530.47 133.37 C 529.23 133.85 529.15 133.59 530.01 131.98 Z M 421.43 130.00 C 421.43 128.90 421.78 128.00 422.21 128.00 C 422.65 128.00 423.00 128.90 423.00 130.00 C 423.00 131.10 422.65 132.00 422.21 132.00 C 421.78 132.00 421.43 131.10 421.43 130.00 Z M 598.00 127.62 C 598.00 127.41 598.79 126.63 599.75 125.87 C 601.34 124.63 601.37 124.66 600.13 126.25 C 598.82 127.92 598.00 128.45 598.00 127.62 Z M 550.00 124.00 C 550.00 123.45 550.48 123.00 551.06 123.00 C 551.64 123.00 551.84 123.45 551.50 124.00 C 551.16 124.55 550.68 125.00 550.44 125.00 C 550.20 125.00 550.00 124.55 550.00 124.00 Z M 359.77 123.28 C 361.57 123.05 364.27 123.06 365.77 123.29 C 367.27 123.51 365.80 123.70 362.50 123.69 C 359.20 123.68 357.97 123.50 359.77 123.28 Z M 507.50 123.00 C 507.84 122.45 508.57 122.00 509.12 122.00 C 509.67 122.00 509.84 122.45 509.50 123.00 C 509.16 123.55 508.43 124.00 507.88 124.00 C 507.33 124.00 507.16 123.55 507.50 123.00 Z M 403.27 120.31 C 404.24 120.05 405.59 120.07 406.27 120.34 C 406.95 120.62 406.15 120.83 404.50 120.81 C 402.85 120.78 402.30 120.56 403.27 120.31 Z M 589.50 120.00 C 589.84 119.45 590.54 119.00 591.06 119.00 C 591.58 119.00 592.00 119.45 592.00 120.00 C 592.00 120.55 591.30 121.00 590.44 121.00 C 589.58 121.00 589.16 120.55 589.50 120.00 Z M 416.50 118.00 C 416.84 117.45 417.32 117.00 417.56 117.00 C 417.80 117.00 418.00 117.45 418.00 118.00 C 418.00 118.55 417.52 119.00 416.94 119.00 C 416.36 119.00 416.16 118.55 416.50 118.00 Z M 493.00 116.62 C 493.00 116.41 493.79 115.63 494.75 114.87 C 496.34 113.63 496.37 113.66 495.13 115.25 C 493.82 116.92 493.00 117.45 493.00 116.62 Z M 517.00 116.62 C 517.00 116.21 518.95 113.96 521.33 111.61 C 523.72 109.26 525.56 106.59 525.42 105.67 C 525.11 103.53 526.85 102.45 528.29 103.89 C 529.10 104.70 529.08 105.00 528.20 105.00 C 527.54 105.00 527.00 105.65 527.00 106.45 C 527.00 107.25 525.98 108.93 524.73 110.20 C 520.69 114.30 517.00 117.37 517.00 116.62 Z M 545.00 116.57 C 545.00 116.30 545.90 115.59 547.00 115.00 C 548.10 114.41 549.00 114.15 549.00 114.43 C 549.00 114.70 548.10 115.41 547.00 116.00 C 545.90 116.59 545.00 116.85 545.00 116.57 Z M 597.23 114.81 C 597.73 113.32 600.00 112.50 600.00 113.81 C 600.00 114.35 599.29 115.06 598.42 115.39 C 597.44 115.77 596.99 115.54 597.23 114.81 Z M 549.50 112.00 C 549.84 111.45 550.32 111.00 550.56 111.00 C 550.80 111.00 551.00 111.45 551.00 112.00 C 551.00 112.55 550.52 113.00 549.94 113.00 C 549.36 113.00 549.16 112.55 549.50 112.00 Z M 581.50 112.00 C 581.84 111.45 582.32 111.00 582.56 111.00 C 582.80 111.00 583.00 111.45 583.00 112.00 C 583.00 112.55 582.52 113.00 581.94 113.00 C 581.36 113.00 581.16 112.55 581.50 112.00 Z M 490.40 109.14 C 492.44 106.85 493.00 106.55 493.00 107.76 C 493.00 108.18 491.99 109.14 490.75 109.90 C 488.51 111.28 488.51 111.28 490.40 109.14 Z M 554.48 108.35 C 556.11 106.78 557.64 105.65 557.86 105.84 C 558.09 106.02 558.70 105.57 559.21 104.84 C 559.98 103.75 560.08 103.77 559.77 104.93 C 559.55 105.71 557.61 107.45 555.44 108.78 L 551.50 111.21 L 554.48 108.35 Z M 541.29 103.75 C 541.54 103.06 542.26 102.61 542.88 102.75 C 543.49 102.89 544.00 102.62 544.00 102.17 C 544.00 101.71 544.72 101.33 545.60 101.33 C 546.80 101.33 546.61 101.79 544.85 103.14 C 542.10 105.27 540.65 105.51 541.29 103.75 Z M 667.00 98.00 C 665.72 97.17 665.75 97.03 667.25 97.02 C 668.21 97.01 669.00 97.45 669.00 98.00 C 669.00 99.22 668.89 99.22 667.00 98.00 Z M 537.00 95.86 C 537.00 95.39 535.54 94.97 533.75 94.94 C 531.96 94.91 528.70 94.52 526.50 94.08 C 523.51 93.47 525.43 93.25 534.07 93.21 C 540.43 93.18 546.28 93.61 547.07 94.17 C 548.19 94.97 548.10 95.06 546.62 94.58 C 545.59 94.24 544.24 94.36 543.62 94.85 C 542.01 96.12 537.00 96.88 537.00 95.86 Z M 471.51 94.98 C 471.86 94.42 472.56 94.23 473.07 94.54 C 474.46 95.40 474.20 96.00 472.44 96.00 C 471.58 96.00 471.16 95.54 471.51 94.98 Z M 551.39 94.28 C 551.79 93.88 557.15 93.51 563.31 93.46 C 569.46 93.40 573.38 93.68 572.00 94.08 C 568.70 95.03 550.46 95.21 551.39 94.28 Z M 517.81 93.32 C 518.53 93.03 519.40 93.06 519.73 93.40 C 520.06 93.73 519.47 93.96 518.42 93.92 C 517.25 93.87 517.01 93.64 517.81 93.32 Z M 499.50 92.00 C 497.85 91.58 493.91 91.18 490.75 91.12 C 487.33 91.05 485.00 90.56 485.00 89.91 C 485.00 89.19 486.64 89.00 489.75 89.36 C 492.36 89.67 497.65 90.19 501.50 90.53 C 509.72 91.24 514.26 91.93 514.89 92.55 C 515.62 93.29 502.74 92.82 499.50 92.00 Z M 472.14 89.36 C 471.29 88.73 470.00 88.45 469.29 88.72 C 467.67 89.34 459.00 86.85 459.00 85.76 C 459.00 85.32 460.01 85.18 461.25 85.45 C 464.47 86.15 470.64 87.09 477.00 87.85 C 480.05 88.21 482.28 88.93 482.00 89.47 C 481.30 90.83 474.04 90.74 472.14 89.36 Z M 194.42 86.75 C 194.68 85.51 195.41 81.35 196.06 77.50 C 196.70 73.65 198.12 67.67 199.21 64.22 C 200.30 60.77 200.91 57.21 200.56 56.30 C 199.72 54.12 198.88 55.25 195.54 63.00 C 193.34 68.13 192.64 71.56 192.24 79.25 C 191.89 86.06 192.07 89.00 192.85 89.00 C 193.46 89.00 194.17 87.99 194.42 86.75 Z M 669.81 86.32 C 670.53 86.03 671.40 86.06 671.73 86.40 C 672.06 86.73 671.47 86.96 670.42 86.92 C 669.25 86.87 669.01 86.64 669.81 86.32 Z M 444.11 60.99 C 444.49 59.62 444.85 55.91 444.90 52.75 L 445.00 47.00 L 448.25 47.13 C 456.36 47.45 523.82 43.59 528.50 42.54 C 532.52 41.64 558.24 38.90 558.67 39.33 C 559.19 39.85 547.43 41.99 543.92 42.02 C 540.87 42.03 538.38 43.50 539.84 44.40 C 540.86 45.03 567.96 43.01 584.50 41.08 C 592.51 40.14 631.64 33.88 642.00 31.87 C 657.34 28.91 666.33 26.53 674.50 23.28 C 686.29 18.60 688.00 17.42 688.00 13.97 C 688.00 9.66 681.69 7.00 671.43 6.99 C 659.84 6.98 619.88 9.96 617.25 11.04 C 611.21 13.51 616.24 13.87 648.66 13.28 C 671.65 12.87 682.12 13.00 681.68 13.71 C 681.33 14.27 679.12 15.04 676.77 15.40 C 674.42 15.77 669.80 16.70 666.50 17.48 C 663.20 18.25 653.08 20.33 644.00 22.09 C 625.97 25.58 622.59 26.54 623.44 27.90 C 624.29 29.28 612.52 31.63 582.50 36.07 C 569.23 38.03 556.61 39.46 562.00 38.39 C 569.41 36.91 572.54 35.07 570.15 33.59 C 569.68 33.30 560.79 33.91 550.40 34.94 C 505.88 39.35 446.41 42.76 447.60 40.83 C 448.10 40.03 454.88 38.70 467.00 37.04 C 471.68 36.39 478.88 35.25 483.00 34.48 C 487.12 33.72 493.20 32.63 496.50 32.07 C 499.80 31.50 506.10 30.38 510.50 29.59 C 525.88 26.81 545.83 23.71 559.50 21.96 C 564.45 21.33 570.30 20.43 572.50 19.97 C 574.70 19.51 582.12 18.63 589.00 18.02 C 602.52 16.83 608.32 15.47 607.72 13.66 C 606.88 11.08 594.78 11.77 557.73 16.52 C 545.16 18.14 538.16 18.63 536.57 18.03 C 532.46 16.46 499.05 22.33 468.76 29.95 C 445.83 35.70 444.60 36.15 442.39 39.52 C 438.70 45.16 438.26 64.48 441.84 63.79 C 442.71 63.63 443.72 62.37 444.11 60.99 Z"/>
</svg>
